<svg xmlns="http://www.w3.org/2000/svg" xmlns:xlink="http://www.w3.org/1999/xlink" width="1366" height="760" viewBox="0 0 1366 760">
  <defs>
    <clipPath id="clip-UI_Elements_-_Color_Palette_15">
      <rect width="1366" height="760"/>
    </clipPath>
  </defs>
  <g id="UI_Elements_-_Color_Palette_15" data-name="UI Elements - Color Palette – 15" clip-path="url(#clip-UI_Elements_-_Color_Palette_15)">
    <path id="Union_12" data-name="Union 12" d="M1730-6055.5v-342.527h0a29.784,29.784,0,0,0-2.356-11.651,29.859,29.859,0,0,0-6.429-9.535,29.862,29.862,0,0,0-9.535-6.43A29.807,29.807,0,0,0,1700-6428a29.8,29.8,0,0,0-11.676,2.357,29.885,29.885,0,0,0-9.537,6.43,29.911,29.911,0,0,0-6.429,9.535,29.831,29.831,0,0,0-2.354,11.325L1670-6697a29.841,29.841,0,0,1,2.358-11.678,29.913,29.913,0,0,1,6.429-9.535,29.884,29.884,0,0,1,9.537-6.429A29.808,29.808,0,0,1,1700-6727a29.811,29.811,0,0,1,11.678,2.357,29.86,29.86,0,0,1,9.535,6.429,29.861,29.861,0,0,1,6.429,9.535A29.813,29.813,0,0,1,1730-6697v194.5a55.5,55.5,0,0,1,55.5-55.5,55.5,55.5,0,0,1,55.5,55.5v447a55.5,55.5,0,0,1-55.5,55.5A55.5,55.5,0,0,1,1730-6055.5Zm-342-105v-207.527h0a29.778,29.778,0,0,0-2.354-11.65,29.942,29.942,0,0,0-6.429-9.537,29.9,29.9,0,0,0-9.537-6.427A29.809,29.809,0,0,0,1358-6398a29.81,29.81,0,0,0-11.678,2.358,29.877,29.877,0,0,0-9.535,6.427,29.882,29.882,0,0,0-6.429,9.537,29.8,29.8,0,0,0-2.356,11.325L1328-6667a29.811,29.811,0,0,1,2.358-11.678,29.857,29.857,0,0,1,6.429-9.535,29.859,29.859,0,0,1,9.535-6.429A29.8,29.8,0,0,1,1358-6697a29.8,29.8,0,0,1,11.677,2.357,29.886,29.886,0,0,1,9.537,6.429,29.917,29.917,0,0,1,6.429,9.535A29.843,29.843,0,0,1,1388-6667v59.066A55.5,55.5,0,0,1,1443.5-6663a55.5,55.5,0,0,1,55.5,55.5v447a55.5,55.5,0,0,1-55.5,55.5A55.5,55.5,0,0,1,1388-6160.5Zm171-16v-125.527h0a29.773,29.773,0,0,0-2.356-11.649,29.911,29.911,0,0,0-6.429-9.537,29.936,29.936,0,0,0-9.535-6.43A29.811,29.811,0,0,0,1529-6332a29.81,29.81,0,0,0-11.678,2.357,29.916,29.916,0,0,0-9.535,6.43,29.907,29.907,0,0,0-6.429,9.537,29.79,29.79,0,0,0-2.356,11.325L1499-6601a29.8,29.8,0,0,1,2.358-11.677,29.883,29.883,0,0,1,6.429-9.535,29.9,29.9,0,0,1,9.537-6.431A29.822,29.822,0,0,1,1529-6631a29.823,29.823,0,0,1,11.677,2.358,29.916,29.916,0,0,1,9.537,6.431,29.887,29.887,0,0,1,6.429,9.535A29.806,29.806,0,0,1,1559-6601v-22.5a55.5,55.5,0,0,1,55.5-55.5,55.5,55.5,0,0,1,55.5,55.5v447a55.5,55.5,0,0,1-55.5,55.5A55.5,55.5,0,0,1,1559-6176.5Zm-342-158v-447a55.5,55.5,0,0,1,55.5-55.5,55.5,55.5,0,0,1,55.5,55.5v447a55.5,55.5,0,0,1-55.5,55.5A55.5,55.5,0,0,1,1217-6334.5Z" transform="translate(-475 6457)" fill="#750606"/>
  </g>
</svg>
