<svg width="25" height="24" viewBox="0 0 25 24" fill="none" xmlns="http://www.w3.org/2000/svg">
<path d="M7.43994 5.00002C7.43968 5.53046 7.22871 6.03906 6.85345 6.41394C6.47819 6.78883 5.96937 6.99929 5.43894 6.99902C4.90851 6.99876 4.39991 6.78779 4.02502 6.41253C3.65014 6.03727 3.43968 5.52846 3.43994 4.99802C3.44021 4.46759 3.65117 3.95899 4.02644 3.5841C4.4017 3.20922 4.91051 2.99876 5.44094 2.99902C5.97137 2.99929 6.47998 3.21026 6.85486 3.58552C7.22975 3.96078 7.44021 4.46959 7.43994 5.00002ZM7.49994 8.48002H3.49994V21H7.49994V8.48002ZM13.8199 8.48002H9.83994V21H13.7799V14.43C13.7799 10.77 18.5499 10.43 18.5499 14.43V21H22.4999V13.07C22.4999 6.90002 15.4399 7.13002 13.7799 10.16L13.8199 8.48002Z" fill="#384B6F"/>
</svg>
