<svg width="25" height="24" viewBox="0 0 25 24" fill="none" xmlns="http://www.w3.org/2000/svg">
<path d="M13.91 12.0068C13.91 15.4568 11.131 18.2538 7.705 18.2538C4.278 18.2538 1.5 15.4578 1.5 12.0068C1.5 8.55677 4.278 5.75977 7.705 5.75977C11.131 5.75977 13.91 8.55677 13.91 12.0068ZM20.715 12.0068C20.715 15.2548 19.325 17.8868 17.613 17.8868C15.899 17.8868 14.51 15.2538 14.51 12.0068C14.51 8.75977 15.9 6.12677 17.613 6.12677C19.326 6.12677 20.715 8.75977 20.715 12.0068ZM23.499 12.0068C23.499 14.9168 23.01 17.2758 22.408 17.2758C21.805 17.2758 21.317 14.9158 21.317 12.0068C21.317 9.09677 21.805 6.73777 22.408 6.73777C23.011 6.73777 23.5 9.09777 23.5 12.0078" fill="#383D8C"/>
</svg>
