<svg width="24" height="24" viewBox="0 0 24 24" fill="none" xmlns="http://www.w3.org/2000/svg">
<path d="M13.41 12.007C13.41 15.457 10.631 18.254 7.205 18.254C3.778 18.254 1 15.458 1 12.007C1 8.55701 3.778 5.76001 7.205 5.76001C10.631 5.76001 13.41 8.55701 13.41 12.007ZM20.215 12.007C20.215 15.255 18.825 17.887 17.113 17.887C15.399 17.887 14.01 15.254 14.01 12.007C14.01 8.76001 15.4 6.12701 17.113 6.12701C18.826 6.12701 20.215 8.76001 20.215 12.007ZM22.999 12.007C22.999 14.917 22.51 17.276 21.908 17.276C21.305 17.276 20.817 14.916 20.817 12.007C20.817 9.09701 21.305 6.73801 21.908 6.73801C22.511 6.73801 23 9.09801 23 12.008" fill="white"/>
</svg>
