<svg width="25" height="24" viewBox="0 0 25 24" fill="none" xmlns="http://www.w3.org/2000/svg">
<path d="M13.91 12.007C13.91 15.457 11.131 18.254 7.705 18.254C4.278 18.254 1.5 15.458 1.5 12.007C1.5 8.55701 4.278 5.76001 7.705 5.76001C11.131 5.76001 13.91 8.55701 13.91 12.007ZM20.715 12.007C20.715 15.255 19.325 17.887 17.613 17.887C15.899 17.887 14.51 15.254 14.51 12.007C14.51 8.76001 15.9 6.12701 17.613 6.12701C19.326 6.12701 20.715 8.76001 20.715 12.007ZM23.499 12.007C23.499 14.917 23.01 17.276 22.408 17.276C21.805 17.276 21.317 14.916 21.317 12.007C21.317 9.09701 21.805 6.73801 22.408 6.73801C23.011 6.73801 23.5 9.09801 23.5 12.008" fill="#384B6F"/>
</svg>
