<?xml version="1.0" encoding="utf-8"?>
<!-- Generator: Adobe Illustrator 26.1.0, SVG Export Plug-In . SVG Version: 6.00 Build 0)  -->
<svg version="1.1" id="a" xmlns="http://www.w3.org/2000/svg" xmlns:xlink="http://www.w3.org/1999/xlink" x="0px" y="0px"
	 viewBox="0 0 300 300" style="enable-background:new 0 0 300 300;" xml:space="preserve">
<style type="text/css">
	.st0{fill:#333333;}
</style>
<g>
	<path class="st0" d="M150,48.2c12.8,0,24.2,6.6,30.6,17.7l76.7,132.9c6.4,11.1,6.4,24.3,0,35.4c-6.4,11.1-17.9,17.7-30.6,17.7H73.3
		c-12.8,0-24.2-6.6-30.6-17.7s-6.4-24.3,0-35.4l76.7-132.9C125.8,54.8,137.2,48.2,150,48.2 M150,45.8c-12.7,0-25.5,6.3-32.7,18.9
		L40.6,197.5c-14.5,25.2,3.6,56.7,32.7,56.7h153.4c29.1,0,47.3-31.5,32.7-56.7L182.7,64.7C175.5,52.1,162.7,45.8,150,45.8
		C150,45.8,150,45.8,150,45.8z"/>
	<path class="st0" d="M147.3,56.6c11.3,0,21.6,5.7,27.5,15.4l75.2,120.9c6.1,9.9,6.4,22,0.9,32.3c-5.6,10.3-15.8,16.6-27.5,16.9
		L81,246.7c-0.3,0-0.6,0-0.9,0c-11.4,0-21.8-5.9-27.7-15.8c-5.9-9.9-6.1-21.8-0.6-31.9l67.2-125.6C124.7,62.9,135.3,56.6,147.3,56.6
		 M147.3,54.2c-12,0-24,6.1-30.5,18.1L49.6,197.9c-12.6,23.2,4.3,51.2,30.4,51.2c0.3,0,0.7,0,1,0l142.4-4.7
		c26.7-0.7,42.6-30,28.6-52.8L176.9,70.7C170.1,59.7,158.7,54.2,147.3,54.2L147.3,54.2L147.3,54.2z"/>
	<path class="st0" d="M144.6,65c10,0,18.8,4.8,24.3,13.2L242.7,187c5.8,8.8,6.5,19.7,1.7,29.1c-4.7,9.4-13.8,15.4-24.4,16
		l-131.4,9.4c-0.6,0-1.2,0-1.8,0c-10.1,0-19.4-5.2-24.7-13.9c-5.3-8.7-5.8-19.3-1.2-28.4l57.6-118.3C123.5,71.2,133.5,65,144.6,65
		 M144.6,62.6c-11.3,0-22.5,5.9-28.3,17.4L58.7,198.3c-10.6,21.2,4.9,45.8,28.1,45.8c0.6,0,1.3,0,1.9-0.1l131.4-9.5
		c24.3-1.4,37.9-28.6,24.5-48.9L171,76.8C164.7,67.3,154.6,62.6,144.6,62.6L144.6,62.6L144.6,62.6z"/>
	<path class="st0" d="M142,73.4c8.5,0,16.2,4,21.2,11l72.3,96.9c5.5,7.7,6.5,17.4,2.6,26c-3.9,8.6-11.8,14.3-21.3,15.2L96.3,236.6
		c-0.9,0.1-1.8,0.1-2.7,0.1c-8.8,0-17-4.5-21.9-12c-4.9-7.6-5.5-16.7-1.8-25l48.1-111C122.4,79.2,131.6,73.4,142,73.4 M142,70.9
		c-10.5,0-21,5.7-26,16.7L67.8,198.7c-8.7,19.1,5.5,40.4,25.8,40.4c1,0,1.9,0,2.9-0.1L217,224.8c21.9-2.1,33.2-27.2,20.4-45
		l-72.3-96.9C159.3,74.8,150.6,70.9,142,70.9L142,70.9L142,70.9z"/>
	<path class="st0" d="M139.3,81.7c7.1,0,13.7,3.2,18.1,8.8l70.8,84.9c5.2,6.6,6.5,15.1,3.4,22.9c-3.1,7.8-9.9,13.1-18.2,14.4
		L104,231.5c-1.2,0.2-2.3,0.3-3.5,0.3c-7.6,0-14.7-3.8-19-10.2c-4.4-6.4-5.2-14.3-2.3-21.6l38.6-103.8
		C121.3,87.4,129.7,81.7,139.3,81.7 M139.3,79.3c-9.9,0-19.6,5.6-23.8,16.1L76.9,199.1c-6.8,17.1,6,35.1,23.6,35.1
		c1.3,0,2.5-0.1,3.8-0.3L213.8,215c19.5-2.8,28.5-25.7,16.3-41.1L159.2,89C154,82.4,146.6,79.3,139.3,79.3
		C139.3,79.3,139.3,79.3,139.3,79.3z"/>
	<path class="st0" d="M136.6,89.9c5.8,0,11.1,2.4,15,6.8l69.3,72.9c4.9,5.4,6.4,12.8,4.2,19.8c-2.3,6.9-7.9,12-15.2,13.5l-98.4,23.6
		c-1.4,0.3-2.8,0.4-4.2,0.4c-6.4,0-12.5-3.2-16.3-8.4c-3.8-5.3-4.8-11.9-2.7-18.2l29-96.5C120.1,95.3,127.7,89.9,136.6,89.9
		 M136.6,87.5c-9.2,0-18.2,5.5-21.6,15.5L86,199.5c-5,15,6.5,29.8,21.4,29.8c1.5,0,3.1-0.2,4.7-0.5l98.4-23.6
		c17.1-3.6,23.9-24.3,12.2-37.2L153.4,95C148.8,89.9,142.6,87.5,136.6,87.5L136.6,87.5L136.6,87.5z"/>
	<path class="st0" d="M133.9,98c4.4,0,8.7,1.7,12,4.9l67.9,60.9c4.6,4.3,6.4,10.6,4.9,16.7c-1.5,6.1-6,10.8-12.1,12.6l-87.4,28.3
		c-1.6,0.5-3.3,0.7-4.9,0.7c-5.3,0-10.4-2.5-13.7-6.8c-3.3-4.2-4.4-9.6-3.1-15l19.5-89.2C118.9,103.4,125.9,98,133.9,98 M133.9,95.6
		c-8.6,0-16.9,5.6-19.3,15l-19.5,89.3c-3.2,12.9,6.8,24.6,19.1,24.6c1.8,0,3.7-0.3,5.6-0.8l87.4-28.3c14.7-4.3,19.2-22.8,8.1-33.4
		l-67.9-61C143.5,97.3,138.7,95.6,133.9,95.6L133.9,95.6L133.9,95.6z"/>
	<path class="st0" d="M131.2,106c3.2,0,6.3,1.1,9,3.1l66.4,48.9c4.2,3.3,6.3,8.4,5.6,13.7c-0.7,5.3-4.1,9.7-9.1,11.7l-76.4,33
		c-1.8,0.7-3.7,1.1-5.6,1.1c-4.2,0-8.3-1.9-11.2-5.2c-2.8-3.3-4-7.4-3.4-11.8l10-82C117.7,110.3,124.8,106,131.2,106 M131.2,103.6
		c-8.1,0-15.7,5.7-17,14.7l-10,82c-1.5,10.8,7,19.6,17,19.6c2.1,0,4.3-0.4,6.5-1.3l76.5-33.1c12.3-5,14.5-21.4,4-29.5l-66.5-49
		C138.4,104.7,134.8,103.6,131.2,103.6C131.2,103.6,131.2,103.6,131.2,103.6z"/>
	<path class="st0" d="M128.5,113.7c2.1,0,4.2,0.5,6.1,1.6l65,37c3.9,2.2,6.2,6.2,6.2,10.7c0,4.5-2.3,8.5-6.2,10.7l-65.5,37.8
		c-1.9,1.1-4,1.7-6.1,1.7c-3.3,0-6.5-1.3-8.8-3.7c-2.3-2.3-3.6-5.4-3.5-8.7l0.5-74.8C116.2,118.4,122.6,113.7,128.5,113.7
		 M128.5,111.3c-7.7,0-14.7,6.1-14.8,14.7l-0.5,74.8c-0.1,8.6,7,14.9,14.8,14.9c2.5,0,5-0.6,7.3-2l65.5-37.8
		c9.9-5.7,9.8-19.9-0.1-25.6l-65-37C133.4,111.9,130.9,111.3,128.5,111.3L128.5,111.3L128.5,111.3z"/>
</g>
</svg>
