<?xml version="1.0" encoding="utf-8"?>
<!-- Generator: Adobe Illustrator 26.1.0, SVG Export Plug-In . SVG Version: 6.00 Build 0)  -->
<svg version="1.1" id="圖層_1" xmlns="http://www.w3.org/2000/svg" xmlns:xlink="http://www.w3.org/1999/xlink" x="0px" y="0px"
	 viewBox="0 0 300 300" style="enable-background:new 0 0 300 300;" xml:space="preserve">
<style type="text/css">
	.st0{fill:#333333;}
</style>
<g>
	<g id="Artboard_6">
		<g id="Group_1" transform="translate(41.278 54.218)">
			<path id="Path_209" class="st0" d="M44.8,143L92,115.8V95.9l-2.2,1.3l-33.5,19.3l0,0l-20.2,11.6l-16-27.7H0.2l51,88.3l10-17.3
				L44.8,143z"/>
			<path id="Path_210" class="st0" d="M51.2,3.6L0,92.3h19.9l16.2-28.1l47.2,27.2l8.6-5v-10L44.8,49.2l16.4-28.3L51.2,3.6z"/>
			<path id="Path_211" class="st0" d="M172.8,49.2l-47,27.1v19.9l37.3-21.5l0.8-0.4l0,0l17.5-10.1l16.2,28.1h19.9l-50.8-88l-10,17.3
				L172.8,49.2z"/>
			<path id="Path_212" class="st0" d="M117.4,175V17.3h32.5l10-17.3H58.4l10,17.3h31.8V175H68.4l-10,17.3h101l-10-17.3H117.4z"/>
			<path id="Path_213" class="st0" d="M181.4,128.1l-47.2-27.2l-8.4,4.9V116l47,27.1l-16.2,28l10,17.3l50.8-88h-19.9L181.4,128.1z"
				/>
		</g>
	</g>
</g>
</svg>
