<svg xmlns="http://www.w3.org/2000/svg" xmlns:xlink="http://www.w3.org/1999/xlink" width="300" height="300" viewBox="0 0 300 300">
  <defs>
    <clipPath id="clip-Artboard_17">
      <rect width="300" height="300"/>
    </clipPath>
  </defs>
  <g id="Artboard_17" data-name="Artboard – 17" clip-path="url(#clip-Artboard_17)">
    <rect width="300" height="300" fill="#fff"/>
    <path id="Path_24004" data-name="Path 24004" d="M389.527,582.9h44.715c4.747,0,3.442,4.552,3.442,4.552l-2.435,11.206,32.6-18.743s4.757-2.594,5.338-5.891-3.4-5.463-3.4-5.463l-25.984-17.088-1.055,9.994a5.174,5.174,0,0,1-5.506,5.231H381.9c-33.641,0-54.553-24.336-48.621-54.356s38.011-54.356,71.652-54.356H410.9s3.077-16.737,22.7-16.737a145.815,145.815,0,0,0,33.451-3.613l-5.478,21.125h32.217s2.842.033,4.005,1.776a3.949,3.949,0,0,1-.049,3.838l-9.209,15.449s-13.2,24.417-47.9,24.417H407.6c-5.038,0-3.723-5.412-3.723-5.412l2.55-11.879L372.191,507.1s-3.831,1.892-4.412,5.248,2.433,5.645,2.433,5.645l25.775,20.969,2.523-13.054s.283-5.459,6.484-5.459h54.482c33.64,0,56.1,24.336,50.171,54.356s-38.012,54.356-71.652,54.356h-9.078s-3.732,16.714-23.867,16.714-31.982,1.655-31.982,1.655l5.952-19.144H337.325s-2.777.542-4-1.46.258-4.621.258-4.621l9.019-16.524S356.448,582.9,389.527,582.9Z" transform="translate(-271.272 -391.639)" fill="#333"/>
  </g>
</svg>
