<svg width="301" height="301" viewBox="0 0 301 301" fill="none" xmlns="http://www.w3.org/2000/svg">
<path fill-rule="evenodd" clip-rule="evenodd" d="M104.417 81.4445C104.417 69.2976 109.242 57.6482 117.831 49.059C126.421 40.4699 138.07 35.6445 150.217 35.6445C162.364 35.6445 174.013 40.4699 182.602 49.059C191.192 57.6482 196.017 69.2976 196.017 81.4445C196.017 93.5914 191.192 105.241 182.602 113.83C174.013 122.419 162.364 127.245 150.217 127.245C138.07 127.245 126.421 122.419 117.831 113.83C109.242 105.241 104.417 93.5914 104.417 81.4445ZM196.017 118.085C196.017 108.367 199.877 99.0475 206.749 92.1761C213.62 85.3048 222.939 81.4445 232.657 81.4445C242.374 81.4445 251.694 85.3048 258.565 92.1761C265.437 99.0475 269.297 108.367 269.297 118.085C269.297 127.802 265.437 137.122 258.565 143.993C251.694 150.864 242.374 154.725 232.657 154.725C222.939 154.725 213.62 150.864 206.749 143.993C199.877 137.122 196.017 127.802 196.017 118.085ZM31.1369 118.085C31.1369 108.367 34.9972 99.0475 41.8685 92.1761C48.7399 85.3048 58.0594 81.4445 67.7769 81.4445C77.4945 81.4445 86.814 85.3048 93.6853 92.1761C100.557 99.0475 104.417 108.367 104.417 118.085C104.417 127.802 100.557 137.122 93.6853 143.993C86.814 150.864 77.4945 154.725 67.7769 154.725C58.0594 154.725 48.7399 150.864 41.8685 143.993C34.9972 137.122 31.1369 127.802 31.1369 118.085ZM80.7231 183.633C88.1726 171.958 98.4456 162.349 110.592 155.695C122.739 149.041 136.367 145.557 150.217 145.565C161.817 145.554 173.289 147.993 183.882 152.723C194.474 157.454 203.948 164.367 211.683 173.012C219.419 181.657 225.241 191.839 228.769 202.89C232.297 213.941 233.451 225.612 232.156 237.14C231.998 238.572 231.504 239.947 230.714 241.152C229.925 242.358 228.862 243.36 227.613 244.077C204.06 257.592 177.371 264.684 150.217 264.644C123.062 264.687 96.3724 257.595 72.821 244.077C71.5715 243.36 70.5088 242.358 69.7194 241.152C68.9299 239.947 68.436 238.572 68.2777 237.14C66.2265 218.412 70.616 199.545 80.7231 183.646V183.633Z" fill="#333333"/>
<path d="M65.7248 173.094C53.6795 191.687 48.0675 213.719 49.7498 235.809C42.4158 234.697 35.2026 232.898 28.2055 230.435L26.801 229.947C25.5478 229.502 24.4505 228.703 23.642 227.648C22.8334 226.592 22.3483 225.324 22.2454 223.999L22.1233 222.521C21.6299 216.389 22.3768 210.221 24.3193 204.385C26.2618 198.548 29.3601 193.163 33.4294 188.55C37.4987 183.936 42.4556 180.19 48.0043 177.535C53.5529 174.879 59.5797 173.369 65.7248 173.094V173.094ZM250.684 235.809C252.366 213.719 246.754 191.687 234.708 173.094C240.854 173.369 246.88 174.879 252.429 177.535C257.978 180.19 262.935 183.936 267.004 188.55C271.073 193.163 274.172 198.548 276.114 204.385C278.057 210.221 278.803 216.389 278.31 222.521L278.188 223.999C278.083 225.322 277.597 226.587 276.788 227.64C275.98 228.694 274.884 229.49 273.632 229.934L272.228 230.423C265.303 232.866 258.109 234.685 250.684 235.809V235.809Z" fill="#333333"/>
</svg>
