<svg xmlns="http://www.w3.org/2000/svg" viewBox="0 0 150 150"><title>index-triplei</title><polygon points="32.7 106 63.9 88 63.9 74.8 62.5 75.7 40.4 88.4 40.4 88.4 27 96.1 16.5 77.8 3.3 77.8 37 136.1 43.6 124.7 32.7 106" style="fill:#fff"/><polygon points="37 13.9 3.2 72.5 16.3 72.5 27 53.9 58.2 71.9 63.9 68.6 63.9 62 32.7 44 43.5 25.3 37 13.9" style="fill:#fff"/><polygon points="117.3 44 86.2 61.9 86.2 75.1 110.9 60.9 111.4 60.6 111.4 60.6 123 53.9 133.7 72.5 146.8 72.5 113.3 14.3 106.7 25.7 117.3 44" style="fill:#fff"/><polygon points="80.7 127.1 80.7 22.9 102.2 22.9 108.7 11.5 41.8 11.5 48.3 22.9 69.3 22.9 69.3 58.8 69.3 91.6 69.3 127.1 48.4 127.1 41.8 138.5 108.5 138.5 101.9 127.1 80.7 127.1" style="fill:#fff"/><polygon points="123 96.1 91.8 78.1 86.2 81.3 86.2 88.1 117.3 106 106.6 124.5 113.2 135.9 146.7 77.8 133.5 77.8 123 96.1" style="fill:#fff"/></svg>