<?xml version="1.0" encoding="utf-8"?>
<!-- Generator: Adobe Illustrator 24.0.1, SVG Export Plug-In . SVG Version: 6.00 Build 0)  -->
<svg version="1.1" id="圖層_1" xmlns="http://www.w3.org/2000/svg" xmlns:xlink="http://www.w3.org/1999/xlink" x="0px" y="0px"
	 viewBox="0 0 300 300" style="enable-background:new 0 0 300 300;" xml:space="preserve">
<style type="text/css">
	.st0{fill:#333333;}
	.st1{fill:#333333;stroke:#333333;stroke-miterlimit:10;}
</style>
<g>
	<g id="Artboard_5">
		<g id="Group_25" transform="translate(-32.482 -41.179)">
			<path id="Path_222" class="st0" d="M166.1,158.4c0-4.9,4-9,8.9-9c4.9,0,9,4,9,8.9c0,4.9-4,9-8.9,9c0,0,0,0-0.1,0
				C170.1,167.3,166.1,163.4,166.1,158.4z"/>
			<path id="Path_223" class="st0" d="M198.1,171.1c0-4.9,4-9,8.9-9s9,4,9,8.9c0,4.9-4,9-8.9,9c0,0,0,0-0.1,0
				C202.1,180.1,198.1,176.1,198.1,171.1z"/>
			<path id="Path_224" class="st1" d="M136.3,244.5c-1.6,0-3.1-0.6-4.3-1.7c-30.1-27.9-31.8-75-3.9-105.1s75-31.8,105.1-3.9
				s31.8,75,3.9,105.1c-1.1,1.1-2.2,2.3-3.3,3.3c-2.4,2.5-6.4,2.6-9,0.2s-2.6-6.4-0.2-9c0.1-0.2,0.3-0.3,0.5-0.4
				c12.3-11.6,19.3-27.8,19.2-44.7c0-34-27.6-61.7-61.6-61.7S121,154.3,121,188.4c0,17.2,7.1,33.6,19.7,45.2
				c2.6,2.4,2.7,6.4,0.4,8.9C139.8,243.8,138.1,244.6,136.3,244.5L136.3,244.5z"/>
			<path id="Path_225" class="st0" d="M218.8,252.7c0,3.4-2.8,6.2-6.2,6.2c0,0,0,0,0,0h-59.9c-3.4,0-6.2-2.8-6.2-6.2l0,0
				c0-3.4,2.8-6.2,6.2-6.2h59.9C216,246.5,218.8,249.2,218.8,252.7z"/>
			<path id="Path_226" class="st0" d="M218.8,268.7c0,3.4-2.8,6.2-6.2,6.2c0,0,0,0,0,0h-59.9c-3.4,0-6.2-2.8-6.2-6.2c0,0,0,0,0,0
				l0,0c0-3.4,2.8-6.2,6.2-6.2h59.9C216,262.5,218.8,265.3,218.8,268.7z"/>
			<path id="Path_227" class="st0" d="M218.8,284.8c0,3.4-2.8,6.2-6.2,6.2h-59.9c-3.4,0-6.2-2.8-6.2-6.2l0,0c0-3.4,2.8-6.2,6.2-6.2
				h59.9C216,278.5,218.8,281.3,218.8,284.8z"/>
			<path id="Path_228" class="st0" d="M160,294.7v3.6c0,8.9,7.2,16.1,16,16.1c0,0,0,0,0,0h13.3c8.9,0,16.1-7.2,16.1-16.1
				c0,0,0,0,0,0v-3.6H160z"/>
			<path id="Path_229" class="st1" d="M299,201.7h-25.1c-3.1,0-5.6-2.5-5.6-5.6s2.5-5.6,5.6-5.6H299c3.1,0,5.6,2.5,5.6,5.6
				S302.1,201.7,299,201.7z"/>
			<path id="Path_230" class="st1" d="M90.7,201.8H65.1c-3.1,0-5.6-2.5-5.6-5.6c0-3.1,2.5-5.6,5.6-5.6h25.7c3.1,0,5.6,2.5,5.6,5.6
				S93.8,201.8,90.7,201.8L90.7,201.8L90.7,201.8z"/>
			<path id="Path_231" class="st1" d="M182.6,102.9L182.6,102.9c-3.1,0-5.6-2.5-5.6-5.6V73.8c0-3.1,2.5-5.6,5.6-5.6c0,0,0,0,0,0l0,0
				c3.1,0,5.6,2.5,5.6,5.6l0,0v23.6C188.2,100.4,185.7,102.9,182.6,102.9z"/>
			<path id="Path_232" class="st1" d="M250.5,131.9c-3.1-0.1-5.5-2.7-5.4-5.7c0-1.4,0.6-2.7,1.5-3.7l15.6-15.6
				c2.5-1.8,6-1.3,7.8,1.1c1.5,2,1.5,4.7,0,6.7l-15.7,15.6C253.4,131.4,252,131.9,250.5,131.9z"/>
			<path id="Path_233" class="st1" d="M113,139c-1.5,0-2.9-0.6-3.9-1.6l-15.6-15.5c-2.5-1.8-3-5.3-1.2-7.8c1.8-2.5,5.3-3,7.8-1.2
				c0.5,0.3,0.9,0.7,1.2,1.2l15.6,15.5c2.1,2.2,2,5.8-0.2,7.9C115.7,138.4,114.4,139,113,139L113,139z"/>
			<path id="Path_234" class="st1" d="M172.8,207.8c2.5,0.3,5,1.3,7,2.8c3.1,2.3,5.3,5.5,6.3,9.2c1.3,4.6,1.5,9.5,0.4,14.2
				c-0.9,4.2-2.8,8.1-5.5,11.4c-2.4,3-5.6,5.2-9.3,6.3c-3.1,0.8-6.4,0.8-9.6,0v2c0,1.7-0.2,2.7-1,2.8c-1,0.1-1.9-0.3-2.5-1.1
				c-0.6-0.6-1.1-1.4-1.3-2.2c-0.4-2.6-0.5-5.3-0.4-8c0.2-8.5,0.6-15.3,1.2-20.3c0.3-3.1,1.2-9,2.6-17.8c0.6-3.7,1.5-8.9,2.8-15.6
				c0.3-1.6,0.6-3.2,0.9-4.7c-1.6,1.2-3,2.6-4.3,4.1c-0.8,0.9-1.6,1.7-2.6,2.4c-0.5,0.1-1-0.1-1.3-0.4c-0.5-0.5-0.8-1-1-1.7
				c-0.3-0.8-0.2-1.8,0.2-2.5c1.3-1.8,2.8-3.5,4.5-5c3.5-3.6,7.9-6.4,12.6-8.1c2.6-0.9,5.4-0.6,7.8,0.7c2.3,1.3,4,3.4,4.6,6
				c1.6,5.8,0.2,12.1-3.6,16.7C178.9,202.4,176,205.3,172.8,207.8z M162,246.9c0.8,0.3,1.6,0.6,2.4,0.8c1.6,0.2,3.3,0.1,4.9-0.5
				c5.9-1.7,10.3-6.6,11.4-12.6c1.6-5.1,1.7-10.5,0.4-15.6c-0.7-3-2.8-5.4-5.6-6.6c-1.6-0.7-3.5-0.8-5.2-0.3c-1,0.4-1.9,0.8-2.8,1.4
				c-0.2,0.1-0.5,0.2-0.7,0.3c-0.6,0.2-1.4-0.3-2.1-1.3c-1.2,6.5-2,13-2.4,19.5C162,236.2,161.9,241.2,162,246.9L162,246.9z
				 M165.7,206.4c4.4-2.5,8.3-5.8,11.3-9.9c3.7-4.9,5.1-9.2,4-12.7c-0.4-1.5-1.5-2.8-2.9-3.3c-1.2-0.4-2.5-0.4-3.7,0
				c-1,0.3-2,0.7-3,1.3c-1.1,0.6-2.2,1.4-3.2,2.1c0.6,0.3,1,0.8,1.2,1.5c0.2,1.3,0.1,2.7-0.3,3.9c-0.1,0.6-0.4,1.8-0.8,3.5
				c-0.1,0.7-0.5,2.7-1.3,5.9C166.6,201.2,166.1,203.8,165.7,206.4z"/>
			<path id="Path_235" class="st1" d="M199.6,219.4c1.1-2.3,3-4.1,5.3-5.1c1.2-0.3,2.4,0,3.3,0.8c1,0.8,1.7,1.8,2,3
				c0.7,3,0.8,6.2,0.4,9.3c-0.5,4.3-1.8,8.5-3.7,12.4c-1,2.7-3.1,4.9-5.8,6c-0.8,0.2-1.6,0.2-2.4,0c-0.8-0.2-1.6-0.5-2.2-1
				c0,0.3-0.1,0.6-0.2,0.9c-0.1,0.8-0.2,1.6-0.4,2.3c-0.1,0.3-0.4,0.5-0.7,0.6c-0.6,0.1-1.2-0.1-1.6-0.6c-0.4-0.3-0.7-0.8-0.9-1.3
				c0-4.8,0.3-9.6,1-14.3c1.3-12.4,3.3-24.7,5.9-36.9c1.1-5.1,1.8-8.1,2.1-9c0.3-0.9,0.7-1.7,1.2-1.8c0.7-0.1,1.4,0.1,1.9,0.6
				c0.4,0.4,0.7,0.9,0.9,1.4c0.2,0.9,0.2,1.8,0,2.7c0,0.3-0.4,2.1-1.2,5.6C202.3,203.1,200.7,211.3,199.6,219.4z M198.4,241.3
				c0.5,0.2,1,0.2,1.5,0c2.4-0.7,4.2-3.7,5.6-9.1c0.6-2.3,1-4.7,1.1-7c0.1-1.5,0.1-2.9-0.2-4.4c-0.1-0.5-0.4-0.9-0.8-1.3
				c-0.4-0.2-0.9-0.2-1.3,0c-1.2,0.4-2.5,1.8-3.7,4.2c-1.4,3.1-2.3,6.4-2.8,9.7c-0.3,2-0.6,3.8-0.8,5.6l-0.2,1.4
				C197.4,240.8,197.9,241.1,198.4,241.3z"/>
		</g>
	</g>
</g>
</svg>
