<svg xmlns="http://www.w3.org/2000/svg" viewBox="0 0 50 50"><title>index-smartbeb</title><path d="M21.8,18.4a1.8,1.8,0,0,1,3.6,0,1.8,1.8,0,0,1-1.8,1.8h0A1.7,1.7,0,0,1,21.8,18.4Z" style="fill:#fff"/><path d="M28.2,20.9a1.8,1.8,0,0,1,3.6,0A1.8,1.8,0,0,1,30,22.7h0A1.7,1.7,0,0,1,28.2,20.9Z" style="fill:#fff"/><path d="M15.8,35.8a1.6,1.6,0,0,1-.9-.3,15,15,0,1,1,20.5-.1,1.3,1.3,0,0,1-1.8-1.8h.1a12.3,12.3,0,0,0,3.9-9A12.6,12.6,0,0,0,25.1,12,12.5,12.5,0,0,0,12.7,24.4a11.9,11.9,0,0,0,4,9.1,1.4,1.4,0,0,1,.1,1.8A1.6,1.6,0,0,1,15.8,35.8Z" style="fill:#fff;stroke:#fff;stroke-miterlimit:10;stroke-width:0.5623000264167786px"/><path d="M32.4,37.5a1.3,1.3,0,0,1-1.3,1.3h-12a1.3,1.3,0,0,1-1.3-1.3h0a1.3,1.3,0,0,1,1.3-1.3H31.2c.6-.1,1.2.6,1.2,1.3Z" style="fill:#fff"/><path d="M32.4,40.6a1.2,1.2,0,0,1-1.2,1.2H19.1a1.2,1.2,0,0,1-1.3-1.2h0a1.3,1.3,0,0,1,1.3-1.3H31.2a1.4,1.4,0,0,1,1.2,1.3Z" style="fill:#fff"/><path d="M32.4,43.8a1.3,1.3,0,0,1-1.3,1.3h-12a1.3,1.3,0,0,1-1.3-1.3h0a1.3,1.3,0,0,1,1.3-1.3H31.2a1.4,1.4,0,0,1,1.2,1.3Z" style="fill:#fff"/><path d="M20.6,45.8v.7a3.2,3.2,0,0,0,3.2,3.3h2.7a3.2,3.2,0,0,0,3.2-3.3h0v-.7Z" style="fill:#fff"/><path d="M48.6,27.2H43.5A1.1,1.1,0,0,1,42.4,26a1.1,1.1,0,0,1,1.1-1.1h5.1A1.1,1.1,0,0,1,49.7,26,1.1,1.1,0,0,1,48.6,27.2Z" style="fill:#fff;stroke:#fff;stroke-miterlimit:10;stroke-width:0.5623000264167786px"/><path d="M6.6,27.2H1.4A1.1,1.1,0,0,1,.3,26a1.1,1.1,0,0,1,1.1-1.1H6.6A1.1,1.1,0,0,1,7.7,26a1.1,1.1,0,0,1-1.1,1.2Z" style="fill:#fff;stroke:#fff;stroke-miterlimit:10;stroke-width:0.5623000264167786px"/><path d="M25.1,7.2h0A1.1,1.1,0,0,1,24,6.1V1.3A1.1,1.1,0,0,1,25.1.2h0a1.1,1.1,0,0,1,1.1,1.1V6.2A1.1,1.1,0,0,1,25.1,7.2Z" style="fill:#fff;stroke:#fff;stroke-miterlimit:10;stroke-width:0.5623000264167786px"/><path d="M38.8,13a1.1,1.1,0,0,1-1.1-1.2.6.6,0,0,1,.3-.6L41.2,8a1.1,1.1,0,0,1,1.6.2,1.1,1.1,0,0,1,0,1.3l-3.2,3.2A1.1,1.1,0,0,1,38.8,13Z" style="fill:#fff;stroke:#fff;stroke-miterlimit:10;stroke-width:0.5623000264167786px"/><path d="M11.1,14.5a1.1,1.1,0,0,1-.8-.3L7.2,11A1.1,1.1,0,0,1,7,9.4a1,1,0,0,1,1.5-.2l.2.2,3.1,3.1a1.4,1.4,0,0,1,0,1.7A1.5,1.5,0,0,1,11.1,14.5Z" style="fill:#fff;stroke:#fff;stroke-miterlimit:10;stroke-width:0.5623000264167786px"/><path d="M23.1,28.3a3.5,3.5,0,0,1,1.4.6,3.6,3.6,0,0,1,1.3,1.9,6.1,6.1,0,0,1,.1,3A7.6,7.6,0,0,1,24.8,36a4.3,4.3,0,0,1-1.9,1.3,3.1,3.1,0,0,1-1.9,0v.5c0,.2,0,.5-.2.5a.6.6,0,0,1-.5-.2l-.3-.4a8.6,8.6,0,0,1-.1-1.6c0-1.7.1-3.1.2-4.1s.2-1.8.5-3.6.3-1.8.6-3.1.1-.6.2-1l-.9.8-.5.5h-.3c-.1-.1-.2-.2-.2-.3s0-.4,0-.5l.9-1a6.7,6.7,0,0,1,2.5-1.6,2.2,2.2,0,0,1,1.6.1,1.8,1.8,0,0,1,.9,1.2,4.1,4.1,0,0,1-.7,3.4A5.9,5.9,0,0,1,23.1,28.3Zm-2.1,8a.6.6,0,0,1,.5.2h1a3.1,3.1,0,0,0,2.3-2.5,6.5,6.5,0,0,0,.1-3.1,1.8,1.8,0,0,0-1.1-1.3,1.7,1.7,0,0,0-1-.1l-.6.3a.1.1,0,0,0-.1.1.5.5,0,0,1-.4-.3c-.2,1.3-.4,2.6-.5,3.9a8.4,8.4,0,0,0-.2,2.9Zm.7-8.3A7.4,7.4,0,0,0,24,26a3.1,3.1,0,0,0,.8-2.6c-.1-.2-.3-.6-.6-.7h-.7l-.6.3-.6.4.2.3a2.2,2.2,0,0,1-.1.8,4.1,4.1,0,0,1-.2.7,9,9,0,0,1-.3,1.2A7.8,7.8,0,0,1,21.7,28Z" style="fill:#fff;stroke:#fff;stroke-miterlimit:10;stroke-width:0.5623000264167786px"/><path d="M28.5,30.8a1.8,1.8,0,0,1,1.1-1,.7.7,0,0,1,.7.2,2.1,2.1,0,0,1,.4.6,5.9,5.9,0,0,1,.1,1.9,10.3,10.3,0,0,1-.7,2.5,2,2,0,0,1-1.2,1.2h-.5A.5.5,0,0,1,28,36v.2a.9.9,0,0,1-.1.5h-.4l-.2-.3a28.3,28.3,0,0,1,.2-2.9c.3-2.5.7-5,1.2-7.4s.4-1.6.4-1.8.1-.3.2-.4h.4l.2.3v.5c0,.1-.1.4-.2,1.1A18.5,18.5,0,0,0,28.5,30.8Zm-.2,4.3h.3c.5-.1.8-.7,1.1-1.8a6.8,6.8,0,0,0,.2-1.4V31a.2.2,0,0,0-.2-.2h-.3a2.3,2.3,0,0,0-.7.7,6.6,6.6,0,0,0-.6,2c-.1.5-.1.8-.2,1.1v.3Z" style="fill:#fff;stroke:#fff;stroke-miterlimit:10;stroke-width:0.5623000264167786px"/></svg>