<svg xmlns="http://www.w3.org/2000/svg" xmlns:xlink="http://www.w3.org/1999/xlink" width="300" height="300" viewBox="0 0 300 300">
  <defs>
    <clipPath id="clip-Artboard_5">
      <rect width="300" height="300"/>
    </clipPath>
  </defs>
  <g id="Artboard_5" data-name="Artboard – 5" clip-path="url(#clip-Artboard_5)">
    <rect width="300" height="300" fill="#fff"/>
    <g id="Group_25" data-name="Group 25" transform="translate(-32.482 -41.179)">
      <path id="Path_222" data-name="Path 222" d="M38.68,38.595a8.959,8.959,0,1,1,8.959,8.9,8.959,8.959,0,0,1-8.959-8.9Z" transform="translate(127.413 119.841)" fill="#333"/>
      <path id="Path_223" data-name="Path 223" d="M50.15,43.127a8.959,8.959,0,1,1,8.931,8.931A8.959,8.959,0,0,1,50.15,43.127Z" transform="translate(147.955 128.008)" fill="#333"/>
      <path id="Path_224" data-name="Path 224" d="M45.964,147.346a6.363,6.363,0,0,1-4.3-1.675,74.353,74.353,0,1,1,101.784-.558,6.335,6.335,0,1,1-8.708-9.182,61.037,61.037,0,0,0,19.2-44.654,61.651,61.651,0,1,0-103.6,45.129,6.307,6.307,0,0,1-4.382,10.94Z" transform="translate(90.322 97.189)" fill="#333" stroke="#333" stroke-miterlimit="10" stroke-width="1"/>
      <path id="Path_225" data-name="Path 225" d="M103.962,70.574A6.224,6.224,0,0,1,97.738,76.8H37.874a6.224,6.224,0,0,1-6.224-6.224h0a6.224,6.224,0,0,1,6.224-6.224H97.738A6.224,6.224,0,0,1,103.962,70.574Z" transform="translate(114.823 182.11)" fill="#333"/>
      <path id="Path_226" data-name="Path 226" d="M103.962,76.324a6.2,6.2,0,0,1-6.224,6.2H37.874a6.2,6.2,0,0,1-6.224-6.2h0A6.224,6.224,0,0,1,37.874,70.1H97.738A6.224,6.224,0,0,1,103.962,76.324Z" transform="translate(114.823 192.408)" fill="#333"/>
      <path id="Path_227" data-name="Path 227" d="M103.962,82.064a6.224,6.224,0,0,1-6.224,6.224H37.874a6.224,6.224,0,0,1-6.224-6.224h0a6.224,6.224,0,0,1,6.224-6.224H97.738A6.224,6.224,0,0,1,103.962,82.064Z" transform="translate(114.823 202.688)" fill="#333"/>
      <path id="Path_228" data-name="Path 228" d="M36.49,81.65v3.572a16.075,16.075,0,0,0,16.076,16.1H65.822A16.075,16.075,0,0,0,81.9,85.222V81.65Z" transform="translate(123.491 213.093)" fill="#333"/>
      <path id="Path_229" data-name="Path 229" d="M106.01,55.484H80.892a5.582,5.582,0,1,1,0-11.164H106.01a5.582,5.582,0,1,1,0,11.164Z" transform="translate(193.013 146.239)" fill="#333" stroke="#333" stroke-miterlimit="10" stroke-width="1"/>
      <path id="Path_230" data-name="Path 230" d="M31.738,55.494H6.062a5.582,5.582,0,0,1,0-11.164h25.7a5.582,5.582,0,0,1,0,11.164Z" transform="translate(59.001 146.257)" fill="#333" stroke="#333" stroke-miterlimit="10" stroke-width="1"/>
      <path id="Path_231" data-name="Path 231" d="M48.182,35.161h0A5.582,5.582,0,0,1,42.6,29.579V6.052A5.582,5.582,0,0,1,48.182.47h0a5.582,5.582,0,0,1,5.582,5.582V29.635A5.582,5.582,0,0,1,48.182,35.161Z" transform="translate(134.433 67.709)" fill="#333" stroke="#333" stroke-miterlimit="10" stroke-width="1"/>
      <path id="Path_232" data-name="Path 232" d="M72.42,40.091a5.582,5.582,0,0,1-3.879-9.433l15.629-15.6a5.582,5.582,0,0,1,7.814,7.814l-15.657,15.6A5.414,5.414,0,0,1,72.42,40.091Z" transform="translate(178.126 91.832)" fill="#333" stroke="#333" stroke-miterlimit="10" stroke-width="1"/>
      <path id="Path_233" data-name="Path 233" d="M33.623,43.331a5.582,5.582,0,0,1-3.907-1.619L14.143,26.167a5.582,5.582,0,1,1,7.787-7.814L37.53,33.9a5.582,5.582,0,0,1-3.907,9.433Z" transform="translate(79.36 95.653)" fill="#333" stroke="#333" stroke-miterlimit="10" stroke-width="1"/>
      <path id="Path_234" data-name="Path 234" d="M52.491,71.393a15.1,15.1,0,0,1,7.033,2.791,16.745,16.745,0,0,1,6.252,9.238,28.579,28.579,0,0,1,.419,14.234A27.518,27.518,0,0,1,60.668,109.1a18.727,18.727,0,0,1-9.294,6.307,19.173,19.173,0,0,1-9.573,0v1.982c0,1.7-.223,2.651-.977,2.791a2.738,2.738,0,0,1-2.512-1.116,5,5,0,0,1-1.312-2.2,36.282,36.282,0,0,1-.363-8.01q.335-12.81,1.2-20.262.5-4.633,2.6-17.75.921-5.582,2.791-15.573c.335-1.563.614-3.154.865-4.717a36.283,36.283,0,0,0-4.326,4.1,13.955,13.955,0,0,1-2.623,2.4,1.34,1.34,0,0,1-1.284-.447,3.712,3.712,0,0,1-.977-1.675,2.958,2.958,0,0,1,.223-2.54,29.807,29.807,0,0,1,4.549-5A33.183,33.183,0,0,1,52.3,39.326a9.712,9.712,0,0,1,7.787.7,9.573,9.573,0,0,1,4.633,6,18.783,18.783,0,0,1-3.628,16.745A41.864,41.864,0,0,1,52.491,71.393ZM41.746,110.466a15.013,15.013,0,0,0,2.428.753,10.773,10.773,0,0,0,4.884-.474A16.3,16.3,0,0,0,60.5,98.158a28.5,28.5,0,0,0,.363-15.629,9.8,9.8,0,0,0-5.582-6.642,7.619,7.619,0,0,0-5.163-.279,12.643,12.643,0,0,0-2.791,1.423,2.233,2.233,0,0,1-.7.307c-.642.2-1.368-.251-2.149-1.312a157.265,157.265,0,0,0-2.372,19.536c-.335,4.27-.447,9.238-.363,14.987Zm3.712-40.44a35.556,35.556,0,0,0,11.3-9.908c3.684-4.94,5.052-9.154,4.047-12.7a4.744,4.744,0,0,0-2.93-3.349,5.945,5.945,0,0,0-3.684,0,14.68,14.68,0,0,0-2.958,1.256,26.429,26.429,0,0,0-3.154,2.149,2.121,2.121,0,0,1,1.172,1.451,7.9,7.9,0,0,1-.335,3.935c-.14.614-.391,1.758-.754,3.489Q48,57.439,46.909,62.295a74.817,74.817,0,0,0-1.451,7.731Z" transform="translate(120.273 136.386)" fill="#333" stroke="#333" stroke-miterlimit="10" stroke-width="1"/>
      <path id="Path_235" data-name="Path 235" d="M55.124,76.816a10.159,10.159,0,0,1,5.3-5.079,3.377,3.377,0,0,1,3.265.809,5.582,5.582,0,0,1,1.982,3.014,24.894,24.894,0,0,1,.391,9.266,37.677,37.677,0,0,1-3.712,12.447,10.354,10.354,0,0,1-5.777,6.028,4.94,4.94,0,0,1-2.372,0,5.08,5.08,0,0,1-2.2-1,2.906,2.906,0,0,1-.2.949,14.568,14.568,0,0,1-.363,2.344.977.977,0,0,1-.726.614,1.87,1.87,0,0,1-1.647-.558,2.512,2.512,0,0,1-.865-1.256,94.11,94.11,0,0,1,.977-14.345A341.662,341.662,0,0,1,55.1,53.177c1.088-5.079,1.786-8.066,2.065-8.987s.726-1.7,1.2-1.842a2.093,2.093,0,0,1,1.9.558,2.791,2.791,0,0,1,.865,1.4,5.414,5.414,0,0,1,0,2.651c0,.251-.447,2.065-1.2,5.582A189.279,189.279,0,0,0,55.124,76.816ZM53.951,98.669a2.177,2.177,0,0,0,1.451,0c2.372-.67,4.214-3.684,5.582-9.07A36.031,36.031,0,0,0,62.1,82.565a14.651,14.651,0,0,0-.223-4.354,2.121,2.121,0,0,0-.754-1.256,1.535,1.535,0,0,0-1.284,0c-1.228.363-2.484,1.758-3.684,4.186a34.83,34.83,0,0,0-2.791,9.712q-.5,2.93-.754,5.582l-.167,1.4A4.856,4.856,0,0,0,53.951,98.669Z" transform="translate(144.461 142.629)" fill="#333" stroke="#333" stroke-miterlimit="10" stroke-width="1"/>
    </g>
  </g>
</svg>
