<svg xmlns="http://www.w3.org/2000/svg" xmlns:xlink="http://www.w3.org/1999/xlink" width="300" height="300" viewBox="0 0 300 300">
  <defs>
    <clipPath id="clip-Artboard_28">
      <rect width="300" height="300"/>
    </clipPath>
  </defs>
  <g id="Artboard_28" data-name="Artboard – 28" clip-path="url(#clip-Artboard_28)">
    <rect width="300" height="300" fill="#fff"/>
    <path id="index-visual" d="M90.191,2.188C46.313,10.751,10.954,46.021,2.3,89.767c-16.333,82.547,58.136,144.082,114.242,135.386,18.187-2.825,27.1-24.1,18.761-40.479-10.2-20.041,4.37-43.437,26.883-43.437H197.37a28.882,28.882,0,0,0,28.649-28.825C225.8,42.843,162.5-11.894,90.191,2.188ZM42.384,141.238A14.126,14.126,0,1,1,56.51,127.112,14.111,14.111,0,0,1,42.384,141.238Zm14.126-56.5A14.126,14.126,0,1,1,70.635,70.609,14.111,14.111,0,0,1,56.51,84.735Zm56.5-28.251a14.126,14.126,0,1,1,14.126-14.126A14.111,14.111,0,0,1,113.013,56.483Zm56.5,28.251a14.126,14.126,0,1,1,14.126-14.126A14.111,14.111,0,0,1,169.515,84.735Z" transform="translate(36.979 37.027)" fill="#333"/>
  </g>
</svg>
