<svg width="300" height="300" viewBox="0 0 300 300" fill="none" xmlns="http://www.w3.org/2000/svg">
<rect width="300" height="300" rx="80" fill="#1886DD"/>
<path d="M109.632 228.5C109.321 228.5 108.987 228.404 108.7 228.237C108.174 227.927 107.84 227.329 107.84 226.708V214.164H100.074C96.4427 214.164 93.5038 211.225 93.5038 207.594V190.868C93.5038 189.865 94.3162 189.076 95.2958 189.076C96.2754 189.076 97.0878 189.889 97.0878 190.868V207.594C97.0878 209.242 98.4258 210.58 100.074 210.58H109.632C110.611 210.58 111.424 211.393 111.424 212.372V223.745L135.986 210.795C136.249 210.652 136.535 210.58 136.822 210.58H221.929C223.578 210.58 224.916 209.242 224.916 207.594V112.021C224.916 110.372 223.578 109.034 221.929 109.034H202.815C201.835 109.034 201.023 108.222 201.023 107.242C201.023 106.263 201.835 105.45 202.815 105.45H221.929C225.561 105.45 228.5 108.389 228.5 112.021V207.594C228.5 211.225 225.561 214.164 221.929 214.164H137.252L110.468 228.285C110.205 228.428 109.918 228.5 109.632 228.5Z" fill="white"/>
<path d="M198.036 192.66H78.5706C74.9389 192.66 72 189.721 72 186.09V92.9065C72 91.9269 72.8124 91.1145 73.792 91.1145H202.815C203.795 91.1145 204.607 91.9269 204.607 92.9065V186.09C204.607 189.721 201.668 192.66 198.036 192.66ZM75.584 94.6985V186.09C75.584 187.738 76.922 189.076 78.5706 189.076H198.036C199.685 189.076 201.023 187.738 201.023 186.09V94.6985H75.584Z" fill="white"/>
<path d="M202.815 94.6985H73.792C72.8124 94.6985 72 93.8861 72 92.9065V78.5706C72 74.9389 74.9389 72 78.5706 72H198.036C201.668 72 204.607 74.9389 204.607 78.5706V92.9065C204.607 93.8861 203.795 94.6985 202.815 94.6985ZM75.584 91.1145H201.023V78.5706C201.023 76.922 199.685 75.584 198.036 75.584H78.5706C76.922 75.584 75.584 76.922 75.584 78.5706V91.1145Z" fill="white"/>
<path d="M166.975 85.1411C166.736 85.1411 166.497 85.0933 166.282 84.9978C166.067 84.9022 165.876 84.7827 165.709 84.6155C165.374 84.281 165.183 83.827 165.183 83.3491C165.183 83.1102 165.231 82.8713 165.327 82.6562C165.398 82.4412 165.542 82.2501 165.709 82.0828C166.378 81.4138 167.573 81.4138 168.242 82.0828C168.409 82.2501 168.528 82.4412 168.624 82.6562C168.719 82.8713 168.767 83.1102 168.767 83.3491C168.767 83.827 168.576 84.281 168.242 84.6155C168.074 84.7827 167.883 84.9022 167.668 84.9978C167.453 85.0933 167.214 85.1411 166.975 85.1411Z" fill="white"/>
<path d="M177.13 83.3494C177.13 82.3697 177.918 81.5574 178.922 81.5574C179.901 81.5574 180.714 82.3697 180.714 83.3494C180.714 84.329 179.901 85.1413 178.922 85.1413C177.918 85.1413 177.13 84.329 177.13 83.3494Z" fill="white"/>
<path d="M190.868 85.1411C190.629 85.1411 190.39 85.0933 190.175 84.9978C189.96 84.9022 189.769 84.7827 189.602 84.6155C189.267 84.281 189.076 83.827 189.076 83.3491C189.076 83.1102 189.124 82.8713 189.22 82.6562C189.291 82.4412 189.435 82.2501 189.602 82.0828C190.271 81.4138 191.466 81.4138 192.135 82.0828C192.302 82.2501 192.421 82.4412 192.517 82.6562C192.613 82.8713 192.66 83.1102 192.66 83.3491C192.66 83.5881 192.613 83.827 192.517 84.042C192.421 84.2571 192.302 84.4482 192.135 84.6155C191.967 84.7827 191.776 84.9022 191.561 84.9978C191.322 85.0933 191.107 85.1411 190.868 85.1411Z" fill="white"/>
<path d="M138.303 183.103C137.897 183.103 137.467 182.96 137.133 182.673L120.909 168.767H100.074C96.4427 168.767 93.5038 165.828 93.5038 162.197V116.8C93.5038 113.168 96.4427 110.229 100.074 110.229H176.532C180.164 110.229 183.103 113.168 183.103 116.8V162.197C183.103 165.828 180.164 168.767 176.532 168.767H155.698L139.474 182.673C139.14 182.96 138.71 183.103 138.303 183.103ZM100.074 113.813C98.4258 113.813 97.0878 115.151 97.0878 116.8V162.197C97.0878 163.845 98.4258 165.183 100.074 165.183H121.578C122.008 165.183 122.415 165.327 122.749 165.613L138.303 178.946L153.858 165.613C154.192 165.327 154.599 165.183 155.029 165.183H176.532C178.181 165.183 179.519 163.845 179.519 162.197V116.8C179.519 115.151 178.181 113.813 176.532 113.813H100.074Z" fill="white"/>
<path d="M138.303 162.794C137.993 162.794 137.658 162.698 137.372 162.531C136.511 162.005 116.202 149.557 116.202 135.986C116.202 129.033 121.913 123.37 128.913 123.37C132.497 123.37 135.914 124.899 138.303 127.504C140.693 124.899 144.109 123.37 147.693 123.37C154.694 123.37 160.405 129.033 160.405 135.986C160.405 149.581 140.095 162.029 139.235 162.555C138.949 162.698 138.614 162.794 138.303 162.794ZM128.913 126.954C123.896 126.954 119.786 130.992 119.786 135.986C119.786 146.092 134.433 156.343 138.303 158.875C142.174 156.343 156.821 146.069 156.821 135.986C156.821 131.016 152.735 126.954 147.693 126.954C144.492 126.954 141.481 128.651 139.833 131.398C139.187 132.497 137.395 132.497 136.75 131.398C135.126 128.651 132.115 126.954 128.913 126.954Z" fill="white"/>
<path d="M219.54 198.132H209.983C209.003 198.132 208.191 197.319 208.191 196.34C208.191 195.36 209.003 194.548 209.983 194.548H219.54C220.52 194.548 221.332 195.36 221.332 196.34C221.332 197.319 220.544 198.132 219.54 198.132Z" fill="white"/>
<path d="M214.761 202.911C213.782 202.911 212.969 202.098 212.969 201.119V191.561C212.969 190.582 213.782 189.769 214.761 189.769C215.741 189.769 216.553 190.582 216.553 191.561V201.119C216.553 202.098 215.765 202.911 214.761 202.911Z" fill="white"/>
<path d="M214.761 183.796C215.751 183.796 216.553 182.994 216.553 182.004C216.553 181.014 215.751 180.212 214.761 180.212C213.772 180.212 212.969 181.014 212.969 182.004C212.969 182.994 213.772 183.796 214.761 183.796Z" fill="white"/>
<path d="M214.761 174.239C215.751 174.239 216.553 173.436 216.553 172.447C216.553 171.457 215.751 170.655 214.761 170.655C213.772 170.655 212.969 171.457 212.969 172.447C212.969 173.436 213.772 174.239 214.761 174.239Z" fill="white"/>
<path d="M214.761 162.292C215.751 162.292 216.553 161.49 216.553 160.5C216.553 159.511 215.751 158.708 214.761 158.708C213.772 158.708 212.969 159.511 212.969 160.5C212.969 161.49 213.772 162.292 214.761 162.292Z" fill="white"/>
<path d="M214.761 145.543C215.751 145.543 216.553 144.741 216.553 143.751C216.553 142.762 215.751 141.959 214.761 141.959C213.772 141.959 212.969 142.762 212.969 143.751C212.969 144.741 213.772 145.543 214.761 145.543Z" fill="white"/>
<path d="M153.786 204.607H130.419C129.439 204.607 128.627 203.795 128.627 202.815C128.627 201.835 129.439 201.023 130.419 201.023H153.786C154.766 201.023 155.578 201.835 155.578 202.815C155.578 203.795 154.766 204.607 153.786 204.607Z" fill="white"/>
<path d="M168.624 204.607H163.343C162.364 204.607 161.551 203.795 161.551 202.815C161.551 201.835 162.364 201.023 163.343 201.023H168.624C169.603 201.023 170.416 201.835 170.416 202.815C170.416 203.795 169.603 204.607 168.624 204.607Z" fill="white"/>
</svg>
