<svg id="圖層_1" data-name="圖層 1" xmlns="http://www.w3.org/2000/svg" viewBox="0 0 950 109"><defs><style>.cls-1{fill:#fcefeb;}.cls-2{fill:none;stroke:#d35224;stroke-miterlimit:10;}.cls-3{font-size:14px;font-family:NotoSansCJKtc-Regular-B5pc-H, Noto Sans CJK TC;}.cls-4{letter-spacing:-0.25em;}.cls-5{fill:#d35224;}</style></defs><title>iot-1</title><rect class="cls-1" width="950" height="109.24" rx="12"/><line class="cls-2" x1="158.5" y1="27.5" x2="158.5" y2="82.5"/><text class="cls-3" transform="translate(198 45.53)">新創開發方式百百<tspan class="cls-4" x="112" y="0">種，</tspan><tspan x="133" y="0">能夠做出產品的就是好流</tspan><tspan class="cls-4" x="287" y="0">程，</tspan><tspan x="308" y="0">所以以下的方式我認為是適合這間公</tspan><tspan class="cls-4" x="532" y="0">司，</tspan><tspan x="553" y="0">這個專案的開發方</tspan><tspan class="cls-4" x="665" y="0">式，</tspan><tspan x="686" y="0">而</tspan><tspan x="0" y="26">我們確實也這麼做</tspan><tspan class="cls-4" x="112" y="26">了。</tspan></text><path class="cls-5" d="M98.13,48C98.13,38.34,90,30.47,80,30.47S61.89,38.34,61.89,48c0,3.88,1.81,7.92,3.55,11.86.82,1.8,1.64,3.68,2.26,5.48h0a.72.72,0,1,0,0,1.44h.76a2.21,2.21,0,0,1,.45,1.32,2.15,2.15,0,0,1-.45,1.29h-.76a.73.73,0,0,0-.72.73.72.72,0,0,0,.72.73h.76a2.16,2.16,0,0,1,.45,1.31,2.13,2.13,0,0,1-.45,1.29h-.76a.73.73,0,0,0,0,1.45H72.1a4,4,0,0,0,3.79,3.44h8.25a4,4,0,0,0,3.79-3.44h4.41a.73.73,0,0,0,0-1.45h-.76a2.13,2.13,0,0,1-.45-1.29,2.16,2.16,0,0,1,.45-1.31h.76a.73.73,0,0,0,.72-.73.74.74,0,0,0-.72-.73h-.76a2.15,2.15,0,0,1-.45-1.29,2.21,2.21,0,0,1,.45-1.32h.76a.72.72,0,1,0,0-1.44h-.07c.66-1.91,1.52-3.83,2.36-5.72C96.36,55.77,98.13,51.81,98.13,48ZM79,50.65l-.91-.92.91-.91a1.45,1.45,0,0,0,.43-1A1.51,1.51,0,0,0,79,46.71l-.91-.9,1-1a1.48,1.48,0,0,0,0-2.11l-.92-.9,2-2,2.45,2.45V59.45a.7.7,0,0,0,.4.65,6.48,6.48,0,0,1,3.48,5.22H83.92a4,4,0,0,0-2.1-2.94,3.9,3.9,0,0,0-3.61,0,4,4,0,0,0-2.11,2.94H73.53A6.49,6.49,0,0,1,77,60.1a.71.71,0,0,0,.39-.65v-5.1L79,52.76a1.47,1.47,0,0,0,.43-1.06A1.5,1.5,0,0,0,79,50.65ZM77.58,65.32a2.5,2.5,0,0,1,1.29-1.65,2.48,2.48,0,0,1,2.29,0,2.45,2.45,0,0,1,1.28,1.65Zm6.56,11.53H75.89a2.46,2.46,0,0,1-2.31-2H86.45A2.47,2.47,0,0,1,84.14,76.85Zm5.79-3.42H70.1a3.61,3.61,0,0,0,.25-1.29,3.56,3.56,0,0,0-.26-1.31H89.94a3.56,3.56,0,0,0-.26,1.31A3.4,3.4,0,0,0,89.93,73.43ZM70.09,69.37a3.45,3.45,0,0,0,.26-1.29,3.64,3.64,0,0,0-.25-1.32H89.93a3.47,3.47,0,0,0,0,2.61Zm20.65-4.05H88a7.94,7.94,0,0,0-3.9-6.3V42a.8.8,0,0,0-.21-.52L80.66,38.3a.74.74,0,0,0-1,0l-3,3a.7.7,0,0,0-.21.52.73.73,0,0,0,.21.51l1.43,1.47-1.49,1.5a.7.7,0,0,0,0,1l.89.91.54.58-1.43,1.44a.73.73,0,0,0-.22.6.81.81,0,0,0,.22.43l.89.88.54.59-1.82,1.8a.8.8,0,0,0-.21.52v5a7.88,7.88,0,0,0-3.89,6.3H69.24c-.67-2-1.58-4.09-2.46-6.06-1.69-3.79-3.43-7.71-3.43-11.28,0-8.84,7.47-16,16.66-16s16.67,7.21,16.67,16c0,3.53-1.63,7.17-3.36,11A60.27,60.27,0,0,0,90.74,65.32Z"/><path class="cls-5" d="M57.82,51.38a.81.81,0,0,0,.23-.6.84.84,0,0,0-.86-.8.82.82,0,0,0-.79.84.81.81,0,0,0,.85.8A.73.73,0,0,0,57.82,51.38Z"/><path class="cls-5" d="M59.8,41.41A1.2,1.2,0,0,0,60,41.2a.83.83,0,1,0-1.52-.68.83.83,0,0,0,.42,1.09A.81.81,0,0,0,59.8,41.41Z"/><path class="cls-5" d="M94.16,67a.81.81,0,0,0-.1,1.17.8.8,0,0,0,1.15.1.16.16,0,0,0,.09,0,.86.86,0,0,0,0-1.12A.83.83,0,0,0,94.16,67Z"/><path class="cls-5" d="M66.87,68.94l.06-.06a.83.83,0,1,0-1.16.16A.81.81,0,0,0,66.87,68.94Z"/><path class="cls-5" d="M60.11,61.35a.46.46,0,0,0,.23-.16A.83.83,0,1,0,59,61,.81.81,0,0,0,60.11,61.35Z"/><path class="cls-5" d="M99.89,39a.83.83,0,0,0-.37,1.09.85.85,0,0,0,1.13.37.92.92,0,0,0,.21-.17.81.81,0,0,0,.15-.94A.82.82,0,0,0,99.89,39Z"/><path class="cls-5" d="M83.66,27.67a.83.83,0,0,0,.64,1,.86.86,0,0,0,.77-.24,1,1,0,0,0,.21-.4.83.83,0,1,0-1.62-.32Z"/><path class="cls-5" d="M102,49.57h0v0a.82.82,0,0,0,.85.81.76.76,0,0,0,.57-.25.79.79,0,0,0,.23-.6s0,0,0,0,0,0,0,0a.83.83,0,1,0-1.65.06Z"/><path class="cls-5" d="M93.05,31.46a.85.85,0,0,0,.17,1.16.84.84,0,0,0,1.1-.08l.06-.07a.83.83,0,0,0-.17-1.17A.86.86,0,0,0,93.05,31.46Z"/><path class="cls-5" d="M65.84,33.39l.07-.07a.81.81,0,0,0,0-1.1.82.82,0,0,0-1.25,1.07A.81.81,0,0,0,65.84,33.39Z"/><path class="cls-5" d="M74.53,28.89a.63.63,0,0,0,.38-.22.82.82,0,0,0,.23-.77.84.84,0,0,0-1-.6.83.83,0,0,0-.6,1A.81.81,0,0,0,74.53,28.89Z"/><path class="cls-5" d="M100,59.21a.84.84,0,0,0,1.37.91,1.82,1.82,0,0,0,.15-.23h0a.82.82,0,0,0-.4-1.1A.84.84,0,0,0,100,59.21Z"/></svg>