<svg id="圖層_1" data-name="圖層 1" xmlns="http://www.w3.org/2000/svg" viewBox="0 0 950 128"><defs><style>.cls-1{fill:none;stroke:#1c1c1c;stroke-miterlimit:10;}.cls-2{fill:#1c1c1c;}.cls-3{font-size:14px;font-family:LucidaGrande-Bold, Lucida Grande;font-weight:700;}.cls-4{font-size:9px;fill:#686868;font-family:LucidaGrande, Lucida Grande;}.cls-5{fill:#1a171b;}</style></defs><title>iot-2</title><line class="cls-1" x1="10.5" y1="19.83" x2="939.5" y2="19.83"/><circle class="cls-2" cx="92" cy="20" r="5"/><circle class="cls-2" cx="251" cy="20" r="5"/><circle class="cls-2" cx="410" cy="20" r="5"/><circle class="cls-2" cx="569" cy="20" r="5"/><circle class="cls-2" cx="887" cy="20" r="5"/><circle class="cls-2" cx="725" cy="20" r="5"/><text class="cls-3" transform="translate(384.51 97.76)">Design</text><text class="cls-4" transform="translate(352.75 113.93)">structure and viual design</text><path class="cls-5" d="M421.44,57.75V48.9a3.76,3.76,0,0,0-7.52,0v9.29a2,2,0,1,1-4,0V54.37a2.47,2.47,0,1,0-4.93,0V64.44a3.59,3.59,0,0,1-7.17,0V62.68a1.58,1.58,0,0,0,.72-.72,6.26,6.26,0,0,0,.62-2,72.42,72.42,0,0,0,.39-7.86c0-.89,0-1.61,0-2h0c.05-1.07.08-1.74.09-1.85A3.07,3.07,0,0,0,401,46.32a5,5,0,0,0-1.08-3.85,14.58,14.58,0,0,0-2.26-2.57.47.47,0,0,0-.64,0,11.92,11.92,0,0,0-3.26,4.59A3.15,3.15,0,0,0,395,48.2h0s0,.71.08,1.83v0c0,.4,0,1.12.05,2a70,70,0,0,0,.39,7.86,6.26,6.26,0,0,0,.62,2,1.58,1.58,0,0,0,.72.72v1.76a4.56,4.56,0,0,0,9.11,0V54.37a1.5,1.5,0,1,1,3,0v3.82a3,3,0,1,0,5.91,0V48.9a2.79,2.79,0,0,1,5.58,0v8.85a4.66,4.66,0,0,0-4.17,4.63v4.74a4.66,4.66,0,1,0,9.31,0V62.38A4.66,4.66,0,0,0,421.44,57.75Zm-23.06-8.54a2.3,2.3,0,0,0-.26,0H398l-.27,0h-1.08l-.23.05h-.12a2,2,0,0,0-.26.06h0c0-.46,0-.81,0-1a4.87,4.87,0,0,1,2.73,0c0,.17,0,.52,0,1h-.06A2.1,2.1,0,0,0,398.38,49.21Zm-3.67-4.45a10.6,10.6,0,0,1,2.64-3.84,13.51,13.51,0,0,1,1.78,2.1,4.2,4.2,0,0,1,.95,3.08,2.19,2.19,0,0,1-1,1.33,4.51,4.51,0,0,0-1.77-.3,4.57,4.57,0,0,0-1.77.3A2.2,2.2,0,0,1,394.71,44.76Zm1.4,7.29c0-.74,0-1.36,0-1.77a3,3,0,0,1,.75-.16H397c.25,0,.5,0,.76,0a1.9,1.9,0,0,0,.25,0,1.94,1.94,0,0,1,.67.15c0,.41,0,1,0,1.77a74.88,74.88,0,0,1-.37,7.71,5.63,5.63,0,0,1-.51,1.73c-.09.16-.22.34-.37.34s-.27-.18-.36-.34a5.36,5.36,0,0,1-.51-1.73A74.88,74.88,0,0,1,396.11,52.05ZM421,58.7a3.68,3.68,0,0,1,3.68,3.62,5.4,5.4,0,0,1-7.36,0A3.67,3.67,0,0,1,421,58.7Zm0,12.1a3.68,3.68,0,0,1-3.69-3.68V63.58a6.34,6.34,0,0,0,7.37,0v3.54A3.68,3.68,0,0,1,421,70.8Z"/><path class="cls-5" d="M421,62.94a.49.49,0,0,0,.48-.49V60a.49.49,0,0,0-.48-.49.5.5,0,0,0-.49.49v2.43A.5.5,0,0,0,421,62.94Z"/><path class="cls-5" d="M396.43,46.48h0a.49.49,0,0,0,.46-.52,5.75,5.75,0,0,1,.59-2.68.49.49,0,0,0-.21-.65.48.48,0,0,0-.66.22A6.84,6.84,0,0,0,396,46,.49.49,0,0,0,396.43,46.48Z"/><text class="cls-4" transform="translate(848.47 113.93)">engineering time</text><text class="cls-3" transform="translate(852.15 97.76)">Develope</text><path class="cls-5" d="M899.11,39.78H872a2.42,2.42,0,0,0-2.42,2.42V63.6A2.42,2.42,0,0,0,872,66h10V68.6h-.68a2.69,2.69,0,0,0-2.69,2.7.48.48,0,0,0,.48.47H892a.49.49,0,0,0,.49-.47,2.69,2.69,0,0,0-2.69-2.7h-.69V66h10a2.43,2.43,0,0,0,2.43-2.43V42.2A2.42,2.42,0,0,0,899.11,39.78Zm-28.6,2.42A1.46,1.46,0,0,1,872,40.74h27.15a1.46,1.46,0,0,1,1.46,1.46V61.42H870.51Zm20.94,28.61H879.63a1.72,1.72,0,0,1,1.65-1.23h8.52A1.72,1.72,0,0,1,891.45,70.81Zm-3.3-2.21h-5.22V66h5.22Zm12.42-5a1.46,1.46,0,0,1-1.46,1.46H872a1.46,1.46,0,0,1-1.45-1.46V62.39h30.06Z"/><path class="cls-5" d="M886.36,48l-2.1-.33a.33.33,0,0,0,0-.12l1.25-1.71a.5.5,0,0,0,0-.57,8,8,0,0,0-1.71-1.72.5.5,0,0,0-.57,0l-1.71,1.23-.12,0L881,42.7a.51.51,0,0,0-.4-.4,7.56,7.56,0,0,0-2.42,0,.51.51,0,0,0-.4.4l-.33,2.1-.12,0-1.72-1.23a.48.48,0,0,0-.56,0,7.75,7.75,0,0,0-1.71,1.72.5.5,0,0,0,0,.57l1.25,1.71a.22.22,0,0,0-.05.12l-2.1.33a.48.48,0,0,0-.39.4,6.12,6.12,0,0,0-.11,1.21,6.19,6.19,0,0,0,.11,1.21.47.47,0,0,0,.39.39l2.1.34a.38.38,0,0,0,.05.12l-1.25,1.71a.48.48,0,0,0,0,.56,7.12,7.12,0,0,0,1.71,1.71.45.45,0,0,0,.56,0l1.72-1.23.12,0,.33,2.09a.51.51,0,0,0,.4.41,8,8,0,0,0,1.21.09,8.11,8.11,0,0,0,1.21-.09.51.51,0,0,0,.4-.41l.33-2.09.12-.06,1.71,1.25a.47.47,0,0,0,.57,0A7.5,7.5,0,0,0,885.46,54a.48.48,0,0,0,0-.56l-1.25-1.71,0-.12,2.09-.34a.47.47,0,0,0,.4-.39,7.31,7.31,0,0,0,.1-1.21,7.14,7.14,0,0,0-.1-1.21A.49.49,0,0,0,886.36,48Zm-.51,2.32-2,.31a.49.49,0,0,0-.38.33,4.16,4.16,0,0,1-.23.54.49.49,0,0,0,0,.51l1.2,1.64a6.37,6.37,0,0,1-1,1l-1.65-1.21a.5.5,0,0,0-.5,0,4.2,4.2,0,0,1-.55.22.54.54,0,0,0-.33.39l-.31,2a5.62,5.62,0,0,1-1.42,0l-.32-2a.52.52,0,0,0-.33-.39,3.6,3.6,0,0,1-.54-.22.5.5,0,0,0-.5,0l-1.66,1.21a6.31,6.31,0,0,1-1-1l1.19-1.64a.49.49,0,0,0,.05-.51,2.83,2.83,0,0,1-.23-.54.49.49,0,0,0-.38-.33l-2-.31a5.62,5.62,0,0,1,0-.71,5.39,5.39,0,0,1,0-.7l2-.32a.51.51,0,0,0,.38-.33,3.22,3.22,0,0,1,.23-.55.48.48,0,0,0-.05-.5l-1.19-1.66a6.62,6.62,0,0,1,1-1L877,45.79a.44.44,0,0,0,.49.05,4.67,4.67,0,0,1,.55-.23.48.48,0,0,0,.33-.39l.32-2a5.62,5.62,0,0,1,1.42,0l.31,2a.49.49,0,0,0,.33.39,3.22,3.22,0,0,1,.55.23.46.46,0,0,0,.5-.05l1.65-1.19a6.69,6.69,0,0,1,1,1l-1.2,1.66a.47.47,0,0,0,0,.5,4.28,4.28,0,0,1,.23.55.51.51,0,0,0,.38.33l2,.32c0,.23,0,.47,0,.7S885.87,50.11,885.85,50.36Z"/><path class="cls-5" d="M879.41,47.35a2.3,2.3,0,1,0,2.3,2.3A2.3,2.3,0,0,0,879.41,47.35Zm0,3.64a1.34,1.34,0,1,1,1.33-1.34A1.34,1.34,0,0,1,879.41,51Z"/><path class="cls-5" d="M897.85,52.74l-1.31-.2.78-1.06a.51.51,0,0,0,0-.58,5.88,5.88,0,0,0-1.22-1.22.5.5,0,0,0-.57,0l-1.07.78-.21-1.31a.51.51,0,0,0-.4-.41,6.27,6.27,0,0,0-1.73,0,.53.53,0,0,0-.4.41l-.21,1.31-1.07-.78a.5.5,0,0,0-.57,0,5.88,5.88,0,0,0-1.22,1.22.51.51,0,0,0,0,.58l.78,1.06-1.3.2a.51.51,0,0,0-.41.41,5,5,0,0,0-.07.86,5.1,5.1,0,0,0,.07.87.5.5,0,0,0,.41.4l1.3.2-.78,1.07a.5.5,0,0,0,0,.57,5.23,5.23,0,0,0,1.22,1.22.47.47,0,0,0,.57,0l1.07-.77.21,1.31a.5.5,0,0,0,.4.4,6.23,6.23,0,0,0,.86.07,6.13,6.13,0,0,0,.87-.07.49.49,0,0,0,.4-.4l.21-1.31,1.07.77a.47.47,0,0,0,.57,0,5.23,5.23,0,0,0,1.22-1.22.5.5,0,0,0,0-.57l-.78-1.07,1.31-.2a.5.5,0,0,0,.4-.4,6.38,6.38,0,0,0,.07-.87,6.23,6.23,0,0,0-.07-.86A.51.51,0,0,0,897.85,52.74Zm-.51,1.65-1.3.2a.47.47,0,0,0-.38.31,3,3,0,0,1-.15.38.46.46,0,0,0,0,.49l.77,1.06c-.16.17-.33.35-.52.52l-1-.78a.54.54,0,0,0-.51,0,1.46,1.46,0,0,1-.36.16.48.48,0,0,0-.32.37l-.21,1.3a3,3,0,0,1-.73,0l-.2-1.3a.49.49,0,0,0-.33-.37,1.65,1.65,0,0,1-.36-.16.52.52,0,0,0-.5,0l-1.06.78c-.19-.17-.36-.35-.52-.52l.77-1.06a.49.49,0,0,0,0-.51,1.94,1.94,0,0,1-.15-.36.47.47,0,0,0-.39-.31l-1.28-.2c0-.13,0-.26,0-.38s0-.24,0-.37l1.28-.2a.48.48,0,0,0,.39-.32,2.28,2.28,0,0,1,.15-.36.47.47,0,0,0,0-.5l-.77-1.07a6.38,6.38,0,0,1,.52-.52l1.06.78a.48.48,0,0,0,.49,0l.37-.16a.48.48,0,0,0,.33-.37l.2-1.29a4.45,4.45,0,0,1,.73,0l.21,1.29a.47.47,0,0,0,.32.37l.36.16a.52.52,0,0,0,.51,0l1-.78a6.38,6.38,0,0,1,.52.52l-.77,1.07a.47.47,0,0,0,0,.5,1.94,1.94,0,0,1,.15.36.48.48,0,0,0,.38.32l1.3.2c0,.13,0,.26,0,.37S897.34,54.26,897.34,54.39Z"/><path class="cls-5" d="M893,52.26A1.76,1.76,0,1,0,894.74,54,1.76,1.76,0,0,0,893,52.26Zm0,2.53a.78.78,0,0,1,0-1.56.78.78,0,1,1,0,1.56Z"/><text class="cls-3" transform="translate(65.31 97.76)">Explore</text><text class="cls-4" transform="translate(27.39 113.93)">find out what machine can do</text><path class="cls-5" d="M108.3,42.82h-1.13V40.34a.56.56,0,0,0-.56-.56c-9.41,0-13.14,2.14-14.29,3-1.15-.88-4.87-3-14.29-3a.56.56,0,0,0-.56.56v2.48H76.34a2.52,2.52,0,0,0-2.51,2.51V69.26a2.53,2.53,0,0,0,2.51,2.52h24.51a.56.56,0,0,0,.57-.57.58.58,0,0,0-.57-.57h-6.7a17.67,17.67,0,0,1,4.51-1.43.54.54,0,0,0,.44-.64.53.53,0,0,0-.65-.45,16.2,16.2,0,0,0-5.57,2V64.67a8.7,8.7,0,0,0,4.3-1.43l1.16,1.17-.23.25a.54.54,0,0,0-.17.4.57.57,0,0,0,.17.39l5.34,5.34a2.34,2.34,0,0,0,3.34,0l.51-.51a2.35,2.35,0,0,0,0-3.33L102,61.6a.57.57,0,0,0-.8,0l-.24.25-1.17-1.18a8.8,8.8,0,0,0-6.86-13.61V43.78c.65-.55,3.81-2.79,13.17-2.89V63.48a.56.56,0,0,0,1.12,0V43.93h1.13a1.4,1.4,0,0,1,1.39,1.4V69.26a1.43,1.43,0,0,1-.3.87.55.55,0,0,0,.09.78.55.55,0,0,0,.78-.08,2.56,2.56,0,0,0,.55-1.57V45.33A2.52,2.52,0,0,0,108.3,42.82ZM78.6,40.89c9.26.1,12.5,2.34,13.15,2.91v3.26a8.82,8.82,0,0,0-5.64,15,8.94,8.94,0,0,0,5.64,2.57v5.41c-1.57-1-5.32-2.58-13.15-2.65ZM76.34,70.64A1.38,1.38,0,0,1,75,69.26V45.33a1.4,1.4,0,0,1,1.38-1.4h1.13V68a.56.56,0,0,0,.56.57c7,0,10.69,1.21,12.45,2.09Zm30.17-2.89a1.24,1.24,0,0,1,0,1.75L106,70a1.23,1.23,0,0,1-1.74,0l-5-5,1.13-1.13.89-.9h0l.24-.24Zm-8-7.35a.56.56,0,0,0,.06.73l1.5,1.5-.49.5-.49.5-1.51-1.5a.5.5,0,0,0-.39-.17.67.67,0,0,0-.33.1,7.7,7.7,0,0,1-10-11.66,7.74,7.74,0,0,1,10.9,0A7.66,7.66,0,0,1,98.56,60.4Z"/><path class="cls-5" d="M81,45.46a32.74,32.74,0,0,1,6.58.95.34.34,0,0,0,.14,0,.58.58,0,0,0,.55-.42.56.56,0,0,0-.4-.68,34.13,34.13,0,0,0-6.81-1,.59.59,0,0,0-.59.54A.57.57,0,0,0,81,45.46Z"/><path class="cls-5" d="M81,49.39c1,0,1.87.11,2.73.23h.07a.59.59,0,0,0,.57-.5.56.56,0,0,0-.5-.61c-.89-.12-1.83-.2-2.81-.25a.55.55,0,0,0-.59.53A.58.58,0,0,0,81,49.39Z"/><path class="cls-5" d="M81,53.3c.34,0,.66.05,1,.06h0a.56.56,0,0,0,.57-.51.57.57,0,0,0-.52-.6l-1-.07a.57.57,0,0,0-.59.54A.56.56,0,0,0,81,53.3Z"/><path class="cls-5" d="M81,57.22l.68.05h0a.57.57,0,0,0,.56-.53.54.54,0,0,0-.52-.58l-.71,0a.56.56,0,1,0,0,1.11Z"/><path class="cls-5" d="M83,60.17,81.07,60a.56.56,0,0,0-.58.54.57.57,0,0,0,.53.58c.63,0,1.25.08,1.83.15h.06A.57.57,0,0,0,83,60.17Z"/><path class="cls-5" d="M88.48,52a5.46,5.46,0,0,0,0,7.75,5.46,5.46,0,0,0,7.76,0A5.48,5.48,0,0,0,88.48,52Zm7,.78a4.37,4.37,0,1,1-3.09-1.28A4.39,4.39,0,0,1,95.45,52.76Z"/><path class="cls-5" d="M103.56,44.33a34.13,34.13,0,0,0-6.8,1,.55.55,0,0,0-.4.68.56.56,0,0,0,.54.42.34.34,0,0,0,.14,0,32.85,32.85,0,0,1,6.58-.95.56.56,0,0,0,.53-.59A.57.57,0,0,0,103.56,44.33Z"/><path class="cls-5" d="M103.56,48.26c-1,.05-1.92.13-2.81.25a.55.55,0,0,0-.49.61.56.56,0,0,0,.56.5h.06c.87-.12,1.79-.18,2.74-.23a.56.56,0,0,0,.53-.6A.55.55,0,0,0,103.56,48.26Z"/><path class="cls-5" d="M103.56,52.18l-1,.07a.56.56,0,0,0,0,1.11h0c.31,0,.65,0,1-.06a.55.55,0,0,0,.52-.58A.56.56,0,0,0,103.56,52.18Z"/><path class="cls-5" d="M103.56,56.11l-.7,0a.53.53,0,0,0-.51.58.55.55,0,0,0,.55.53h0l.68-.05a.54.54,0,0,0,.53-.58A.55.55,0,0,0,103.56,56.11Z"/><text class="cls-3" transform="translate(219.6 97.76)">Planning</text><text class="cls-4" transform="translate(186.56 113.93)">what process suit this project</text><path class="cls-5" d="M266,51.41a1.85,1.85,0,0,0,0-.23,5.31,5.31,0,0,0-8.49-5,5.89,5.89,0,0,0-4.74-4.31l-.34,0,.44-1.25a.56.56,0,0,0-.35-.72.57.57,0,0,0-.73.33l-.57,1.64a5.89,5.89,0,0,0-4.92,3.89A5.21,5.21,0,0,0,243.26,44a5.31,5.31,0,0,0-6.08,4.4,5.91,5.91,0,0,0-.05,1.33,7.88,7.88,0,0,0-3.44,11.95,7.77,7.77,0,0,0,5.14,3.17l.68.09a6.34,6.34,0,0,1,.52,4.36,2.11,2.11,0,0,0,2.09,2.47,2.06,2.06,0,0,0,1.32-.46c3.75-3.06,4.54-6.09,4.7-7.45a2.56,2.56,0,0,0,.27.05,5.11,5.11,0,0,0,1.83,0,.56.56,0,0,0,.45-.66.55.55,0,0,0-.66-.45,4.64,4.64,0,0,1-1.44,0,4.51,4.51,0,0,1-1.34-.45l-.07-.05-.47-.32a1.27,1.27,0,0,1-.13-.11c-.05,0-.09-.1-.15-.13a7.66,7.66,0,0,0,1.36-3,.56.56,0,0,0-.43-.68.58.58,0,0,0-.68.44,6.74,6.74,0,0,1-1.43,2.91h0s0,0,0,0c-.18.2-.38.4-.57.59a1.57,1.57,0,0,1-.21.17l-.44.35-.25.15a3.39,3.39,0,0,1-.43.27,1.28,1.28,0,0,1-.29.14,2.28,2.28,0,0,1-.45.2l-.3.12-.46.14-.33.08-.47.07-.34,0a3.85,3.85,0,0,1-.48,0h-.35a8,8,0,0,1-.83-.07,6.77,6.77,0,0,1-1.63-12.88,5.29,5.29,0,0,0,2.13,2.81.5.5,0,0,0,.31.1.58.58,0,0,0,.31-1.05A4.24,4.24,0,0,1,238.32,50h0v0a3.71,3.71,0,0,1,0-1.37A4.15,4.15,0,0,1,246,47.17a5.79,5.79,0,0,0,.56,3,.57.57,0,0,0,.51.32.6.6,0,0,0,.26,0,.57.57,0,0,0,.26-.76,4.66,4.66,0,0,1-.45-2.6h0c0-.09,0-.15,0-.22A4.71,4.71,0,0,1,250.82,43l-1.19,3.39a.56.56,0,0,0,.54.76h2.61l-1.94,5.5a.6.6,0,0,0,.36.74h.18a.55.55,0,0,0,.54-.37l2.2-6.27a.61.61,0,0,0-.07-.52.64.64,0,0,0-.47-.24H251l1.1-3.12a3.29,3.29,0,0,1,.54.05,4.75,4.75,0,0,1,4,4.21,5.19,5.19,0,0,0-1,2.33.59.59,0,0,0,.47.66h.09a.58.58,0,0,0,.57-.49,4.11,4.11,0,0,1,.9-2h0l.05,0A4.16,4.16,0,0,1,264.91,51c0,.09,0,.15,0,.22a5.18,5.18,0,0,0-2.43.37.57.57,0,0,0,.22,1.1.38.38,0,0,0,.21,0,4.18,4.18,0,0,1,2.24-.25h.08a4.19,4.19,0,0,1,3.37,4.75,4.13,4.13,0,0,1-2.71,3.26.57.57,0,0,0-.34.73.56.56,0,0,0,.73.35A5.31,5.31,0,0,0,266,51.41ZM247,63.49c-.07,1-.6,3.93-4.29,6.95a1,1,0,0,1-1.35-.14,1,1,0,0,1-.23-.82,8.35,8.35,0,0,0-.36-4.55h0l.38-.05.34,0,.39-.08c.1,0,.21,0,.32-.09a2.29,2.29,0,0,0,.37-.12l.33-.11a1.51,1.51,0,0,1,.35-.14c.11-.07.21-.1.32-.17a2,2,0,0,0,.32-.17l.33-.2a1.81,1.81,0,0,0,.29-.19c.13-.08.23-.17.35-.25s.17-.12.24-.19.33-.28.49-.45,0,0,.06-.05a.73.73,0,0,0,.09.08l.52.41.31.16.36.21Z"/><path class="cls-5" d="M258,54a6.54,6.54,0,0,0-3,12.36.48.48,0,0,0,.26.07.58.58,0,0,0,.51-.32.57.57,0,0,0-.26-.76,5.41,5.41,0,1,1,5,0,.58.58,0,0,0,.26,1.08.48.48,0,0,0,.26-.07A6.55,6.55,0,0,0,258,54Z"/><path class="cls-5" d="M261,60.22a3.07,3.07,0,0,0-6.13,0,.57.57,0,0,0,.57.57.56.56,0,0,0,.57-.57,1.93,1.93,0,1,1,3.85,0c0,.77-.38,1.06-1,1.48a3,3,0,0,0-1.52,2.62v.39a.56.56,0,0,0,.57.56.56.56,0,0,0,.57-.56v-.39a1.86,1.86,0,0,1,1.06-1.69A2.75,2.75,0,0,0,261,60.22Z"/><path class="cls-5" d="M258,67.2a.56.56,0,0,0-.57.55v.12a.57.57,0,0,0,.57.58.58.58,0,0,0,.57-.58v-.12A.57.57,0,0,0,258,67.2Z"/><text class="cls-4" transform="translate(679.49 113.93)">wrote to maintenance</text><text class="cls-3" transform="translate(686.27 97.76)">Documents</text><path class="cls-5" d="M731,41.58H712.56a.49.49,0,0,0-.48.49v4.09h-.69a.48.48,0,0,0-.49.48.48.48,0,0,0,.49.48h.69v3.61h-.69a.47.47,0,0,0-.49.48.48.48,0,0,0,.49.49h.69v3.59h-.69a.49.49,0,1,0,0,1h.69v3.61h-.69a.48.48,0,1,0,0,1h.69v3.6h-.69a.49.49,0,0,0,0,1h.69v4.08a.49.49,0,0,0,.48.48H731a.49.49,0,0,0,.49-.48V42.07A.49.49,0,0,0,731,41.58ZM730.52,69H713.05v-3.6h.69a.49.49,0,1,0,0-1h-.69v-3.6h.69a.48.48,0,1,0,0-1h-.69V56.26h.69a.49.49,0,1,0,0-1h-.69V51.7h.69a.48.48,0,0,0,.49-.49.47.47,0,0,0-.49-.48h-.69V47.12h.69a.48.48,0,0,0,.49-.48.48.48,0,0,0-.49-.48h-.69v-3.6h17.47Z"/><path class="cls-5" d="M733.37,43.94a.5.5,0,0,0-.49.49V67.12a.49.49,0,0,0,.49.49.48.48,0,0,0,.48-.49V44.43A.49.49,0,0,0,733.37,43.94Z"/><path class="cls-5" d="M740.39,44.65l-.49-.28v-2a.51.51,0,0,0-.26-.45l-.33-.16a1.93,1.93,0,0,0-1.69,0l-.33.16a.51.51,0,0,0-.26.45v2l-.58.32a.48.48,0,0,0-.26.43V64.43a.49.49,0,0,0,0,.14v0L738,69.65a.49.49,0,0,0,.46.32.51.51,0,0,0,.46-.32l1.79-5.05v0a.52.52,0,0,0,0-.14V45.68a1.67,1.67,0,0,1,1.18,1.58v8.22a.49.49,0,0,0,.49.49.5.5,0,0,0,.49-.49V47.26A2.63,2.63,0,0,0,740.39,44.65Zm-1,18.76h0a1.11,1.11,0,0,0-.43-.17,1.85,1.85,0,0,0-1.36.17l-.41.21v-4l.87-.46a.85.85,0,0,1,.87,0l.87.46v4Zm0-5.08a1.89,1.89,0,0,0-1.79,0l-.41.23V45.41l.87-.48a1,1,0,0,1,.87,0l.87.48V58.56Zm-1.31-15.69a1,1,0,0,1,.83,0l.06,0v1.25a1.87,1.87,0,0,0-.94,0V42.67ZM738.47,68l-1.2-3.37.76-.4a1,1,0,0,1,.22-.09.86.86,0,0,1,.5,0,.47.47,0,0,1,.15.06l.76.4Z"/><path class="cls-5" d="M720.11,46.57H725a.48.48,0,0,0,.49-.49.48.48,0,0,0-.49-.49h-4.84a.5.5,0,0,0-.49.49A.49.49,0,0,0,720.11,46.57Z"/><path class="cls-5" d="M717.44,49.8h10.18a.49.49,0,0,0,0-1H717.44a.49.49,0,0,0,0,1Z"/><path class="cls-5" d="M717.44,53h5.33a.49.49,0,1,0,0-1h-5.33a.49.49,0,0,0,0,1Z"/><path class="cls-5" d="M727.62,52.06H725.2a.49.49,0,0,0,0,1h2.42a.49.49,0,0,0,0-1Z"/><path class="cls-5" d="M717.44,56.26h10.18a.49.49,0,0,0,0-1H717.44a.49.49,0,0,0,0,1Z"/><path class="cls-5" d="M727.62,58.53h-4.36a.47.47,0,0,0-.48.48.48.48,0,0,0,.48.48h4.36a.47.47,0,0,0,.48-.48A.47.47,0,0,0,727.62,58.53Z"/><path class="cls-5" d="M717.44,59.49h3.4a.48.48,0,0,0,.48-.48.47.47,0,0,0-.48-.48h-3.4A.47.47,0,0,0,717,59,.48.48,0,0,0,717.44,59.49Z"/><path class="cls-5" d="M717.44,62.72h10.18a.49.49,0,0,0,0-1H717.44a.49.49,0,0,0,0,1Z"/><path class="cls-5" d="M717.44,66h5.82a.49.49,0,0,0,0-1h-5.82a.49.49,0,0,0,0,1Z"/><text class="cls-4" transform="translate(509.68 113.93)">balanced what THEY needs</text><text class="cls-3" transform="translate(540.23 97.76)">Discuss</text><path class="cls-5" d="M556.24,60.13h2.9a.49.49,0,0,0,.49-.49.48.48,0,0,0-.49-.48h-2.9a.47.47,0,0,0-.48.48A.49.49,0,0,0,556.24,60.13Z"/><path class="cls-5" d="M562.45,63h-6.21a.49.49,0,0,0-.48.49.47.47,0,0,0,.48.48h6.21a.48.48,0,0,0,.48-.48A.5.5,0,0,0,562.45,63Z"/><path class="cls-5" d="M583.55,48.51h-21.1A.48.48,0,0,0,562,49v6.14h-9a.49.49,0,0,0-.49.49V67.69a.49.49,0,0,0,.49.49h12.56l4.62,3.49a.43.43,0,0,0,.3.11.5.5,0,0,0,.48-.49V68.18h3.14a.49.49,0,0,0,.49-.49V61.53h9a.48.48,0,0,0,.49-.48V49A.48.48,0,0,0,583.55,48.51Zm-10,18.69h-3.14a.49.49,0,0,0-.49.49v2.62l-4-3a.51.51,0,0,0-.29-.1H553.44V56.12H562v4.93a.48.48,0,0,0,.49.48h3.14v3.12a.45.45,0,0,0,.27.43.32.32,0,0,0,.21.06.57.57,0,0,0,.3-.1L571,61.53h2.59Zm9.49-6.63H570.83a.54.54,0,0,0-.3.1l-4,3V61.05a.47.47,0,0,0-.48-.48h-3.14V49.47h20.14Z"/><path class="cls-5" d="M553.58,45.76h25.06a0,0,0,0,0,0,0h.06l5-2.52a.48.48,0,0,0,.27-.43.5.5,0,0,0-.27-.43l-5-2.51h0a.28.28,0,0,0-.15,0h-25a.52.52,0,0,0-.44.27,5.9,5.9,0,0,0,0,5.45A.51.51,0,0,0,553.58,45.76Zm3-1-.08-.18-.08-.21a2.44,2.44,0,0,1-.1-.33.9.9,0,0,1-.06-.22c0-.11,0-.24-.07-.36a1.25,1.25,0,0,1,0-.19v-.05h21.26a.76.76,0,0,0,0,.14.86.86,0,0,0,0,.17,1.71,1.71,0,0,0,.09.46,1.13,1.13,0,0,0,0,.18c0,.2.11.38.17.59Zm21.81-2.55a1,1,0,0,1,0-.17c0-.12,0-.25.06-.36s0-.13,0-.19.07-.24.11-.36l.06-.17s0,0,0-.07l1.45.71a3.5,3.5,0,0,0,0,2.26l-1.45.72s0,0,0-.07l-.06-.17c0-.12-.08-.25-.11-.36s0-.13,0-.19,0-.24-.06-.36a.86.86,0,0,1,0-.17,4.53,4.53,0,0,1,0-.52h0A4.53,4.53,0,0,1,578.42,42.25Zm2.67,1.21a2.46,2.46,0,0,1,0-1.37l1.38.68Zm-3.48-2.13a1,1,0,0,0,0,.17,2,2,0,0,0-.09.48.86.86,0,0,0,0,.17.66.66,0,0,0,0,.14H556.19v0a1,1,0,0,1,0-.19c0-.12,0-.25.07-.36a.9.9,0,0,1,.06-.22,2.44,2.44,0,0,1,.1-.33l.08-.21.08-.18h21.17C577.72,40.94,577.66,41.14,577.61,41.33Zm-23.72-.58h1.66c-.07.19-.12.39-.18.58l0,.17a4,4,0,0,0-.09.48,1.11,1.11,0,0,1,0,.17,6.53,6.53,0,0,0,0,1.25,1.11,1.11,0,0,1,0,.17,4,4,0,0,0,.09.48l0,.16c.06.2.11.38.18.59h-1.66A4.78,4.78,0,0,1,553.89,40.75Z"/><path class="cls-5" d="M565.73,53.49h14.54a.49.49,0,1,0,0-1H565.73a.49.49,0,0,0,0,1Z"/><path class="cls-5" d="M565.73,57.37h11.15a.48.48,0,0,0,.48-.49.49.49,0,0,0-.48-.49H565.73a.48.48,0,0,0-.48.49A.48.48,0,0,0,565.73,57.37Z"/></svg>