<svg id="圖層_1" data-name="圖層 1" xmlns="http://www.w3.org/2000/svg" viewBox="0 0 148 148"><defs><style>.cls-1{fill:#209cff;}.cls-2{fill:#fff;}</style></defs><title>portfolio</title><rect class="cls-1" width="148" height="148" rx="12"/><path class="cls-2" d="M26.57,74.1A1.56,1.56,0,0,0,25,72.54,1.53,1.53,0,0,0,23.5,74.1,1.52,1.52,0,0,0,25,75.61,1.54,1.54,0,0,0,26.57,74.1Z"/><path class="cls-2" d="M26.59,86.53a1.55,1.55,0,0,0-1.05,1.92A1.58,1.58,0,0,0,27,89.55a.78.78,0,0,0,.43-.09,1.49,1.49,0,0,0,1.05-1.88A1.55,1.55,0,0,0,26.59,86.53Z"/><path class="cls-2" d="M41.83,38.24a1.34,1.34,0,0,0,1-.37,1.54,1.54,0,1,0-2-2.34,1.54,1.54,0,0,0,1,2.71Z"/><path class="cls-2" d="M31.91,48.65a1.39,1.39,0,0,0,.81.28,1.59,1.59,0,0,0,1.3-.74h0A1.58,1.58,0,0,0,33.56,46a1.54,1.54,0,0,0-1.65,2.61Z"/><path class="cls-2" d="M32,99.5a1.55,1.55,0,0,0-.48,2.12,1.62,1.62,0,0,0,1.3.73,1.34,1.34,0,0,0,.83-.28A1.53,1.53,0,0,0,32,99.5Z"/><path class="cls-2" d="M40.83,110.37a1.58,1.58,0,0,0,.16,2.21,1.65,1.65,0,0,0,1,.36,1.51,1.51,0,0,0,1.16-.55,1.54,1.54,0,0,0-.17-2.16A1.52,1.52,0,0,0,40.83,110.37Z"/><path class="cls-2" d="M93.56,30.35a1.52,1.52,0,0,0,2-.78,1.54,1.54,0,0,0-2.8-1.28A1.58,1.58,0,0,0,93.56,30.35Z"/><path class="cls-2" d="M80.6,26.54a1.93,1.93,0,0,1,.2.05,1.56,1.56,0,0,0,1.52-1.37A1.48,1.48,0,0,0,81,23.52a1.53,1.53,0,1,0-.43,3Z"/><path class="cls-2" d="M26.54,61.67c.14,0,.3,0,.43,0a1.53,1.53,0,0,0,1.46-1.15,1.5,1.5,0,0,0-1-1.88,1.55,1.55,0,0,0-.87,3Z"/><path class="cls-2" d="M106,38.05a1.63,1.63,0,0,0,1.15-.5,1.56,1.56,0,0,0-.18-2.2,1.53,1.53,0,0,0-2.16.14,1.59,1.59,0,0,0,.19,2.2A1.55,1.55,0,0,0,106,38.05Z"/><path class="cls-2" d="M53.52,30.58a1.45,1.45,0,0,0,1.39-2.15,1.5,1.5,0,0,0-2-.78,1.55,1.55,0,0,0-.75,2.06A1.42,1.42,0,0,0,53.52,30.58Z"/><path class="cls-2" d="M66.88,26.59h.23a1.52,1.52,0,0,0,1.29-1.74,1.57,1.57,0,0,0-1.73-1.33v0a1.54,1.54,0,0,0-1.31,1.75A1.49,1.49,0,0,0,66.88,26.59Z"/><path class="cls-2" d="M54.34,117.57a1.56,1.56,0,0,0-1.27,2.84,2.84,2.84,0,0,0,.64.15,1.57,1.57,0,0,0,.63-3Z"/><path class="cls-2" d="M116.05,99.41a1.54,1.54,0,0,0-2.14.46,1.6,1.6,0,0,0,.48,2.16,1.66,1.66,0,0,0,.82.23,1.45,1.45,0,0,0,1.29-.74A1.55,1.55,0,0,0,116.05,99.41Z"/><path class="cls-2" d="M121,61.4a1.1,1.1,0,0,0,.4,0,1.56,1.56,0,0,0,1-1.92h0a1.54,1.54,0,0,0-1.91-1.06,1.55,1.55,0,0,0-1,1.93A1.53,1.53,0,0,0,121,61.4Z"/><path class="cls-2" d="M121.43,86.44a1.55,1.55,0,0,0-1.91,1,1.52,1.52,0,0,0,1,1.88.75.75,0,0,0,.43.09,1.52,1.52,0,0,0,1.45-1.15A1.5,1.5,0,0,0,121.43,86.44Z"/><path class="cls-2" d="M115.09,48.65a1.87,1.87,0,0,0,.85-.23,1.59,1.59,0,0,0,.45-2.16,1.52,1.52,0,0,0-2.13-.45,1.54,1.54,0,0,0-.43,2.15A1.43,1.43,0,0,0,115.09,48.65Z"/><path class="cls-2" d="M123,72.22a1.56,1.56,0,0,0-1.53,1.56V74A1.56,1.56,0,0,0,123,75.52,1.54,1.54,0,0,0,124.5,74v-.18A1.54,1.54,0,0,0,123,72.22Z"/><path class="cls-2" d="M105.08,110.19a1.54,1.54,0,0,0-.16,2.16,1.49,1.49,0,0,0,1.16.5,1.39,1.39,0,0,0,1-.37,1.49,1.49,0,0,0,.16-2.15A1.52,1.52,0,0,0,105.08,110.19Z"/><path class="cls-2" d="M67.29,121.42a1.53,1.53,0,1,0-.43,3,.39.39,0,0,0,.22,0,1.55,1.55,0,0,0,.21-3.08Z"/><path class="cls-2" d="M80.8,121.38a1.62,1.62,0,0,0-1.32,1.79A1.55,1.55,0,0,0,81,124.45h.23a1.58,1.58,0,0,0,1.3-1.74A1.52,1.52,0,0,0,80.8,121.38Z"/><path class="cls-2" d="M93.75,117.57a1.48,1.48,0,0,0-.75,2,1.46,1.46,0,0,0,1.38.92,1.54,1.54,0,0,0,1.39-2.2A1.51,1.51,0,0,0,93.75,117.57Z"/><path class="cls-2" d="M102.61,77.77a25.74,25.74,0,0,0,3-11.42A17.66,17.66,0,0,0,74,55.34a17.65,17.65,0,0,0-31.6,11c0,19.86,29.55,38.29,30.81,39.07a1.28,1.28,0,0,0,.79.23,1.34,1.34,0,0,0,.81-.23,106.16,106.16,0,0,0,9.64-6.93,13.6,13.6,0,0,0,10,4.32,13.85,13.85,0,0,0,13.76-13.9A14.05,14.05,0,0,0,102.61,77.77ZM74,102.3c-4.68-3.12-28.53-19.53-28.53-35.95a14.58,14.58,0,0,1,27.21-7.47,1.62,1.62,0,0,0,2.64,0,14.59,14.59,0,0,1,27.23,7.47A22.21,22.21,0,0,1,100,76.21,13.25,13.25,0,0,0,94.41,75,13.89,13.89,0,0,0,82.55,96C78.74,99.09,75.44,101.34,74,102.3Zm20.42-2.57A10.82,10.82,0,1,1,105.1,88.91,10.8,10.8,0,0,1,94.41,99.73Z"/><path class="cls-2" d="M99.76,87.35H95.93V83.5a1.53,1.53,0,0,0-3.05,0v3.85H89.05a1.57,1.57,0,0,0-1.52,1.56,1.53,1.53,0,0,0,1.52,1.56h3.83v3.85a1.53,1.53,0,1,0,3.05,0V90.47h3.83a1.54,1.54,0,0,0,1.53-1.56A1.57,1.57,0,0,0,99.76,87.35Z"/></svg>