<svg width="300" height="300" viewBox="0 0 300 300" fill="none" xmlns="http://www.w3.org/2000/svg">
<rect width="300" height="300" rx="80" fill="#1886DD"/>
<path d="M73.786 194.638C73.5002 194.638 73.2383 194.566 72.9763 194.447C72.381 194.138 72 193.519 72 192.852V123.794C72 95.2416 95.2416 72 123.794 72C133.438 72 142.844 74.6671 151.012 79.7155C151.846 80.2394 152.107 81.3348 151.584 82.1682C151.06 83.0017 149.964 83.2636 149.131 82.7397C141.534 78.0485 132.771 75.572 123.794 75.572C97.1943 75.572 75.572 97.1943 75.572 123.794V189.304L103.529 168.539C104.029 168.158 104.695 168.086 105.291 168.324C111.173 170.777 117.412 172.015 123.817 172.015C131.747 172.015 139.582 170.063 146.535 166.348C147.392 165.871 148.488 166.205 148.94 167.086C149.417 167.967 149.083 169.039 148.202 169.491C140.749 173.468 132.319 175.587 123.817 175.587C117.293 175.587 110.911 174.373 104.886 171.991L74.8576 194.281C74.548 194.519 74.167 194.638 73.786 194.638Z" fill="white"/>
<path d="M149.988 189.685C149.536 189.685 149.083 189.494 148.75 189.185C148.393 188.851 148.202 188.399 148.202 187.899V180.064C148.202 172.801 145.344 165.895 140.344 161.109C129.747 150.964 123.96 136.748 124.437 122.103C125.294 95.4798 146.773 73.5003 173.373 72.0953C187.78 71.3333 201.424 76.3579 211.831 86.2165C222.261 96.099 228 109.458 228 123.817C228 137.843 222.451 150.964 212.402 160.799C207.092 165.967 204.187 172.634 204.187 179.54V185.922C204.187 186.875 203.425 187.661 202.472 187.708L150.083 189.732C150.036 189.685 150.012 189.685 149.988 189.685ZM176.206 75.572C175.325 75.572 174.42 75.5958 173.515 75.6435C148.774 76.9532 128.771 97.4087 127.961 122.198C127.532 135.843 132.914 149.083 142.773 158.513C148.464 163.966 151.75 171.825 151.75 180.04V186.041L200.591 184.184V179.516C200.591 171.634 203.901 164.062 209.902 158.204C219.261 149.059 224.404 136.843 224.404 123.794C224.404 110.434 219.046 97.9802 209.354 88.7883C200.305 80.2156 188.613 75.572 176.206 75.572Z" fill="white"/>
<path d="M188.542 227.976H163.824C157.846 227.976 152.965 223.095 152.965 217.117V216.308C152.965 215.355 153.727 214.569 154.679 214.522L197.543 212.879C198.043 212.855 198.495 213.045 198.853 213.379C199.21 213.712 199.4 214.188 199.4 214.665V217.141C199.4 223.118 194.542 227.976 188.542 227.976ZM156.584 218.022C157.037 221.618 160.109 224.404 163.824 224.404H188.542C192.566 224.404 195.828 221.142 195.828 217.117V216.498L156.584 218.022Z" fill="white"/>
<path d="M145.225 189.875C144.273 189.875 143.487 189.113 143.439 188.16C143.392 187.16 144.178 186.351 145.154 186.303L207.068 183.922C208.092 183.826 208.878 184.66 208.926 185.636C208.973 186.613 208.187 187.446 207.211 187.494L145.297 189.875C145.273 189.875 145.249 189.875 145.225 189.875Z" fill="white"/>
<path d="M145.225 199.4C144.273 199.4 143.487 198.638 143.439 197.686C143.392 196.685 144.178 195.876 145.154 195.828L207.068 193.447C208.092 193.399 208.878 194.185 208.926 195.161C208.973 196.138 208.187 196.971 207.211 197.019L145.297 199.4C145.273 199.4 145.249 199.4 145.225 199.4Z" fill="white"/>
<path d="M145.225 208.926C144.273 208.926 143.487 208.164 143.439 207.211C143.392 206.211 144.178 205.401 145.154 205.354L207.068 202.972C208.092 202.877 208.878 203.71 208.926 204.687C208.973 205.663 208.187 206.497 207.211 206.544L145.297 208.926C145.273 208.926 145.249 208.926 145.225 208.926Z" fill="white"/>
<path d="M145.225 218.451C144.273 218.451 143.487 217.689 143.439 216.736C143.392 215.76 144.178 214.927 145.154 214.879L207.068 212.498C208.092 212.474 208.878 213.236 208.926 214.212C208.973 215.189 208.187 216.022 207.211 216.07L145.297 218.451C145.273 218.451 145.249 218.451 145.225 218.451Z" fill="white"/>
<path d="M148.797 218.308C148.345 218.308 147.893 218.141 147.559 217.808C147.202 217.474 147.011 216.998 147.011 216.522V206.997C147.011 206.044 147.773 205.258 148.726 205.211L203.496 203.115C203.996 203.067 204.449 203.282 204.806 203.615C205.163 203.948 205.354 204.401 205.354 204.901V214.426C205.354 215.379 204.592 216.165 203.639 216.212L148.869 218.308C148.845 218.308 148.821 218.308 148.797 218.308ZM150.583 208.735V214.688L201.782 212.712V206.758L150.583 208.735Z" fill="white"/>
<path d="M148.797 208.783C148.345 208.783 147.893 208.592 147.559 208.283C147.202 207.949 147.011 207.473 147.011 206.997V197.471C147.011 196.519 147.773 195.733 148.726 195.685L203.496 193.59C203.996 193.542 204.449 193.757 204.806 194.09C205.163 194.423 205.354 194.876 205.354 195.376V204.901C205.354 205.854 204.592 206.639 203.639 206.687L148.869 208.783C148.845 208.783 148.821 208.783 148.797 208.783ZM150.583 199.21V205.163L201.782 203.187V197.233L150.583 199.21Z" fill="white"/>
<path d="M148.797 199.257C148.345 199.257 147.893 199.067 147.559 198.757C147.202 198.424 147.011 197.948 147.011 197.471V187.946C147.011 186.993 147.773 186.208 148.726 186.16L203.496 184.064C203.996 184.017 204.449 184.231 204.806 184.565C205.163 184.898 205.354 185.35 205.354 185.85V195.376C205.354 196.328 204.592 197.114 203.639 197.162L148.869 199.257C148.845 199.257 148.821 199.257 148.797 199.257ZM150.583 189.661V195.614L201.782 193.637V187.684L150.583 189.661Z" fill="white"/>
<path d="M159.513 189.327C159.061 189.327 158.608 189.137 158.275 188.827C157.918 188.494 157.727 188.018 157.727 187.541V130.938C157.727 129.961 158.537 129.152 159.513 129.152H192.852C193.828 129.152 194.638 129.961 194.638 130.938V186.256C194.638 187.208 193.876 187.994 192.923 188.042L159.585 189.327C159.561 189.327 159.537 189.327 159.513 189.327ZM161.299 132.724V185.684L191.066 184.541V132.724H161.299Z" fill="white"/>
<path d="M192.852 132.723H159.513C158.847 132.723 158.227 132.342 157.942 131.771C157.632 131.176 157.68 130.461 158.061 129.914L174.73 106.1C175.397 105.148 176.992 105.148 177.659 106.1L194.328 129.914C194.709 130.461 194.757 131.176 194.447 131.771C194.138 132.342 193.519 132.723 192.852 132.723ZM162.942 129.152H189.423L176.183 110.244L162.942 129.152Z" fill="white"/>
<path d="M176.183 188.685C175.206 188.685 174.397 187.899 174.397 186.899V130.938C174.397 129.961 175.206 129.152 176.183 129.152C177.159 129.152 177.969 129.961 177.969 130.938V186.899C177.969 187.899 177.183 188.685 176.183 188.685Z" fill="white"/>
<path d="M116.65 125.58H85.5735C84.5972 125.58 83.7875 124.77 83.7875 123.794C83.7875 122.817 84.5734 122.008 85.5735 122.008H116.65C117.626 122.008 118.436 122.817 118.436 123.794C118.436 124.77 117.626 125.58 116.65 125.58Z" fill="white"/>
<path d="M117.721 113.673H102.552C101.576 113.673 100.766 112.863 100.766 111.887C100.766 110.911 101.576 110.101 102.552 110.101H117.721C118.698 110.101 119.507 110.911 119.507 111.887C119.507 112.863 118.698 113.673 117.721 113.673Z" fill="white"/>
<path d="M95.3845 113.673H87.5024C86.526 113.673 85.7164 112.863 85.7164 111.887C85.7164 110.911 86.526 110.101 87.5024 110.101H95.3845C96.3609 110.101 97.1705 110.911 97.1705 111.887C97.1705 112.863 96.3847 113.673 95.3845 113.673Z" fill="white"/>
<path d="M121.412 101.767H92.8365C91.8602 101.767 91.0505 100.957 91.0505 99.9806C91.0505 99.0042 91.8602 98.1946 92.8365 98.1946H121.412C122.389 98.1946 123.198 99.0042 123.198 99.9806C123.198 100.957 122.389 101.767 121.412 101.767Z" fill="white"/>
<path d="M117.721 137.486H107.315C106.339 137.486 105.529 136.677 105.529 135.7C105.529 134.724 106.339 133.914 107.315 133.914H117.721C118.698 133.914 119.507 134.724 119.507 135.7C119.507 136.677 118.698 137.486 117.721 137.486Z" fill="white"/>
<path d="M100.147 137.486H85.5735C84.5972 137.486 83.7875 136.677 83.7875 135.7C83.7875 134.724 84.5734 133.914 85.5735 133.914H100.171C101.147 133.914 101.957 134.724 101.957 135.7C101.933 136.677 101.147 137.486 100.147 137.486Z" fill="white"/>
<path d="M121.412 149.393H102.528C101.552 149.393 100.742 148.583 100.742 147.607C100.742 146.607 101.552 145.821 102.528 145.821H121.412C122.389 145.821 123.198 146.607 123.198 147.607C123.198 148.607 122.389 149.393 121.412 149.393Z" fill="white"/>
<path d="M95.3845 149.393H85.5735C84.5972 149.393 83.7875 148.583 83.7875 147.607C83.7875 146.63 84.5734 145.821 85.5735 145.821H95.4084C96.3847 145.821 97.1943 146.607 97.1943 147.607C97.1705 148.607 96.3847 149.393 95.3845 149.393Z" fill="white"/>
<path d="M198.448 94.7418C198.091 94.7418 197.71 94.6227 197.4 94.4084C194.804 92.5271 191.971 91.0031 188.994 89.8839C188.065 89.5267 187.613 88.5027 187.946 87.574C188.303 86.6453 189.327 86.1928 190.256 86.5262C193.542 87.7645 196.638 89.4552 199.496 91.5032C200.305 92.0747 200.472 93.1939 199.9 94.0036C199.543 94.4798 198.996 94.7418 198.448 94.7418Z" fill="white"/>
<path d="M209.307 144.392C208.997 144.392 208.711 144.321 208.426 144.154C207.568 143.678 207.259 142.582 207.759 141.725C210.831 136.296 212.45 130.128 212.45 123.865C212.45 115.459 209.521 107.291 204.187 100.814C203.568 100.052 203.663 98.9329 204.425 98.2899C205.187 97.6708 206.306 97.7661 206.949 98.5281C212.807 105.648 216.022 114.626 216.022 123.841C216.022 130.723 214.236 137.51 210.854 143.487C210.545 144.059 209.926 144.392 209.307 144.392Z" fill="white"/>
<path d="M101.076 195.019H97.5039C96.5275 195.019 95.7179 194.209 95.7179 193.233C95.7179 192.256 96.5275 191.447 97.5039 191.447H101.076C102.052 191.447 102.862 192.256 102.862 193.233C102.862 194.233 102.076 195.019 101.076 195.019Z" fill="white"/>
<path d="M112.982 195.019H109.41C108.434 195.019 107.624 194.209 107.624 193.233C107.624 192.256 108.434 191.447 109.41 191.447H112.982C113.959 191.447 114.768 192.256 114.768 193.233C114.768 194.233 113.983 195.019 112.982 195.019Z" fill="white"/>
<path d="M105.243 202.782C104.267 202.782 103.457 201.972 103.457 200.996V197.424C103.457 196.447 104.267 195.638 105.243 195.638C106.219 195.638 107.029 196.447 107.029 197.424V200.996C107.029 201.972 106.243 202.782 105.243 202.782Z" fill="white"/>
<path d="M105.243 190.851C104.267 190.851 103.457 190.042 103.457 189.065V185.493C103.457 184.517 104.267 183.707 105.243 183.707C106.219 183.707 107.029 184.517 107.029 185.493V189.065C107.029 190.065 106.243 190.851 105.243 190.851Z" fill="white"/>
<path d="M122.198 215.474H118.626C117.65 215.474 116.84 214.665 116.84 213.688C116.84 212.712 117.65 211.902 118.626 211.902H122.198C123.174 211.902 123.984 212.712 123.984 213.688C123.984 214.665 123.174 215.474 122.198 215.474Z" fill="white"/>
<path d="M134.105 215.474H130.533C129.556 215.474 128.747 214.665 128.747 213.688C128.747 212.712 129.556 211.902 130.533 211.902H134.105C135.081 211.902 135.891 212.712 135.891 213.688C135.891 214.665 135.081 215.474 134.105 215.474Z" fill="white"/>
<path d="M126.365 223.214C125.389 223.214 124.579 222.404 124.579 221.428V217.856C124.579 216.879 125.389 216.07 126.365 216.07C127.342 216.07 128.151 216.879 128.151 217.856V221.428C128.151 222.404 127.342 223.214 126.365 223.214Z" fill="white"/>
<path d="M126.365 211.307C125.389 211.307 124.579 210.497 124.579 209.521V205.949C124.579 204.973 125.389 204.163 126.365 204.163C127.342 204.163 128.151 204.973 128.151 205.949V209.521C128.151 210.497 127.342 211.307 126.365 211.307Z" fill="white"/>
<path d="M226.19 223.214H216.665C215.689 223.214 214.879 222.404 214.879 221.428C214.879 220.427 215.689 219.642 216.665 219.642H226.19C227.167 219.642 227.976 220.427 227.976 221.428C227.976 222.428 227.19 223.214 226.19 223.214Z" fill="white"/>
<path d="M221.428 227.976C220.451 227.976 219.642 227.166 219.642 226.19V216.665C219.642 215.665 220.451 214.879 221.428 214.879C222.404 214.879 223.214 215.665 223.214 216.665V226.19C223.214 227.19 222.428 227.976 221.428 227.976Z" fill="white"/>
<path d="M221.428 208.926C222.414 208.926 223.214 208.126 223.214 207.14C223.214 206.153 222.414 205.354 221.428 205.354C220.441 205.354 219.642 206.153 219.642 207.14C219.642 208.126 220.441 208.926 221.428 208.926Z" fill="white"/>
<path d="M221.428 201.782C222.414 201.782 223.214 200.982 223.214 199.996C223.214 199.009 222.414 198.21 221.428 198.21C220.441 198.21 219.642 199.009 219.642 199.996C219.642 200.982 220.441 201.782 221.428 201.782Z" fill="white"/>
<path d="M221.428 192.257C222.414 192.257 223.214 191.457 223.214 190.471C223.214 189.484 222.414 188.685 221.428 188.685C220.441 188.685 219.642 189.484 219.642 190.471C219.642 191.457 220.441 192.257 221.428 192.257Z" fill="white"/>
<path d="M221.428 177.968C222.414 177.968 223.214 177.169 223.214 176.182C223.214 175.196 222.414 174.396 221.428 174.396C220.441 174.396 219.642 175.196 219.642 176.182C219.642 177.169 220.441 177.968 221.428 177.968Z" fill="white"/>
</svg>
