<svg id="圖層_1" data-name="圖層 1" xmlns="http://www.w3.org/2000/svg" viewBox="0 0 148 148"><defs><style>.cls-1{fill:#209cff;}.cls-2{fill:#fff;}</style></defs><title>portfolio</title><rect class="cls-1" width="148" height="148" rx="12"/><path class="cls-2" d="M111,81.8a6.12,6.12,0,0,0-3.9,1.46l-5.2-4a72.13,72.13,0,0,0,3.39-8.41.49.49,0,0,0,.23,0,6.15,6.15,0,0,0,1.22-12.19,35.27,35.27,0,0,0-4.43-14.27L105.59,42a6.14,6.14,0,1,0-2.15-4.63,6.34,6.34,0,0,0,.5,2.44l-3.13,2.32c-5.48-8.05-14.24-13.29-24.08-13.29a27.58,27.58,0,0,0-11.5,2.51A6.14,6.14,0,0,0,54.14,35a6.25,6.25,0,0,0,1.21,3.66,34.48,34.48,0,0,0-8.71,21.87l-3.64,0a6.15,6.15,0,1,0,0,2.72l3.6,0c.4,6.91,3.9,14.1,7.29,21.09a1.06,1.06,0,0,0,.11.25L49.6,89.49a6.13,6.13,0,1,0,3.17,5.36,6,6,0,0,0-1.13-3.54l3.67-4.06c1.19,2.44,2.3,5,3.24,7.4h-.39a1.36,1.36,0,1,0,0,2.72h1.48a4,4,0,0,1,.86,2.48,3.92,3.92,0,0,1-.86,2.44H58.16a1.37,1.37,0,0,0-1.36,1.38,1.39,1.39,0,0,0,1.36,1.38h1.48a4,4,0,0,1,0,4.92H58.16a1.36,1.36,0,1,0,0,2.72h4.31a7.89,7.89,0,0,0,7.72,6.5h13a7.89,7.89,0,0,0,7.72-6.5h4.17a1.36,1.36,0,1,0,0-2.72H93.79a4,4,0,0,1,0-4.92h1.34a1.42,1.42,0,0,0,1.38-1.38,1.39,1.39,0,0,0-1.38-1.38H93.79a3.92,3.92,0,0,1-.86-2.44,4,4,0,0,1,.86-2.48h1.34a1.36,1.36,0,1,0,0-2.72h-.31c1.34-3.62,3.09-7.24,4.82-10.77l1-2.12,4.72,3.66A6.14,6.14,0,1,0,111,81.8Zm-1.38-47.92a3.44,3.44,0,1,1-3.41,3.46A3.46,3.46,0,0,1,109.59,33.88Zm-63,64.38A3.43,3.43,0,1,1,50,94.85,3.44,3.44,0,0,1,46.62,98.26Zm53-20.72L89.42,69.61a15.21,15.21,0,0,0,2.07-5.08l7.92.85a6.13,6.13,0,0,0,3.23,4.76A73.39,73.39,0,0,1,99.66,77.54Zm-35.26-16A12.33,12.33,0,1,1,76.73,73.84,12.33,12.33,0,0,1,64.4,61.52Zm44.52,3.17a3.42,3.42,0,1,1-3.43-3.41A3.45,3.45,0,0,1,108.92,64.69Zm-5-5.93A6.12,6.12,0,0,0,99.7,62.7l-7.93-.89a1.62,1.62,0,0,0,0-.29,15.06,15.06,0,0,0-2.19-7.8L100,46A32.45,32.45,0,0,1,103.94,58.76ZM76.73,31.57c8.94,0,16.89,4.75,21.89,12.15L88,51.53a14.85,14.85,0,0,0-18-3.46l-5.39-8.7A6.17,6.17,0,0,0,66.45,35a6.91,6.91,0,0,0-.1-1.14A24.9,24.9,0,0,1,76.73,31.57Zm-16.43,0A3.41,3.41,0,0,1,63.73,35a3.43,3.43,0,0,1-6.85,0A3.4,3.4,0,0,1,60.3,31.57Zm-2.87,8.82a6.26,6.26,0,0,0,2.87.73,6.09,6.09,0,0,0,2-.33l5.41,8.7A15,15,0,0,0,61.74,60.3l-12.36.17A31.77,31.77,0,0,1,57.43,40.39ZM37,65.38A3.41,3.41,0,1,1,40.44,62,3.44,3.44,0,0,1,37,65.38Zm12.35-2.19,12.38-.12a15,15,0,0,0,3.92,8.65L56,82.37C52.9,75.91,49.79,69.28,49.38,63.19ZM62.75,97.37H90.67a6.84,6.84,0,0,0,0,4.92H62.75A6.84,6.84,0,0,0,62.75,97.37Zm20.49,19.06h-13a5.16,5.16,0,0,1-4.94-3.74H88.18A5.17,5.17,0,0,1,83.24,116.43ZM62.75,110a6.84,6.84,0,0,0,0-4.92H90.67a6.84,6.84,0,0,0,0,4.92ZM97.2,82.66a108.47,108.47,0,0,0-5.29,12H61.47a100.15,100.15,0,0,0-4.16-9.6l10.4-11.5a15,15,0,0,0,20-1.78l10.71,8.29C98.05,80.91,97.62,81.76,97.2,82.66ZM111,91.4A3.42,3.42,0,1,1,114.39,88,3.41,3.41,0,0,1,111,91.4Z"/><path class="cls-2" d="M77.4,68.92l6.1-11.3A1.34,1.34,0,0,0,83,55.79a1.39,1.39,0,0,0-1.87.53l-5.16,9.55-3.58-4.06a1.39,1.39,0,0,0-1.93-.17,1.4,1.4,0,0,0-.12,2l4.88,5.56a1.4,1.4,0,0,0,1,.49.23.23,0,0,0,.17,0A1.29,1.29,0,0,0,77.4,68.92Z"/></svg>