<svg xmlns="http://www.w3.org/2000/svg" viewBox="0 0 250 250"><title>link_circle</title><path d="M143.1,28.2l5.8-20,3.9,1.1,1.1,17.1L164,12.6l3.6,1-5.9,20-2.6-.8,4.7-16.2L154,29.9l-2.8-.8-1-16.5-4.7,16.3Z"/><path d="M173.6,37.6c-2.2.6-3.9.6-5.3-.2a3.9,3.9,0,0,1-2.2-2.5,4,4,0,0,1,.2-3.2,4.2,4.2,0,0,1,3.7-2.4c1.6-.2,3.6.4,6,1.6l.5.3.9-1.7q1.2-2.2-1.2-3.6a10,10,0,0,0-4.8-1l1-2a15.2,15.2,0,0,1,5.2,1.4c1.5.8,2.5,1.7,2.8,2.8a4.3,4.3,0,0,1-.6,3.7L176.6,37c-.7,1.4-.6,2.3.2,2.7l.5.2-.5,1.5a4.2,4.2,0,0,1-2.1-.6C173.6,40.2,173.2,39.2,173.6,37.6Zm.4-1.5,1.8-3.5-.8-.4a7.1,7.1,0,0,0-3.7-1,2.7,2.7,0,0,0-2.3,1.4,1.9,1.9,0,0,0-.1,1.8,2.4,2.4,0,0,0,1.2,1.4A6.1,6.1,0,0,0,174,36.1Z"/><path d="M178.9,43.1l13.5-17.8,2.2,1.6-5.9,7.9a5.6,5.6,0,0,1,8.2,4.7,8,8,0,0,1-2,5.3,10.4,10.4,0,0,1-5.1,3.8,5.4,5.4,0,0,1-5.2-1,5.6,5.6,0,0,1-2.4-4.3l-1.4,1.3Zm4.5-1.4a6.6,6.6,0,0,0,2.1,4c2.1,1.6,4.4.8,6.8-2.4s2.3-5,.5-6.4-3-1.2-5.2-.8Z"/><path d="M200.6,61.6a19.7,19.7,0,0,1-3.9-2.9,7.3,7.3,0,0,1-2.2-5.6,8,8,0,0,1,2.7-5.5,8.6,8.6,0,0,1,5.5-2.6,6.2,6.2,0,0,1,4.9,2,4.9,4.9,0,0,1,1.5,4.5,9.7,9.7,0,0,1-3,4.9l-.6.6-6.7-7c-2.3,2.8-2.4,5.3-.3,7.6a11.8,11.8,0,0,0,3.6,2.4Zm-.2-12.9,4.7,4.8c2-1.9,2.3-3.7.9-5.2S202.7,46.9,200.4,48.7Z"/><path d="M202.7,65.3l17.8-13.2,1.7,2.2L204.4,67.6Z"/><path d="M211.7,79l18.8-8.8,1.3,2.7-16.9,7.8,4,8.5-2,1Z"/><path d="M217.5,92.6,232,87.8l.9,2.6-14.5,4.9Zm17.1-5.7,2.7-.8.8,2.6-2.6.9Z"/><path d="M220,100l14.9-3,.6,2.7-2.8.6a6.4,6.4,0,0,1,4.1,4.6,4,4,0,0,1-.6,3.4,5.1,5.1,0,0,1-3.1,1.8l-10.7,2.1-.6-2.7,9.9-2a4.6,4.6,0,0,0,2.3-.9,2.1,2.1,0,0,0,.4-1.8c-.3-1.6-1.7-3-4.2-4l-9.7,1.9Z"/><path d="M236.9,116.1h1a1.6,1.6,0,0,0,1.1,1,4.7,4.7,0,0,0,2.2.2h.3v-1.4l3.4-.2.3,3.5-3,.2a6.6,6.6,0,0,1-3.7-.7A3.4,3.4,0,0,1,236.9,116.1Z"/><path d="M222.5,129.5a20,20,0,0,1,1.1-4.6l2.6.2a11,11,0,0,0-1.6,4.6,3.1,3.1,0,0,0,.5,2,2.1,2.1,0,0,0,1.6.9c1,.1,1.8-.6,2.5-2.1l.8-1.6c1.1-2.3,2.6-3.4,4.4-3.3a3.9,3.9,0,0,1,3.1,1.5,6.1,6.1,0,0,1,.9,4,14,14,0,0,1-.5,3.1v.6h-2.3a21.2,21.2,0,0,0,.9-3.7c0-1.8-.6-2.7-1.9-2.7s-1.5.6-2.2,1.9l-.6,1.3a8,8,0,0,1-2.2,3.1,4,4,0,0,1-2.7.8,4.2,4.2,0,0,1-3.2-1.8A6,6,0,0,1,222.5,129.5Z"/><path d="M215.2,146.3l19.9,6.1-.8,2.6-2.8-.8a5.4,5.4,0,0,1,1.6,5.8,5.1,5.1,0,0,1-3.2,3.6,9.3,9.3,0,0,1-5.7-.1,10,10,0,0,1-5.3-3.6,5.4,5.4,0,0,1-.9-5.2,6.3,6.3,0,0,1,3.3-3.7l-6.9-2.1Zm8,5.3a6.4,6.4,0,0,0-3.1,3.3c-.7,2.6.8,4.5,4.7,5.7s5.5.4,6.2-1.9a6.2,6.2,0,0,0-1.1-5Z"/><path d="M212,169.4a6.8,6.8,0,0,1,4.3-3.7,8.6,8.6,0,0,1,6.1,1,7.8,7.8,0,0,1,4.2,4.4,6.8,6.8,0,0,1-.5,5.7,6.5,6.5,0,0,1-4.3,3.7,8.5,8.5,0,0,1-6.1-.9,8.3,8.3,0,0,1-4.3-4.4A6.7,6.7,0,0,1,212,169.4Zm1.8,1q-2,3.9,3.3,6.6t7.2-1.2c1.3-2.5.2-4.7-3.3-6.5S215.1,167.9,213.8,170.4Z"/><path d="M206.8,179.1l12.4,8.8-1.6,2.3-2.3-1.7a5.3,5.3,0,0,1-.2,5.8l-.5.7-2.1-1.5.9-.9q1.5-2.2,0-5.4l-8.2-5.9Z"/><path d="M196.7,191.3a4.6,4.6,0,0,1,3.1-1.7,4.8,4.8,0,0,1,3.3,1.4l6.7,5.9,1.3-1.4,1.5,1.4-1.2,1.4,2,1.8-1.6,2.3-2.3-2-2.6,3-1.6-1.4,2.7-3-6.4-5.6c-1.4-1.4-2.8-1.4-3.9-.1a10.5,10.5,0,0,0-.8,1.1l-1.4-1.2A7.8,7.8,0,0,1,196.7,191.3Z"/><path d="M199.5,207.5l-8.9-9.7,2-1.9,8.9,9.8,1.6-1.5,1.4,1.5-1.6,1.5,1.3,1.3c2.4,2.7,2.4,5.2,0,7.4a11.5,11.5,0,0,1-2.7,1.8l-1.4-1.6a17.4,17.4,0,0,0,2.6-1.6,2.6,2.6,0,0,0,.9-1.7,4.8,4.8,0,0,0-1.3-2.2l-1.4-1.5-2.8,2.5-1.4-1.5Z"/><path d="M180.5,205.3a7.2,7.2,0,0,1,5.6-1.2,8.6,8.6,0,0,1,4.9,3.7,8.1,8.1,0,0,1,1.7,5.9,7,7,0,0,1-3.2,4.8,6.5,6.5,0,0,1-5.6,1.2,9.5,9.5,0,0,1-6.6-9.6A7.3,7.3,0,0,1,180.5,205.3Zm1.2,1.7c-2.4,1.7-2.5,4.2-.2,7.4s4.5,4,6.9,2.4,2.4-4.1.2-7.3S184,205.4,181.7,207Z"/><path d="M171.3,211.4l10.2,19.7-2.4,1.3-10.3-19.7Z"/><path d="M164.2,214.8l5.9,14.1-2.6,1.1-5.9-14.1Zm7,16.7,1,2.5-2.5,1.1-1.1-2.5Z"/><path d="M151.2,219.1a6.4,6.4,0,0,1,5.6.7,8.2,8.2,0,0,1,3.5,5.1,8.4,8.4,0,0,1-.4,6.1,6.8,6.8,0,0,1-4.5,3.5,6.6,6.6,0,0,1-5.7-.7,8.2,8.2,0,0,1-3.5-5,8.6,8.6,0,0,1,.4-6.2A6.8,6.8,0,0,1,151.2,219.1Zm.5,2c-2.8.8-3.7,3.1-2.6,6.9s2.9,5.2,5.7,4.5,3.7-3.1,2.6-6.9S154.5,220.3,151.7,221.1Z"/><path d="M131.9,222.8l1.2,22.1-2.8.2-1.2-22.2Z"/><path d="M123.5,241v2.8h-2.8V241Zm.5-18-.4,15.3h-2.8l.4-15.3Z"/><path d="M116.2,222.8,114,237.9l-2.8-.4.4-2.9a6.3,6.3,0,0,1-5.7,2.4,4.3,4.3,0,0,1-3-1.7,4.6,4.6,0,0,1-.6-3.5l1.6-10.9,2.7.4-1.5,10a4.8,4.8,0,0,0,.2,2.5,1.7,1.7,0,0,0,1.5.9c1.7.3,3.4-.6,5.2-2.6l1.5-9.7Z"/><path d="M99.5,219.8l-7,21.1-2.7-.9,4.6-13.6-8.5,5-2.8-1,8.1-4.8-4.5-10.1,3.3,1.2,4.4,9.7,2.4-7.5Z"/><path d="M67.4,225.8,66,228.1l-2.4-1.4,1.4-2.4Zm9.2-15.6-7.8,13.2L66.4,222l7.8-13.2Z"/><path d="M66.9,203.5a15.1,15.1,0,0,1,3.1,3.4L68.5,209a10.5,10.5,0,0,0-3-3.9,2.8,2.8,0,0,0-1.9-.7,1.9,1.9,0,0,0-1.6.8c-.6.8-.5,1.8.3,3.2l.9,1.5c1.3,2.3,1.4,4.1.3,5.6a3.9,3.9,0,0,1-3,1.7,6.2,6.2,0,0,1-3.8-1.4,15.3,15.3,0,0,1-2.3-2.2l-.4-.4,1.4-1.9a14.6,14.6,0,0,0,2.5,2.8c1.4,1,2.5,1.1,3.3,0s.4-1.6-.3-2.9l-.8-1.2a7.9,7.9,0,0,1-1.3-3.6,4,4,0,0,1,4.1-4.3A5.9,5.9,0,0,1,66.9,203.5Z"/><path d="M52.8,191.5l-17.2,14-1.8-2.1,7.6-6.2a6.4,6.4,0,0,1-5.9-2.2,4.4,4.4,0,0,1-1-3.2,4.9,4.9,0,0,1,1.9-3.1l8.5-6.9,1.8,2.2-7.9,6.3a4.5,4.5,0,0,0-1.5,1.9,1.8,1.8,0,0,0,.5,1.8c1,1.3,2.9,1.8,5.6,1.6l7.6-6.2Z"/><path d="M36.4,168.5a15.9,15.9,0,0,1,3.1,3.7,7.3,7.3,0,0,1,.8,5.9,7.7,7.7,0,0,1-4,4.7,8.1,8.1,0,0,1-5.9,1.2,5.8,5.8,0,0,1-4.3-3,5.3,5.3,0,0,1-.4-4.7c.6-1.6,2-2.9,4.1-4.1l.8-.4,4.7,8.3c3-2.1,3.7-4.5,2.1-7.3a10.3,10.3,0,0,0-2.9-3.2Zm-2.9,12.6-3.4-5.9c-2.4,1.4-3.1,3-2.1,4.9S30.9,182.3,33.5,181.1Z"/><path d="M35.2,164.4,21,170.1l-1-2.6,2.7-1c-2.4-.3-4-1.3-4.8-3.3l-.3-.8,2.4-1,.3,1.3c.7,1.6,2.2,2.6,4.5,2.9l9.4-3.8Z"/><path d="M28,143.3a16.4,16.4,0,0,1,2,4.4,7.1,7.1,0,0,1-.8,5.9,8.3,8.3,0,0,1-5.1,3.5,8.6,8.6,0,0,1-6-.5,5.5,5.5,0,0,1-3.3-4.1,4.9,4.9,0,0,1,.8-4.6,9.2,9.2,0,0,1,5.1-2.8l.8-.2,2.4,9.3c3.4-1.3,4.7-3.4,3.9-6.5a11.5,11.5,0,0,0-1.9-3.9Zm-6.2,11.3-1.6-6.5c-2.8.7-3.9,2-3.4,4.1S19,155.1,21.8,154.6Z"/><path d="M28,138.9l-3.5.4-.4-3.4,3.5-.4Z"/><path d="M26.6,122.1,5.9,119.4l.6-4,16.7-3.7L7.9,103.8l.5-3.7,20.7,2.7-.4,2.7-16.8-2.1L26.6,111l-.4,2.9-16.1,3.5,16.8,2.2Z"/><path d="M31.2,90.4a7.3,7.3,0,0,1,.6,5.3,4.3,4.3,0,0,1-2.1,2.6,4.2,4.2,0,0,1-3.3.2,4.3,4.3,0,0,1-2.9-3.2,11.3,11.3,0,0,1,.6-6.1l.2-.7-1.7-.6c-1.7-.5-2.8.1-3.4,1.8a9.9,9.9,0,0,0-.2,4.9l-2.2-.7a15.5,15.5,0,0,1,.6-5.4,5.1,5.1,0,0,1,2.3-3.2,4.9,4.9,0,0,1,3.8,0L30,87.5c1.5.5,2.4.3,2.8-.6a1.1,1.1,0,0,1,.1-.5l1.5.3a3.9,3.9,0,0,1-.3,2.1A2.4,2.4,0,0,1,31.2,90.4Zm-1.6-.1-3.7-1.2-.3.8a7.5,7.5,0,0,0-.4,3.8,2.5,2.5,0,0,0,1.7,2.1,2.3,2.3,0,0,0,1.8-.2,2.1,2.1,0,0,0,1.2-1.4A5.4,5.4,0,0,0,29.6,90.3Z"/><path d="M35.8,84.4,16.1,73.8l1.3-2.4L26,76a5.5,5.5,0,0,1-.4-6,5.3,5.3,0,0,1,3.8-2.9A8.6,8.6,0,0,1,35,68.3a10,10,0,0,1,4.6,4.5,5.6,5.6,0,0,1-.2,5.2,5.8,5.8,0,0,1-4,3l1.5,1.2Zm-2.1-4.3a5.8,5.8,0,0,0,3.6-2.7c1.3-2.3.1-4.4-3.4-6.4s-5.3-1.5-6.5.6a6.3,6.3,0,0,0,.1,5.2Z"/><path d="M50.7,60.1a15.4,15.4,0,0,1-2.3,4.3,7.2,7.2,0,0,1-5.1,3,7.9,7.9,0,0,1-5.9-1.9A8.1,8.1,0,0,1,34,60.6a6.1,6.1,0,0,1,1.2-5.2,5.2,5.2,0,0,1,4.2-2.2,9,9,0,0,1,5.3,2.3l.7.5-5.9,7.6c3.1,1.9,5.6,1.6,7.6-.9a11.8,11.8,0,0,0,1.8-3.9ZM37.9,62.2,42,56.9c-2.2-1.7-4-1.7-5.3-.1S35.8,60.3,37.9,62.2Z"/><path d="M54.1,57.4,38.2,41.8l2-1.9L56,55.4Z"/><path d="M66.2,46.5,54.6,29.2,57,27.5,67.4,43l7.8-5.3,1.2,1.9Z"/><path d="M70.5,22.5l-1.3-2.4,2.5-1.3L73,21.3Zm8.3,16.1L71.8,25l2.4-1.3,7.1,13.6Z"/><path d="M85.6,35,80.4,20.7l2.6-1,1,2.7q.9-3.7,3.9-4.8a4,4,0,0,1,3.4.1,4.4,4.4,0,0,1,2.3,2.8l3.8,10.3-2.6.9-3.5-9.5A5.1,5.1,0,0,0,90,20.1a2.2,2.2,0,0,0-1.8-.1c-1.6.6-2.7,2.2-3.4,4.8l3.4,9.3Z"/><path d="M98.9,15.8l-.2-1a1.5,1.5,0,0,0,.8-1.2,5.7,5.7,0,0,0-.1-2.2v-.3l-1.3.3L97.2,8l3.4-.7.7,2.9a6.4,6.4,0,0,1-.1,3.7A3.4,3.4,0,0,1,98.9,15.8Z"/><path d="M114.4,27.9a13.7,13.7,0,0,1-4.7-.4l-.2-2.5a11.7,11.7,0,0,0,4.8.9,2.9,2.9,0,0,0,1.9-.9,1.8,1.8,0,0,0,.6-1.7c0-.9-.9-1.6-2.4-2.1l-1.7-.5c-2.4-.8-3.8-2.1-4-3.9a4.3,4.3,0,0,1,1.1-3.3,6,6,0,0,1,3.8-1.5h3.7l.3,2.3a21.2,21.2,0,0,0-3.8-.4c-1.8.2-2.6,1-2.4,2.2s.8,1.5,2.2,1.9l1.4.5a9,9,0,0,1,3.4,1.6,4.2,4.2,0,0,1-.1,6A5.5,5.5,0,0,1,114.4,27.9Z"/></svg>