<?xml version="1.0" encoding="utf-8"?>
<!-- Generator: Adobe Illustrator 26.1.0, SVG Export Plug-In . SVG Version: 6.00 Build 0)  -->
<svg version="1.1" xmlns="http://www.w3.org/2000/svg" xmlns:xlink="http://www.w3.org/1999/xlink" x="0px" y="0px"
	 viewBox="0 0 250 250" style="enable-background:new 0 0 250 250;" xml:space="preserve">
<g id="圖層_2">
</g>
<g id="圖層_1">
	<g>
		<path d="M126,13.6l-0.7-8.4l1,0l0.4,5.1l0,0.8l0,0l0.1-0.8l1-5l1,0l0.8,5.3l0.1,0.8l0,0l0.1-0.8l0.8-5.3l0.8,0l-1.2,8.3l-1,0
			L128.4,8l-0.1-0.9l0,0L128.2,8l-1.1,5.6L126,13.6z"/>
		<path d="M136.2,13.8c-0.8,0.3-1.6,0.5-2.3,0.4c-0.5,0-1-0.2-1.4-0.5c-0.4-0.3-0.7-0.7-0.9-1.2s-0.3-1.1-0.3-1.6
			c0-0.5,0.2-1.1,0.5-1.5c0.3-0.5,0.7-0.9,1.1-1.1s1-0.4,1.5-0.3c0.7,0.1,1.3,0.4,1.7,0.9c0.4,0.5,0.5,1.3,0.5,2.4l0,0.2l-4.1-0.3
			c0,0.4,0,0.8,0.2,1.2c0.1,0.4,0.4,0.6,0.6,0.8s0.6,0.3,0.9,0.3c0.6,0,1.4-0.1,2.2-0.5L136.2,13.8z M132.4,10.3l3,0.2l0-0.1
			c0-0.5-0.1-0.9-0.3-1.2c-0.2-0.3-0.5-0.5-0.9-0.5c-0.4,0-0.8,0.1-1.1,0.4S132.6,9.7,132.4,10.3z"/>
		<path d="M138.2,14.4l1-7.8l-1.8-0.2l0.1-0.8l2.8,0.3l-1,7.8l1.9,0.2l-0.1,0.8L138.2,14.4z"/>
		<path d="M146.9,15.6c-0.7,0.1-1.3,0.1-1.9,0c-0.6-0.1-1.1-0.3-1.5-0.7c-0.4-0.4-0.7-0.8-0.9-1.3c-0.2-0.5-0.2-1.1-0.1-1.7
			c0.2-0.9,0.6-1.6,1.3-2.1s1.4-0.7,2.3-0.5c0.6,0.1,1.2,0.3,1.9,0.7l-0.2,0.9c-0.6-0.4-1.2-0.7-1.8-0.8c-0.4-0.1-0.7,0-1.1,0.1
			c-0.3,0.1-0.6,0.4-0.9,0.7c-0.2,0.3-0.4,0.7-0.5,1.1c-0.1,0.5,0,1.1,0.2,1.6c0.2,0.5,0.7,0.9,1.4,1c0.2,0,0.4,0.1,0.6,0.1
			c0.2,0,0.6,0,1.2-0.1L146.9,15.6z"/>
		<path d="M149.6,16.5c-0.8-0.2-1.4-0.6-1.8-1.3c-0.4-0.7-0.5-1.5-0.3-2.4c0.2-0.9,0.6-1.6,1.3-2c0.6-0.5,1.4-0.6,2.2-0.4
			c0.8,0.2,1.4,0.6,1.8,1.3c0.4,0.7,0.5,1.5,0.3,2.4c-0.2,0.9-0.6,1.6-1.3,2C151.2,16.6,150.4,16.7,149.6,16.5z M149.8,15.7
			c0.5,0.1,1,0,1.4-0.3c0.4-0.3,0.7-0.9,0.8-1.6c0.2-0.7,0.1-1.3-0.1-1.8s-0.6-0.8-1.1-0.9c-0.5-0.1-1,0-1.4,0.3
			c-0.4,0.3-0.7,0.9-0.8,1.6c-0.2,0.7-0.1,1.3,0.1,1.8C148.9,15.3,149.3,15.6,149.8,15.7z"/>
		<path d="M152.1,16.9l1.6-5.8l0.8,0.2l-0.4,1.3c0.4-0.5,0.8-0.8,1.1-1c0.3-0.1,0.5-0.2,0.8-0.1c0.3,0.1,0.5,0.2,0.6,0.5
			c0.1,0.3,0.1,0.6,0,1l-0.1,0.3c0.2-0.3,0.4-0.6,0.6-0.7c0.2-0.2,0.4-0.3,0.6-0.4c0.2-0.1,0.4-0.1,0.6,0c0.2,0.1,0.4,0.2,0.5,0.5
			c0.1,0.3,0.1,0.7-0.1,1.3l-1.2,4.4l-0.8-0.2l1.1-3.9c0.1-0.3,0.1-0.6,0.2-0.7s0-0.2,0-0.3c0-0.1-0.1-0.1-0.2-0.1
			c-0.2,0-0.4,0-0.7,0.3c-0.3,0.2-0.6,0.6-1,1.2l-0.9,3.2l-0.8-0.2l1.1-3.9c0.1-0.5,0.2-0.8,0.1-0.9s-0.2-0.2-0.2-0.2
			c-0.2,0-0.4,0.1-0.7,0.3s-0.6,0.6-0.9,1l-0.9,3.3L152.1,16.9z"/>
		<path d="M162.6,19.7c-0.9,0.1-1.7,0.1-2.3-0.2c-0.5-0.2-0.9-0.5-1.3-0.8s-0.5-0.9-0.6-1.4c-0.1-0.6,0-1.1,0.1-1.6
			c0.2-0.5,0.5-1,0.8-1.4c0.4-0.4,0.8-0.7,1.3-0.8s1-0.1,1.5,0.1c0.7,0.2,1.1,0.6,1.4,1.3c0.2,0.6,0.2,1.4-0.1,2.4l-0.1,0.2
			l-3.9-1.3c-0.1,0.4-0.2,0.8-0.1,1.2c0.1,0.4,0.2,0.7,0.4,0.9c0.2,0.3,0.5,0.4,0.8,0.5c0.6,0.2,1.4,0.2,2.2,0.1L162.6,19.7z
			 M159.8,15.4l2.8,0.9l0-0.1c0.2-0.5,0.2-0.9,0-1.2c-0.1-0.4-0.4-0.6-0.8-0.7c-0.4-0.1-0.8-0.1-1.1,0.1
			C160.4,14.6,160.1,14.9,159.8,15.4z"/>
		<path d="M172.5,24c-0.5,0-0.9,0-1.1-0.1c-0.2-0.1-0.4-0.1-0.6-0.2c-0.4-0.2-0.7-0.4-1-0.7c-0.3-0.3-0.4-0.6-0.4-1s0.1-0.8,0.4-1.4
			l1-2.2l-1.4-0.6l0.3-0.8l1.4,0.6l1-2.2l0.9,0.4l-1,2.2l2.4,1.1l-0.3,0.8l-2.4-1.1l-1,2.2c-0.2,0.4-0.3,0.8-0.3,1
			c0,0.2,0.1,0.4,0.2,0.6c0.1,0.2,0.3,0.3,0.6,0.4c0.4,0.2,1,0.3,1.6,0.2L172.5,24z"/>
		<path d="M174.9,25.6c-0.8-0.4-1.2-1-1.4-1.7s-0.1-1.6,0.3-2.4c0.4-0.8,1-1.4,1.7-1.7c0.7-0.3,1.5-0.3,2.2,0.1
			c0.8,0.4,1.2,1,1.4,1.7c0.2,0.8,0.1,1.6-0.3,2.4c-0.4,0.8-1,1.4-1.7,1.7C176.4,26,175.6,26,174.9,25.6z M175.2,24.9
			c0.5,0.2,0.9,0.2,1.4,0c0.5-0.2,0.9-0.7,1.2-1.3c0.3-0.6,0.4-1.2,0.3-1.7c-0.1-0.5-0.4-0.9-0.9-1.1c-0.5-0.2-1-0.2-1.4,0
			c-0.5,0.2-0.9,0.7-1.2,1.3c-0.3,0.6-0.4,1.2-0.3,1.7S174.8,24.6,175.2,24.9z"/>
		<path d="M181.8,29.2l3.2-5.1l0.7,0.5l-0.7,1.2c0.5-0.3,1-0.5,1.3-0.6c0.3-0.1,0.6,0,0.8,0.1c0.2,0.2,0.4,0.4,0.4,0.7
			c0,0.3-0.1,0.6-0.3,1l-0.2,0.3c0.3-0.2,0.6-0.4,0.8-0.5c0.3-0.1,0.5-0.2,0.7-0.2c0.2,0,0.4,0,0.6,0.2c0.2,0.1,0.3,0.3,0.4,0.6
			c0,0.3-0.1,0.7-0.5,1.3l-2.4,3.8l-0.7-0.5l2.2-3.5c0.2-0.3,0.3-0.5,0.3-0.6c0-0.1,0.1-0.2,0-0.3c0-0.1-0.1-0.2-0.1-0.2
			c-0.2-0.1-0.4-0.1-0.7,0c-0.3,0.1-0.8,0.4-1.3,0.8l-1.8,2.8l-0.7-0.4l2.2-3.5c0.3-0.4,0.4-0.7,0.4-0.9c0-0.1-0.1-0.2-0.2-0.3
			c-0.2-0.1-0.4-0.1-0.8,0.1c-0.3,0.2-0.7,0.4-1.2,0.7l-1.8,2.9L181.8,29.2z"/>
		<path d="M188.7,33.4l1-6.3l0.9,0.6l-0.8,5L194,30l0.8,0.6l-5.1,3.2c-1.1,0.7-1.9,1.1-2.5,1.1c-0.6,0.1-1.2-0.1-1.7-0.5
			c-0.2-0.2-0.5-0.4-0.6-0.5l0.5-0.7c0.2,0.2,0.4,0.4,0.6,0.6c0.3,0.2,0.5,0.3,0.8,0.3c0.3,0,0.6,0,0.9-0.2c0.4-0.1,0.6-0.3,0.8-0.4
			L188.7,33.4z"/>
		<path d="M199.1,35.7c0.6-0.2,1.1-0.2,1.6-0.1c0.5,0.1,0.9,0.2,1.1,0.5c0.4,0.3,0.6,0.8,0.6,1.4c0,0.6-0.3,1.2-0.8,1.9
			c-0.5,0.5-1,0.9-1.5,1.2s-1.1,0.3-1.7,0.3s-1.1-0.3-1.6-0.7c-0.1-0.1-0.3-0.3-0.6-0.6c0,0-0.1-0.1-0.2-0.2l-1.5,1.8l-0.8-0.6
			l5.4-6.3l0.8,0.6L199.1,35.7z M198.3,36.6l-1.7,2c0.2,0.3,0.4,0.6,0.7,0.8c0.5,0.4,1,0.5,1.6,0.5c0.6-0.1,1.2-0.5,1.7-1.1
			c0.4-0.5,0.6-0.9,0.6-1.2c0-0.4-0.1-0.7-0.3-0.8c-0.2-0.2-0.6-0.3-1.1-0.3C199.5,36.3,198.9,36.4,198.3,36.6z"/>
		<path d="M201.2,44c-0.6-0.6-0.9-1.3-0.9-2.1c0-0.8,0.4-1.5,1-2.2c0.6-0.7,1.3-1,2.1-1.1c0.8-0.1,1.5,0.2,2.1,0.8
			c0.6,0.6,0.9,1.3,0.9,2.1c0,0.8-0.4,1.5-1,2.2c-0.6,0.7-1.3,1-2.1,1.1C202.5,44.9,201.8,44.6,201.2,44z M201.8,43.4
			c0.4,0.4,0.8,0.5,1.4,0.4c0.5-0.1,1-0.4,1.5-0.9c0.5-0.5,0.8-1,0.8-1.6c0.1-0.5-0.1-1-0.5-1.3c-0.4-0.4-0.8-0.5-1.4-0.4
			c-0.5,0.1-1,0.4-1.5,0.9c-0.5,0.5-0.8,1.1-0.8,1.6C201.2,42.6,201.4,43,201.8,43.4z"/>
		<path d="M203.8,46.3l4.3-4.2l0.7,0.7l-0.9,0.9c0.6-0.1,1.1-0.1,1.5,0c0.5,0.1,0.9,0.4,1.2,0.7c0.3,0.3,0.5,0.6,0.6,0.9l-1.6,1.5
			l-0.7-0.7l1-1c-0.1-0.1-0.2-0.2-0.2-0.3c-0.3-0.3-0.6-0.4-1.1-0.5s-1,0-1.7,0.2l-2.5,2.4L203.8,46.3z"/>
		<path d="M210.7,53.4c-0.5-0.2-0.8-0.4-0.9-0.5c-0.2-0.1-0.3-0.3-0.4-0.4c-0.3-0.3-0.5-0.7-0.6-1c-0.1-0.4-0.1-0.7,0-1.1
			c0.1-0.3,0.4-0.7,0.9-1.2l1.8-1.6l-1-1.1l0.6-0.5l1,1.1l1.8-1.6l0.7,0.7l-1.8,1.6l1.8,2l-0.6,0.5l-1.8-2l-1.8,1.6
			c-0.4,0.3-0.6,0.6-0.7,0.8c-0.1,0.2-0.1,0.4,0,0.6s0.2,0.4,0.3,0.6c0.3,0.4,0.8,0.6,1.4,0.9L210.7,53.4z"/>
		<path d="M211.6,55l3.7-2.9l-0.8-1l0.7-0.5l0.8,1l0.2-0.2c0.6-0.5,1.1-0.8,1.5-0.9s0.8-0.1,1.2,0.1s0.8,0.5,1.2,0.9
			c0.3,0.4,0.5,0.8,0.8,1.2l-0.7,0.6c-0.2-0.5-0.4-0.9-0.7-1.2c-0.2-0.2-0.4-0.4-0.7-0.6c-0.2-0.1-0.5-0.1-0.8-0.1s-0.7,0.3-1.2,0.7
			l-0.3,0.2l1.5,1.9l-0.7,0.5l-1.5-1.9l-3.7,2.9L211.6,55z"/>
		<path d="M215.4,60.2c-0.5-0.7-0.7-1.4-0.5-2.2c0.2-0.8,0.7-1.4,1.4-2c0.7-0.5,1.5-0.8,2.3-0.7c0.8,0.1,1.4,0.5,1.9,1.2
			c0.5,0.7,0.7,1.4,0.5,2.2c-0.2,0.8-0.6,1.4-1.4,2c-0.7,0.5-1.5,0.8-2.3,0.7C216.5,61.3,215.9,60.9,215.4,60.2z M216.1,59.7
			c0.3,0.4,0.7,0.7,1.2,0.7c0.5,0,1.1-0.2,1.7-0.6c0.6-0.4,1-0.9,1.1-1.4c0.2-0.5,0.1-1-0.2-1.4c-0.3-0.4-0.7-0.7-1.3-0.7
			c-0.5,0-1.1,0.2-1.7,0.6c-0.6,0.4-1,0.9-1.1,1.4S215.7,59.3,216.1,59.7z"/>
		<path d="M218.1,63.9l6.6-4.3l-1-1.5l0.7-0.5l1.5,2.3l-6.6,4.3l1,1.6l-0.7,0.5L218.1,63.9z"/>
		<path d="M221,68.5l4.5-2.6l-0.8-1.4l0.7-0.4l1.3,2.3l-4.5,2.6l0.8,1.4l-0.7,0.4L221,68.5z M228,64.3c0.2-0.1,0.4-0.1,0.6-0.1
			c0.2,0.1,0.3,0.2,0.4,0.3c0.1,0.1,0.1,0.3,0.1,0.5s-0.1,0.3-0.3,0.5s-0.4,0.1-0.5,0.1c-0.2-0.1-0.3-0.2-0.4-0.3
			c-0.1-0.1-0.1-0.3-0.1-0.5S227.8,64.4,228,64.3z"/>
		<path d="M223.8,74c-0.4-0.8-0.4-1.5-0.1-2.2s0.8-1.3,1.7-1.7c0.8-0.4,1.6-0.5,2.4-0.4c0.8,0.2,1.3,0.7,1.7,1.4
			c0.4,0.8,0.4,1.5,0.1,2.2c-0.3,0.7-0.8,1.3-1.7,1.7c-0.8,0.4-1.6,0.5-2.4,0.4C224.8,75.2,224.2,74.8,223.8,74z M224.6,73.6
			c0.2,0.5,0.6,0.8,1.1,0.8c0.5,0.1,1.1,0,1.7-0.4c0.6-0.3,1.1-0.7,1.3-1.2c0.2-0.5,0.2-0.9,0-1.4c-0.2-0.5-0.6-0.8-1.1-0.9
			c-0.5-0.1-1.1,0-1.7,0.4c-0.6,0.3-1.1,0.7-1.3,1.2C224.3,72.7,224.3,73.2,224.6,73.6z"/>
		<path d="M227.5,81.4l8-3.2l0.4,0.9l-3.7,1.5c0.5,0.1,1,0.3,1.4,0.6c0.4,0.3,0.7,0.6,0.8,1c0.1,0.3,0.2,0.6,0.1,1
			c-0.1,0.3-0.2,0.6-0.4,0.8c-0.1,0.2-0.3,0.3-0.5,0.4s-0.6,0.3-1.2,0.5l-3.1,1.2l-0.4-0.9l3.2-1.3c0.5-0.2,0.9-0.4,1-0.5
			c0.1-0.1,0.3-0.3,0.3-0.5c0.1-0.2,0.1-0.4,0-0.5c-0.1-0.3-0.4-0.6-0.9-0.9c-0.5-0.2-1-0.4-1.5-0.5l-3.2,1.3L227.5,81.4z"/>
		<path d="M230.2,88.8c-0.3-0.8-0.2-1.6,0.2-2.2c0.4-0.7,1-1.2,1.9-1.5c0.9-0.3,1.7-0.3,2.4,0s1.2,0.8,1.5,1.7
			c0.3,0.8,0.2,1.6-0.2,2.2c-0.4,0.7-1,1.2-1.9,1.5c-0.9,0.3-1.7,0.3-2.4,0S230.4,89.6,230.2,88.8z M231,88.5c0.2,0.5,0.5,0.8,1,1
			c0.5,0.2,1.1,0.1,1.8-0.1c0.7-0.2,1.2-0.6,1.5-1s0.3-0.9,0.2-1.4c-0.2-0.5-0.5-0.8-1-1c-0.5-0.2-1.1-0.1-1.8,0.1
			c-0.7,0.2-1.2,0.6-1.5,1S230.8,88,231,88.5z"/>
		<path d="M236,91.1c0.6,0.2,1,0.4,1.4,0.7s0.6,0.7,0.7,1c0.1,0.5,0.1,1-0.2,1.5c-0.3,0.5-0.9,0.9-1.7,1.1c-0.7,0.2-1.3,0.2-1.9,0.1
			s-1.1-0.3-1.5-0.7c-0.4-0.3-0.7-0.8-0.9-1.5c-0.1-0.2-0.1-0.5-0.2-0.8c0-0.1,0-0.1,0-0.3l-2.2,0.6l-0.3-1l8-2.3l0.3,1L236,91.1z
			 M234.8,91.5l-2.5,0.7c0,0.4,0.1,0.7,0.1,1c0.2,0.6,0.5,1,1.1,1.3c0.6,0.3,1.2,0.3,2,0.1c0.6-0.2,1-0.4,1.2-0.7
			c0.2-0.3,0.3-0.6,0.2-0.9c-0.1-0.3-0.3-0.6-0.7-0.9S235.4,91.6,234.8,91.5z"/>
		<path d="M234.3,101.5c-0.6-0.7-0.9-1.4-1.1-2.1c-0.1-0.5-0.1-1,0.1-1.5c0.2-0.5,0.5-0.9,0.9-1.3s0.9-0.6,1.5-0.7
			c0.5-0.1,1.1-0.1,1.6,0c0.5,0.1,1,0.4,1.4,0.7c0.4,0.4,0.6,0.8,0.7,1.3c0.2,0.7,0,1.3-0.3,1.8s-1.1,0.9-2.1,1.2l-0.2,0l-1-4
			c-0.4,0.1-0.8,0.3-1,0.5c-0.3,0.2-0.5,0.5-0.6,0.8c-0.1,0.3-0.1,0.6,0,1c0.1,0.6,0.5,1.3,1.1,1.9L234.3,101.5z M236.5,96.9
			l0.7,2.9l0.1,0c0.5-0.1,0.8-0.3,1.1-0.6c0.2-0.3,0.3-0.6,0.2-1c-0.1-0.4-0.3-0.7-0.7-0.9C237.5,97,237.1,96.9,236.5,96.9z"/>
		<path d="M235.5,109.4l5.3-3.5l0.1,1.1l-4.2,2.8l4.7,1.2l0.1,1l-5.8-1.5c-1.2-0.3-2.1-0.7-2.5-1.1c-0.4-0.4-0.7-0.9-0.8-1.6
			c0-0.3-0.1-0.6,0-0.8l0.9-0.1c0,0.3-0.1,0.6,0,0.8c0,0.3,0.1,0.6,0.3,0.8c0.2,0.2,0.4,0.4,0.8,0.6c0.3,0.2,0.6,0.3,0.9,0.3
			L235.5,109.4z"/>
		<path d="M235.7,115.1c-0.1-0.9,0.2-1.6,0.7-2.1c0.6-0.6,1.3-0.9,2.2-1c0.9-0.1,1.7,0.1,2.3,0.6s1,1.1,1.1,2
			c0.1,0.9-0.2,1.6-0.7,2.1c-0.5,0.6-1.3,0.9-2.2,1c-0.9,0.1-1.7-0.1-2.3-0.6C236.2,116.6,235.8,115.9,235.7,115.1z M236.6,115
			c0,0.5,0.3,0.9,0.7,1.2c0.4,0.3,1,0.4,1.7,0.3c0.7-0.1,1.3-0.3,1.7-0.6c0.4-0.4,0.6-0.8,0.5-1.3c0-0.5-0.3-0.9-0.7-1.2
			c-0.4-0.3-1-0.4-1.7-0.3c-0.7,0.1-1.3,0.3-1.7,0.6C236.7,114,236.5,114.5,236.6,115z"/>
		<path d="M242.4,122.7l-6,0.2l0-1l1.3-0.1c-0.5-0.3-0.9-0.6-1.2-1c-0.3-0.4-0.4-0.8-0.4-1.2c0-0.4,0.1-0.7,0.2-1s0.4-0.5,0.7-0.6
			c0.3-0.1,0.9-0.2,1.8-0.2l3.3-0.1l0,1l-3.5,0.1c-0.6,0-1,0.1-1.1,0.1s-0.3,0.2-0.4,0.3c-0.1,0.2-0.2,0.3-0.2,0.5
			c0,0.4,0.2,0.7,0.5,1.1c0.3,0.4,0.8,0.7,1.3,1l3.5-0.1L242.4,122.7z"/>
		<path d="M236.2,133.8c-0.2-0.7-0.3-1.3-0.2-1.9c0-0.6,0.2-1.1,0.5-1.6s0.7-0.8,1.2-1c0.5-0.2,1-0.3,1.6-0.3c0.9,0,1.6,0.4,2.2,1
			c0.6,0.6,0.8,1.4,0.8,2.2c0,0.6-0.2,1.3-0.5,1.9l-1-0.1c0.4-0.7,0.5-1.3,0.6-1.8c0-0.4-0.1-0.7-0.2-1c-0.2-0.3-0.4-0.6-0.8-0.8
			c-0.4-0.2-0.8-0.3-1.2-0.3c-0.5,0-1.1,0.1-1.6,0.4c-0.5,0.3-0.8,0.8-0.8,1.5c0,0.2,0,0.4,0,0.6c0,0.2,0.1,0.6,0.3,1.2L236.2,133.8
			z"/>
		<path d="M236.9,138.2c-0.5-0.4-0.8-0.8-1-1.2c-0.2-0.5-0.3-0.9-0.3-1.2c0.1-0.5,0.3-0.9,0.8-1.3s1.1-0.5,2-0.4
			c0.7,0.1,1.3,0.3,1.8,0.6c0.5,0.3,0.9,0.7,1.2,1.2c0.3,0.5,0.4,1,0.3,1.7c0,0.2-0.1,0.5-0.2,0.8c0,0.1,0,0.1-0.1,0.3l-0.1,1
			l-4.2-0.4c-0.7-0.1-1.3-0.1-1.8,0l0.1-1C235.9,138.2,236.4,138.2,236.9,138.2z M238.1,138.3l2.6,0.3c0.1-0.3,0.2-0.7,0.2-1
			c0.1-0.6-0.1-1.1-0.6-1.6c-0.4-0.5-1.1-0.7-1.9-0.8c-0.6-0.1-1,0-1.4,0.2s-0.5,0.4-0.5,0.7c0,0.3,0.1,0.7,0.4,1.1
			C237.2,137.6,237.6,137.9,238.1,138.3z"/>
		<path d="M235.4,139.5l5.9,0.9l-0.2,1l-1.3-0.2c0.4,0.4,0.7,0.7,0.9,1.2c0.2,0.4,0.3,0.9,0.2,1.3c-0.1,0.4-0.2,0.7-0.4,0.9
			c-0.2,0.3-0.5,0.4-0.8,0.5s-0.9,0-1.8-0.1l-3.3-0.5l0.2-1l3.4,0.5c0.6,0.1,1,0.1,1.1,0.1c0.2,0,0.4-0.1,0.5-0.2
			c0.1-0.1,0.2-0.3,0.2-0.5c0.1-0.3-0.1-0.7-0.3-1.2c-0.3-0.4-0.6-0.8-1.1-1.2l-3.5-0.5L235.4,139.5z"/>
		<path d="M233.2,151.4l4.5,1.1l0.3-1.3l0.8,0.2l-0.3,1.3l0.3,0.1c0.8,0.2,1.3,0.4,1.6,0.7c0.3,0.3,0.6,0.6,0.7,1
			c0.1,0.4,0.1,0.9,0,1.5c-0.1,0.5-0.3,0.9-0.5,1.3l-0.9-0.2c0.3-0.5,0.5-0.9,0.6-1.3c0.1-0.3,0.1-0.6,0-0.9
			c-0.1-0.3-0.2-0.5-0.4-0.7c-0.2-0.2-0.6-0.4-1.3-0.5l-0.4-0.1l-0.6,2.3l-0.8-0.2l0.6-2.3l-4.5-1.1L233.2,151.4z"/>
		<path d="M231.7,156.9l4.9,1.5l0.5-1.6l0.8,0.2l-0.8,2.5l-4.9-1.5l-0.5,1.6l-0.8-0.2L231.7,156.9z M239.6,159.1
			c0.2,0.1,0.4,0.2,0.4,0.4c0.1,0.2,0.1,0.3,0,0.5c0,0.1-0.1,0.3-0.3,0.4c-0.2,0.1-0.3,0.1-0.5,0.1s-0.4-0.2-0.4-0.4
			c-0.1-0.2-0.1-0.3,0-0.5c0-0.1,0.1-0.3,0.3-0.4S239.4,159.1,239.6,159.1z"/>
		<path d="M230.6,160.4l5.6,2l-0.3,0.9l-1.2-0.4c0.3,0.4,0.6,0.9,0.7,1.3c0.1,0.5,0.1,0.9,0,1.3c-0.1,0.3-0.3,0.6-0.6,0.8
			s-0.6,0.3-0.9,0.3c-0.3,0-0.9-0.1-1.7-0.4l-3.2-1.1l0.3-0.9l3.3,1.2c0.5,0.2,0.9,0.3,1.1,0.3s0.4,0,0.5-0.1s0.3-0.2,0.3-0.4
			c0.1-0.3,0.1-0.7-0.1-1.2c-0.2-0.5-0.5-0.9-0.8-1.4l-3.3-1.2L230.6,160.4z"/>
		<path d="M228.5,169.8c-0.3-0.5-0.6-1-0.6-1.4c-0.1-0.5,0-0.9,0.1-1.2c0.2-0.5,0.6-0.8,1.1-1c0.6-0.2,1.2-0.1,2.1,0.2
			c0.6,0.3,1.2,0.6,1.6,1.1c0.4,0.5,0.7,0.9,0.8,1.5s0.1,1.1-0.2,1.7c-0.1,0.2-0.2,0.4-0.4,0.8c0,0-0.1,0.1-0.1,0.2l2.5,1l-0.4,0.9
			l-8-3.3l0.4-0.9L228.5,169.8z M229.6,170.2l2.4,1c0.2-0.3,0.4-0.6,0.5-0.9c0.2-0.6,0.2-1.1-0.1-1.7s-0.8-1-1.6-1.3
			c-0.5-0.2-1-0.3-1.4-0.2s-0.6,0.3-0.7,0.5c-0.1,0.3-0.1,0.7,0,1.1C228.9,169.3,229.2,169.7,229.6,170.2z"/>
		<path d="M224.6,175.6l0.9,0.5c-0.4,0.2-0.8,0.5-1.1,0.9c-0.3,0.3-0.5,0.7-0.7,0.9c-0.2,0.4-0.3,0.8-0.3,1.1c0,0.3,0.2,0.5,0.4,0.6
			c0.1,0.1,0.3,0.1,0.4,0.1c0.2,0,0.4-0.2,0.7-0.5l0.3-0.2l0.6-0.5c0.6-0.5,1.1-0.8,1.4-0.9c0.3-0.1,0.6,0,0.9,0.2
			c0.4,0.2,0.7,0.6,0.8,1.1c0.1,0.5-0.1,1.1-0.5,1.9c-0.3,0.6-0.7,1.1-1.1,1.5l-0.8-0.4c0.5-0.5,0.9-1,1.2-1.5
			c0.2-0.4,0.3-0.7,0.3-1s-0.1-0.5-0.3-0.6c-0.2-0.1-0.4-0.1-0.6,0c-0.2,0.1-0.5,0.3-0.9,0.7l-0.5,0.5c-0.5,0.4-0.9,0.7-1.3,0.8
			c-0.4,0.1-0.7,0-1-0.1c-0.5-0.2-0.7-0.6-0.8-1.1c-0.1-0.5,0-1.2,0.5-1.9C223.4,176.7,224,176.1,224.6,175.6z"/>
		<path d="M220.4,182.1c0.4-0.7,1.1-1.2,1.8-1.3c0.8-0.1,1.6,0,2.3,0.5c0.8,0.5,1.3,1.1,1.5,1.8s0.1,1.5-0.3,2.2
			c-0.4,0.7-1,1.2-1.8,1.3c-0.8,0.1-1.6,0-2.3-0.5c-0.8-0.5-1.3-1.1-1.5-1.8S220,182.9,220.4,182.1z M221.1,182.5
			c-0.3,0.5-0.3,0.9-0.1,1.4c0.2,0.5,0.6,0.9,1.2,1.3c0.6,0.4,1.2,0.5,1.7,0.5c0.5-0.1,0.9-0.3,1.2-0.8c0.3-0.5,0.3-0.9,0.1-1.4
			c-0.2-0.5-0.6-0.9-1.2-1.3c-0.6-0.4-1.2-0.5-1.7-0.5C221.8,181.8,221.4,182.1,221.1,182.5z"/>
		<path d="M219.3,184.3l5,3.3l-0.5,0.7l-1.1-0.8c0.3,0.6,0.5,1,0.6,1.3c0.1,0.3,0,0.6-0.1,0.8c-0.2,0.2-0.4,0.4-0.7,0.4
			c-0.3,0-0.6-0.1-1-0.3l-0.3-0.2c0.2,0.3,0.4,0.6,0.5,0.8c0.1,0.3,0.1,0.5,0.2,0.7c0,0.2,0,0.4-0.2,0.6c-0.1,0.2-0.4,0.3-0.6,0.4
			c-0.3,0-0.7-0.1-1.2-0.5l-3.8-2.5l0.5-0.7l3.4,2.3c0.3,0.2,0.5,0.3,0.6,0.4c0.1,0.1,0.2,0.1,0.3,0c0.1,0,0.2-0.1,0.2-0.1
			c0.1-0.2,0.1-0.4,0-0.7c-0.1-0.3-0.4-0.8-0.8-1.3l-2.8-1.8l0.5-0.7l3.4,2.3c0.4,0.3,0.7,0.4,0.9,0.4c0.1,0,0.2-0.1,0.3-0.2
			c0.1-0.2,0.1-0.4-0.1-0.8c-0.1-0.4-0.4-0.7-0.7-1.2l-2.9-1.9L219.3,184.3z"/>
		<path d="M213.4,193.5c0.2-0.9,0.5-1.6,0.9-2.2c0.3-0.4,0.7-0.7,1.2-0.9c0.5-0.2,1-0.2,1.5-0.1s1.1,0.3,1.5,0.6
			c0.4,0.3,0.8,0.7,1.1,1.2c0.3,0.5,0.4,1,0.3,1.5c0,0.5-0.2,1-0.5,1.4c-0.4,0.6-1,0.9-1.6,0.9c-0.7,0-1.4-0.2-2.3-0.9l-0.2-0.1
			l2.5-3.3c-0.3-0.2-0.7-0.4-1.1-0.5c-0.4-0.1-0.7,0-1,0.1c-0.3,0.1-0.6,0.3-0.8,0.6c-0.4,0.5-0.6,1.2-0.8,2.1L213.4,193.5z
			 M218.3,192.1l-1.8,2.4l0.1,0.1c0.4,0.3,0.8,0.4,1.2,0.4c0.4,0,0.7-0.2,0.9-0.5c0.2-0.3,0.3-0.7,0.3-1.1S218.7,192.6,218.3,192.1z
			"/>
		<path d="M209.8,197.6c0.1-0.5,0.3-0.8,0.4-1c0.1-0.2,0.2-0.4,0.3-0.5c0.3-0.3,0.6-0.6,0.9-0.7c0.3-0.2,0.7-0.2,1.1-0.2
			s0.8,0.3,1.3,0.7l1.9,1.5l1-1.2l0.6,0.5l-1,1.2l1.9,1.5l-0.6,0.8l-1.9-1.5l-1.7,2.1l-0.6-0.5l1.7-2.1l-1.9-1.5
			c-0.4-0.3-0.7-0.5-0.9-0.5c-0.2,0-0.4,0-0.6,0.1s-0.4,0.2-0.5,0.4c-0.3,0.4-0.5,0.9-0.6,1.5L209.8,197.6z"/>
		<path d="M209.4,197.7l6.4,5.8l-0.7,0.7l-3-2.7c0.2,0.5,0.2,1,0.1,1.5c-0.1,0.5-0.2,0.9-0.5,1.2c-0.2,0.3-0.5,0.4-0.8,0.5
			c-0.3,0.1-0.6,0.1-0.9,0c-0.2-0.1-0.4-0.1-0.6-0.3c-0.2-0.1-0.5-0.4-1-0.8l-2.5-2.2l0.7-0.7l2.6,2.3c0.4,0.4,0.7,0.6,0.9,0.7
			c0.2,0.1,0.4,0.1,0.5,0.1c0.2,0,0.3-0.1,0.5-0.2c0.2-0.3,0.4-0.7,0.4-1.2c0-0.5-0.1-1-0.3-1.6l-2.6-2.3L209.4,197.7z"/>
		<path d="M204.6,202.9l3.7,3.6l1.2-1.2l0.6,0.6l-1.9,1.9l-3.7-3.6l-1.2,1.2l-0.6-0.6L204.6,202.9z M210.5,208.5
			c0.2,0.2,0.2,0.3,0.2,0.5c0,0.2-0.1,0.3-0.2,0.4c-0.1,0.1-0.2,0.2-0.4,0.2s-0.4,0-0.5-0.2c-0.2-0.2-0.2-0.3-0.2-0.5
			c0-0.2,0.1-0.3,0.2-0.4c0.1-0.1,0.2-0.2,0.4-0.2S210.3,208.4,210.5,208.5z"/>
		<path d="M201.9,205.5l4,4.4l-0.7,0.7l-0.9-1c0.1,0.5,0.1,1,0,1.5c-0.1,0.5-0.3,0.8-0.6,1.1c-0.3,0.2-0.6,0.4-0.9,0.4
			c-0.3,0.1-0.7,0-0.9-0.1c-0.3-0.1-0.7-0.5-1.3-1.2l-2.3-2.5l0.7-0.7l2.3,2.6c0.4,0.4,0.7,0.7,0.8,0.8s0.3,0.1,0.5,0.1
			c0.2,0,0.3-0.1,0.5-0.2c0.3-0.2,0.4-0.6,0.5-1.1c0.1-0.5,0-1-0.1-1.6l-2.4-2.6L201.9,205.5z"/>
		<path d="M195.7,212.8c-0.1-0.6,0-1.1,0.1-1.6c0.2-0.5,0.4-0.8,0.7-1c0.4-0.3,0.9-0.4,1.5-0.4s1.2,0.5,1.7,1.1
			c0.4,0.5,0.7,1.1,0.9,1.7s0.1,1.1,0,1.7s-0.5,1-1,1.4c-0.1,0.1-0.4,0.3-0.7,0.5c0,0-0.1,0.1-0.2,0.1l-0.8,0.6l-2.7-3.3
			c-0.6-0.8-1-1.3-1.1-1.5c-0.1-0.2-0.2-0.4-0.3-0.6c-0.2-0.5-0.2-1,0-1.6s0.6-1.1,1.1-1.5c0.6-0.5,1.2-0.8,2.1-1l0.6,0.8
			c-0.3,0-0.7,0.1-1.1,0.3c-0.4,0.1-0.8,0.3-1.1,0.6c-0.2,0.2-0.4,0.4-0.6,0.7s-0.2,0.5-0.2,0.7c0,0.2,0,0.5,0.1,0.7
			c0.1,0.2,0.3,0.5,0.5,0.8L195.7,212.8z M196.5,213.7l1.6,2c0.3-0.2,0.6-0.3,0.9-0.5c0.5-0.4,0.7-0.9,0.7-1.5s-0.2-1.3-0.8-1.9
			c-0.4-0.5-0.8-0.7-1.1-0.8c-0.4-0.1-0.7,0-0.9,0.1c-0.2,0.2-0.4,0.5-0.5,1C196.3,212.6,196.3,213.1,196.5,213.7z"/>
		<path d="M187.8,217.3l5.5,3.2l-0.9,0.6l-4.4-2.5l1,4.8l-0.8,0.6L187,218c-0.3-1.2-0.3-2.2-0.2-2.7c0.1-0.6,0.5-1,1.1-1.4
			c0.3-0.2,0.5-0.3,0.7-0.4l0.5,0.7c-0.3,0.1-0.5,0.2-0.7,0.3c-0.3,0.2-0.5,0.4-0.6,0.6c-0.1,0.2-0.2,0.6-0.2,0.9
			c0,0.4,0,0.7,0.1,0.9L187.8,217.3z"/>
		<path d="M182.8,220c0.7-0.4,1.5-0.5,2.2-0.3c0.8,0.2,1.4,0.8,1.8,1.5c0.5,0.8,0.6,1.6,0.5,2.3c-0.1,0.8-0.6,1.4-1.3,1.8
			c-0.7,0.4-1.5,0.5-2.2,0.3c-0.8-0.2-1.4-0.8-1.8-1.5c-0.5-0.8-0.6-1.6-0.5-2.3C181.6,221,182.1,220.4,182.8,220z M183.2,220.7
			c-0.5,0.3-0.7,0.7-0.8,1.2s0.1,1.1,0.5,1.7c0.4,0.6,0.8,1,1.3,1.2c0.5,0.2,1,0.1,1.4-0.1c0.5-0.3,0.7-0.7,0.8-1.2
			s-0.1-1.1-0.5-1.7c-0.4-0.6-0.8-1-1.3-1.2S183.7,220.4,183.2,220.7z"/>
		<path d="M178.9,229.3l-2.9-5.3l0.9-0.5l0.6,1.2c0-0.6,0.2-1.1,0.4-1.5c0.2-0.4,0.5-0.7,0.9-0.9c0.3-0.2,0.6-0.2,1-0.2
			c0.3,0,0.6,0.1,0.9,0.4c0.2,0.2,0.6,0.7,1,1.5l1.6,2.9l-0.9,0.5l-1.7-3c-0.3-0.5-0.5-0.8-0.6-1s-0.3-0.2-0.5-0.3
			c-0.2,0-0.4,0-0.5,0.1c-0.3,0.2-0.6,0.5-0.8,1c-0.2,0.5-0.3,1-0.3,1.6l1.7,3.1L178.9,229.3z"/>
		<path d="M170.8,226.5l2.3,5.5l-0.9,0.4l-0.5-1.2c-0.1,0.5-0.3,1-0.5,1.4c-0.3,0.4-0.6,0.7-1,0.8c-0.3,0.1-0.7,0.2-1,0.1
			c-0.3-0.1-0.6-0.2-0.9-0.4c-0.2-0.2-0.5-0.8-0.9-1.6l-1.3-3.1l0.9-0.4l1.4,3.2c0.2,0.5,0.4,0.9,0.5,1c0.1,0.1,0.3,0.2,0.5,0.3
			c0.2,0.1,0.4,0,0.5,0c0.3-0.1,0.6-0.4,0.8-0.9c0.2-0.5,0.4-1,0.4-1.5l-1.4-3.2L170.8,226.5z"/>
		<path d="M161.3,230.8c0.6-0.6,1.3-1.1,1.9-1.3c0.5-0.2,1-0.2,1.5-0.1c0.5,0.1,0.9,0.3,1.4,0.7c0.4,0.4,0.7,0.8,0.9,1.4
			c0.2,0.5,0.3,1.1,0.2,1.6c-0.1,0.6-0.2,1-0.6,1.5c-0.3,0.4-0.7,0.7-1.2,0.9c-0.7,0.2-1.3,0.2-1.9-0.1c-0.6-0.3-1.1-1-1.4-2
			l-0.1-0.2l3.9-1.4c-0.1-0.4-0.4-0.7-0.6-1c-0.3-0.3-0.6-0.4-0.9-0.5c-0.3-0.1-0.7,0-1,0.1c-0.6,0.2-1.2,0.7-1.8,1.3L161.3,230.8z
			 M166.1,232.4l-2.8,1l0.1,0.1c0.2,0.5,0.4,0.8,0.7,1c0.3,0.2,0.7,0.2,1,0.1c0.4-0.1,0.7-0.4,0.8-0.8
			C166.2,233.4,166.2,232.9,166.1,232.4z"/>
		<path d="M156.1,232.4c0.6-0.6,1.3-1,2-1.2c0.5-0.2,1-0.2,1.5-0.1s0.9,0.4,1.3,0.8s0.7,0.9,0.8,1.4c0.2,0.5,0.2,1.1,0.1,1.6
			c-0.1,0.6-0.3,1-0.6,1.4s-0.8,0.7-1.3,0.8c-0.7,0.2-1.3,0.1-1.9-0.2c-0.6-0.4-1-1-1.3-2.1l-0.1-0.2l3.9-1.2
			c-0.1-0.4-0.3-0.7-0.6-1s-0.6-0.5-0.9-0.5c-0.3-0.1-0.7-0.1-1,0c-0.6,0.2-1.2,0.6-1.9,1.3L156.1,232.4z M160.9,234.2l-2.9,0.9
			l0,0.1c0.1,0.5,0.4,0.8,0.7,1c0.3,0.2,0.7,0.2,1,0.1c0.4-0.1,0.7-0.4,0.9-0.7C160.9,235.3,161,234.8,160.9,234.2z"/>
		<path d="M152.1,234.4c0.2-0.6,0.4-1,0.8-1.4s0.7-0.6,1-0.7c0.5-0.1,1,0,1.5,0.3c0.5,0.3,0.9,0.9,1.1,1.8c0.2,0.7,0.2,1.3,0.1,1.9
			c-0.1,0.6-0.4,1.1-0.7,1.5s-0.8,0.7-1.5,0.9c-0.2,0-0.5,0.1-0.8,0.2c-0.1,0-0.1,0-0.3,0l0.7,2.6l-1,0.3l-2.2-8.4l1-0.3
			L152.1,234.4z M152.4,235.6l0.7,2.5c0.4,0,0.7,0,1-0.1c0.6-0.2,1-0.5,1.3-1.1c0.3-0.6,0.3-1.2,0.1-2c-0.2-0.6-0.4-1-0.7-1.2
			c-0.3-0.2-0.6-0.3-0.9-0.2c-0.3,0.1-0.6,0.3-0.9,0.7C152.8,234.5,152.5,235,152.4,235.6z"/>
		<path d="M147.9,233.7c0.2,0,0.5,0,0.7,0.1s0.3,0.3,0.4,0.6c0,0.2,0,0.5-0.1,0.7c-0.1,0.2-0.3,0.3-0.6,0.4c-0.2,0-0.4,0-0.7-0.1
			s-0.3-0.3-0.4-0.6c0-0.2,0-0.5,0.1-0.7S147.7,233.8,147.9,233.7z"/>
		<path d="M139.7,235.4l0.1,0.8l-1.8,0.2l0.7,6.6l1.8-0.2l0.1,0.8l-4.7,0.5l-0.1-0.8l1.8-0.2l-0.7-6.6l-1.8,0.2l-0.1-0.8
			L139.7,235.4z"/>
		<path d="M133.3,241l0,0.7c-0.3,0.1-0.4,0.2-0.6,0.3s-0.2,0.3-0.3,0.5c-0.1,0.2-0.1,0.4-0.1,0.7c0.3,0,0.6,0.1,0.8,0.2
			c0.2,0.2,0.3,0.4,0.3,0.6c0,0.2-0.1,0.5-0.2,0.6c-0.2,0.2-0.4,0.3-0.6,0.3c-0.3,0-0.6-0.1-0.8-0.3c-0.2-0.2-0.4-0.6-0.4-1
			c0-0.4,0-0.8,0.2-1.1s0.4-0.7,0.6-0.9S132.9,241.1,133.3,241z"/>
		<path d="M129.5,236.3l0.1,6l-0.9,0l0-1.4c-0.3,0.6-0.5,1-0.8,1.2c-0.2,0.2-0.5,0.3-0.7,0.3c-0.3,0-0.5-0.1-0.7-0.3s-0.3-0.5-0.3-1
			l0-0.3c-0.1,0.4-0.2,0.7-0.4,0.9c-0.2,0.2-0.3,0.4-0.5,0.5c-0.2,0.1-0.4,0.2-0.6,0.2c-0.3,0-0.5-0.1-0.7-0.3
			c-0.2-0.2-0.3-0.6-0.3-1.3l-0.1-4.5l0.9,0l0.1,4.1c0,0.3,0,0.6,0,0.7c0,0.1,0.1,0.2,0.1,0.3c0.1,0.1,0.1,0.1,0.2,0.1
			c0.2,0,0.4-0.1,0.6-0.4c0.2-0.3,0.4-0.8,0.6-1.4l-0.1-3.3l0.8,0l0.1,4.1c0,0.5,0.1,0.8,0.2,0.9c0.1,0.1,0.2,0.1,0.3,0.1
			c0.2,0,0.4-0.2,0.6-0.5c0.2-0.3,0.4-0.7,0.6-1.2l-0.1-3.5L129.5,236.3z"/>
		<path d="M114.3,237.2c0.3-0.5,0.7-0.8,1.2-1c0.4-0.2,0.8-0.3,1.2-0.3c0.5,0,0.9,0.3,1.3,0.8c0.4,0.5,0.5,1.1,0.4,2
			c-0.1,0.7-0.2,1.3-0.5,1.8c-0.3,0.5-0.7,0.9-1.2,1.2c-0.5,0.3-1,0.4-1.7,0.3c-0.2,0-0.5-0.1-0.9-0.1c-0.1,0-0.1,0-0.3,0l-1-0.1
			l0.3-4.2c0.1-0.7,0-1.3-0.1-1.8l1,0.1C114.3,236.2,114.3,236.6,114.3,237.2z M114.2,238.4L114,241c0.3,0.1,0.7,0.2,1,0.2
			c0.6,0,1.1-0.1,1.6-0.6c0.4-0.4,0.7-1.1,0.8-1.9c0-0.6,0-1-0.2-1.4c-0.2-0.3-0.4-0.5-0.7-0.5c-0.3,0-0.7,0.1-1.1,0.4
			C114.9,237.5,114.5,237.9,114.2,238.4z"/>
		<path d="M102.6,234.5c0.9-0.2,1.6-0.3,2.3-0.2c0.5,0.1,1,0.3,1.4,0.7c0.4,0.3,0.6,0.8,0.8,1.3c0.2,0.5,0.2,1.1,0.1,1.6
			c-0.1,0.5-0.3,1-0.6,1.5c-0.3,0.5-0.7,0.8-1.2,1c-0.5,0.2-1,0.3-1.5,0.2c-0.7-0.1-1.2-0.5-1.6-1.1c-0.3-0.6-0.4-1.4-0.2-2.4l0-0.2
			l4.1,0.7c0.1-0.4,0.1-0.8-0.1-1.2c-0.1-0.4-0.3-0.7-0.5-0.9c-0.2-0.2-0.5-0.4-0.9-0.4c-0.6-0.1-1.4,0-2.2,0.3L102.6,234.5z
			 M106,238.4l-2.9-0.5l0,0.1c-0.1,0.5,0,0.9,0.1,1.2c0.2,0.3,0.5,0.5,0.9,0.6c0.4,0.1,0.8,0,1.1-0.2S105.8,238.9,106,238.4z"/>
		<path d="M101.7,233.9l1.1,0.3l-3,2.5l1.5,3.3l-1.2-0.3l-1.1-2.3l-1.9,1.6l-1.1-0.3l2.7-2.2l-1.7-3.7l1.3,0.3l1.2,2.7L101.7,233.9z
			"/>
		<path d="M94.9,237.1c-0.4,0.4-0.9,0.7-1.4,0.8c-0.5,0.1-0.9,0.1-1.2,0c-0.5-0.1-0.9-0.5-1.1-1s-0.3-1.2,0-2.1
			c0.2-0.7,0.5-1.2,0.9-1.7c0.4-0.5,0.9-0.8,1.4-1c0.5-0.2,1.1-0.2,1.7,0c0.2,0.1,0.5,0.1,0.8,0.3c0.1,0,0.1,0.1,0.2,0.1l0.6-2.2
			l1,0.3l-2.3,8l-1-0.3L94.9,237.1z M95.2,235.9l0.7-2.5c-0.3-0.2-0.6-0.3-0.9-0.4c-0.6-0.2-1.1-0.1-1.7,0.3
			c-0.5,0.3-0.9,0.9-1.1,1.7c-0.2,0.6-0.2,1,0,1.4c0.1,0.4,0.3,0.6,0.6,0.6c0.3,0.1,0.7,0,1.1-0.2C94.4,236.7,94.8,236.4,95.2,235.9
			z"/>
		<path d="M87,230.2c0.9-0.1,1.7,0,2.3,0.2c0.5,0.2,0.9,0.5,1.2,0.8s0.5,0.9,0.6,1.4c0.1,0.6,0,1.1-0.1,1.6c-0.2,0.5-0.5,1-0.9,1.4
			c-0.4,0.4-0.8,0.7-1.3,0.8c-0.5,0.1-1,0.1-1.5-0.1c-0.7-0.2-1.1-0.6-1.4-1.3s-0.2-1.4,0.1-2.4l0.1-0.2l3.9,1.3
			c0.1-0.4,0.2-0.8,0.1-1.2s-0.2-0.7-0.4-1c-0.2-0.3-0.5-0.4-0.8-0.6c-0.6-0.2-1.4-0.2-2.2-0.1L87,230.2z M89.8,234.4l-2.8-1l0,0.1
			c-0.2,0.5-0.2,0.9,0,1.2c0.1,0.4,0.4,0.6,0.8,0.7c0.4,0.1,0.8,0.1,1.1-0.1C89.2,235.3,89.5,235,89.8,234.4z"/>
		<path d="M86.3,229.4l-2.2,5.6l-0.9-0.4l0.5-1.2c-0.5,0.3-0.9,0.6-1.4,0.6c-0.5,0.1-0.9,0-1.4-0.1c-0.3-0.1-0.7-0.3-1-0.6l0.8-2
			l0.9,0.4l-0.5,1.3c0.1,0.1,0.3,0.1,0.4,0.2c0.3,0.1,0.7,0.1,1.2,0c0.4-0.1,0.9-0.4,1.5-0.9l1.3-3.2L86.3,229.4z"/>
		<path d="M77,234.5c-0.1,0.2-0.2,0.3-0.4,0.4c-0.2,0-0.3,0-0.5,0c-0.1-0.1-0.2-0.2-0.3-0.3c-0.1-0.2-0.1-0.3,0-0.6
			c0.1-0.2,0.2-0.3,0.4-0.4c0.2,0,0.3,0,0.5,0c0.1,0.1,0.2,0.2,0.3,0.3C77.1,234.1,77.1,234.3,77,234.5z M80.2,227l-2.1,4.7l1.5,0.7
			l-0.3,0.8l-2.4-1.1l2.1-4.7l-1.5-0.7l0.3-0.8L80.2,227z"/>
		<path d="M72.2,223.5c0.9,0,1.6,0.2,2.3,0.5c0.5,0.2,0.9,0.6,1.1,1s0.4,0.9,0.4,1.5s-0.1,1.1-0.4,1.6c-0.2,0.5-0.6,0.9-1,1.2
			c-0.4,0.3-0.9,0.5-1.4,0.6c-0.5,0.1-1,0-1.5-0.3c-0.6-0.3-1-0.8-1.2-1.5c-0.2-0.6,0-1.4,0.5-2.4l0.1-0.2l3.7,1.9
			c0.2-0.4,0.3-0.7,0.3-1.1c0-0.4-0.1-0.7-0.3-1s-0.4-0.5-0.7-0.7c-0.6-0.3-1.3-0.4-2.2-0.4L72.2,223.5z M74.3,228.2l-2.7-1.4
			l-0.1,0.1c-0.2,0.4-0.3,0.8-0.2,1.2c0.1,0.4,0.3,0.6,0.7,0.8c0.4,0.2,0.7,0.2,1.1,0.1C73.5,228.9,73.9,228.6,74.3,228.2z"/>
		<path d="M72,223l-3,5.2l-0.9-0.5l0.6-1.1c-0.5,0.3-1,0.4-1.4,0.4s-0.9-0.1-1.2-0.3c-0.3-0.2-0.5-0.4-0.7-0.7
			c-0.2-0.3-0.2-0.6-0.2-0.9c0-0.3,0.3-0.9,0.7-1.6l1.7-2.9l0.9,0.5l-1.7,3c-0.3,0.5-0.5,0.8-0.5,1c0,0.2,0,0.4,0,0.5
			c0.1,0.2,0.2,0.3,0.3,0.4c0.3,0.2,0.7,0.2,1.2,0.1c0.5-0.1,1-0.3,1.5-0.6l1.7-3L72,223z"/>
		<path d="M63,217.7c0.7,0.2,1.3,0.4,1.8,0.7c0.5,0.3,0.9,0.7,1.1,1.2c0.2,0.5,0.3,1,0.3,1.5c0,0.5-0.2,1.1-0.5,1.6
			c-0.5,0.8-1.1,1.2-2,1.4c-0.8,0.2-1.6,0.1-2.3-0.4c-0.5-0.3-1-0.8-1.5-1.4l0.5-0.8c0.4,0.6,0.9,1.1,1.3,1.4c0.3,0.2,0.6,0.3,1,0.3
			s0.7-0.1,1.1-0.3c0.4-0.2,0.6-0.5,0.9-0.9c0.3-0.5,0.4-1,0.4-1.6s-0.3-1.1-0.9-1.5c-0.2-0.1-0.4-0.2-0.6-0.3
			c-0.2-0.1-0.6-0.2-1.2-0.3L63,217.7z"/>
		<path d="M58.5,214.8c0.9,0.2,1.6,0.4,2.2,0.8c0.4,0.3,0.8,0.7,1,1.2s0.2,1,0.2,1.5s-0.3,1.1-0.6,1.5c-0.3,0.4-0.7,0.8-1.2,1.1
			c-0.5,0.3-1,0.4-1.5,0.4c-0.5,0-1-0.2-1.4-0.5c-0.6-0.4-0.9-0.9-1-1.6c-0.1-0.7,0.2-1.4,0.8-2.3l0.1-0.2l3.4,2.4
			c0.2-0.3,0.4-0.7,0.4-1.1c0.1-0.4,0-0.7-0.1-1c-0.1-0.3-0.3-0.6-0.6-0.8c-0.5-0.4-1.2-0.6-2.1-0.7L58.5,214.8z M59.9,219.7
			l-2.4-1.7l-0.1,0.1c-0.3,0.4-0.4,0.8-0.4,1.2c0,0.4,0.2,0.7,0.5,0.9c0.3,0.2,0.7,0.3,1.1,0.2S59.4,220.1,59.9,219.7z"/>
		<path d="M54.4,212.8c0.5-0.2,1.1-0.3,1.6-0.2c0.5,0.1,0.9,0.2,1.2,0.4c0.4,0.3,0.6,0.8,0.7,1.3c0,0.6-0.2,1.2-0.7,1.9
			c-0.4,0.5-0.9,1-1.5,1.2c-0.5,0.3-1.1,0.4-1.6,0.4c-0.5,0-1.1-0.2-1.6-0.6c-0.1-0.1-0.4-0.3-0.6-0.6c0,0-0.1-0.1-0.2-0.2l-1.6,2.1
			l-0.8-0.6l5.3-6.8l0.8,0.6L54.4,212.8z M53.6,213.8l-1.6,2c0.2,0.3,0.5,0.5,0.7,0.7c0.5,0.4,1,0.5,1.7,0.4
			c0.6-0.1,1.2-0.5,1.7-1.2c0.4-0.5,0.6-0.9,0.6-1.3c0-0.4-0.1-0.7-0.3-0.8c-0.2-0.2-0.6-0.3-1.1-0.3S54.2,213.5,53.6,213.8z"/>
		<path d="M46.2,205.6c0.6-0.2,1.1-0.2,1.6-0.1c0.5,0.1,0.9,0.3,1.1,0.5c0.4,0.3,0.5,0.8,0.5,1.4c0,0.6-0.3,1.2-0.9,1.8
			c-0.5,0.5-1,0.9-1.6,1.1c-0.6,0.2-1.1,0.3-1.7,0.2c-0.5-0.1-1-0.3-1.5-0.8c-0.1-0.1-0.3-0.3-0.6-0.6c0,0-0.1-0.1-0.2-0.2l-1.8,1.9
			l-0.7-0.7l6-6.3l0.7,0.7L46.2,205.6z M45.4,206.5l-1.8,1.9c0.2,0.3,0.4,0.6,0.6,0.8c0.4,0.4,1,0.6,1.6,0.5c0.6-0.1,1.2-0.4,1.8-1
			c0.4-0.4,0.6-0.8,0.7-1.2c0-0.4,0-0.7-0.2-0.9c-0.2-0.2-0.6-0.3-1.1-0.4C46.5,206.2,46,206.3,45.4,206.5z"/>
		<path d="M42.4,200.3c0.8,0.3,1.5,0.7,2,1.2c0.4,0.4,0.6,0.8,0.7,1.3c0.1,0.5,0.1,1-0.1,1.5s-0.5,1-0.9,1.4
			c-0.4,0.4-0.9,0.7-1.4,0.8c-0.5,0.2-1.1,0.2-1.6,0.1c-0.5-0.1-0.9-0.4-1.3-0.8c-0.5-0.5-0.7-1.1-0.6-1.8c0.1-0.7,0.5-1.4,1.3-2.1
			l0.2-0.1l2.9,3c0.3-0.3,0.5-0.6,0.6-1s0.2-0.7,0.1-1c-0.1-0.3-0.2-0.6-0.5-0.9c-0.4-0.5-1.1-0.8-1.9-1.1L42.4,200.3z M42.9,205.4
			l-2.1-2.2l-0.1,0.1c-0.4,0.3-0.6,0.7-0.6,1.1c0,0.4,0.1,0.7,0.3,1c0.3,0.3,0.6,0.4,1,0.5S42.4,205.7,42.9,205.4z"/>
		<path d="M42.1,199.9l-0.8,0.7c-0.1-0.5-0.2-0.9-0.4-1.3c-0.2-0.4-0.4-0.7-0.6-1c-0.3-0.4-0.6-0.6-0.9-0.7c-0.3-0.1-0.5,0-0.7,0.1
			c-0.1,0.1-0.2,0.2-0.2,0.4c0,0.2,0,0.4,0.2,0.9l0.1,0.4l0.2,0.7c0.3,0.8,0.4,1.3,0.3,1.6c-0.1,0.3-0.2,0.6-0.5,0.8
			c-0.4,0.3-0.8,0.4-1.3,0.4c-0.5-0.1-1-0.4-1.6-1.1c-0.4-0.5-0.7-1-1-1.6l0.7-0.6c0.3,0.7,0.6,1.2,1,1.6c0.3,0.3,0.5,0.5,0.8,0.6
			c0.3,0.1,0.5,0.1,0.7-0.1c0.2-0.1,0.2-0.3,0.2-0.6c0-0.2-0.1-0.6-0.3-1l-0.3-0.7c-0.2-0.6-0.3-1.1-0.3-1.5c0-0.4,0.2-0.7,0.5-0.9
			c0.4-0.3,0.8-0.5,1.4-0.4s1.1,0.5,1.6,1.1C41.5,198.4,41.9,199.1,42.1,199.9z"/>
		<path d="M31.5,199.5c-0.2,0.1-0.4,0.2-0.5,0.1s-0.3-0.1-0.4-0.2c-0.1-0.1-0.1-0.3-0.1-0.5c0-0.2,0.1-0.4,0.3-0.5
			c0.2-0.1,0.4-0.2,0.5-0.1c0.2,0.1,0.3,0.1,0.4,0.2c0.1,0.1,0.1,0.3,0.1,0.4C31.8,199.2,31.7,199.4,31.5,199.5z M37.9,194.3
			l-4.1,3.2l1,1.3l-0.7,0.5l-1.6-2.1l4.1-3.2l-1-1.3l0.7-0.5L37.9,194.3z"/>
		<path d="M32.2,188.9c0.6,0,1.1,0,1.6,0.2c0.5,0.2,0.8,0.4,1,0.7c0.3,0.4,0.4,0.9,0.3,1.5c-0.1,0.6-0.5,1.1-1.3,1.6
			c-0.6,0.4-1.1,0.7-1.7,0.8c-0.6,0.1-1.2,0.1-1.7-0.1c-0.5-0.2-1-0.5-1.3-1.1c-0.1-0.2-0.3-0.4-0.4-0.7c0,0-0.1-0.1-0.1-0.2
			l-0.6-0.8l3.5-2.5c0.8-0.6,1.3-0.9,1.5-1s0.4-0.2,0.6-0.3c0.5-0.2,1-0.2,1.6,0.1c0.5,0.2,1,0.7,1.5,1.2c0.4,0.6,0.7,1.3,0.8,2.1
			l-0.8,0.6c0-0.3-0.1-0.7-0.2-1.2c-0.1-0.4-0.3-0.8-0.5-1.1c-0.2-0.2-0.4-0.5-0.6-0.6c-0.2-0.2-0.5-0.3-0.7-0.3
			c-0.2,0-0.5,0-0.7,0.1c-0.2,0.1-0.5,0.3-0.8,0.5L32.2,188.9z M31.2,189.6l-2.1,1.5c0.1,0.3,0.3,0.6,0.5,0.9
			c0.4,0.5,0.8,0.8,1.5,0.8c0.6,0.1,1.3-0.2,1.9-0.6c0.5-0.3,0.8-0.7,0.9-1.1c0.1-0.4,0.1-0.7-0.1-0.9c-0.2-0.3-0.5-0.4-1-0.6
			C32.3,189.6,31.8,189.5,31.2,189.6z"/>
		<path d="M32.5,187l-5.1,3.2l-0.5-0.8l1.1-0.7c-0.5,0-1-0.1-1.5-0.3c-0.4-0.2-0.8-0.5-1-0.8c-0.2-0.3-0.3-0.6-0.3-1
			c0-0.3,0.1-0.6,0.3-0.9c0.2-0.3,0.7-0.6,1.4-1.1l2.8-1.8l0.5,0.8l-2.9,1.9c-0.5,0.3-0.8,0.5-0.9,0.7c-0.1,0.1-0.2,0.3-0.2,0.5
			c0,0.2,0,0.4,0.1,0.5c0.2,0.3,0.5,0.5,1,0.7c0.5,0.2,1,0.2,1.6,0.2l2.9-1.9L32.5,187z"/>
		<path d="M26.7,178.3c0.7,0.5,1.3,1.1,1.6,1.7c0.3,0.5,0.4,1,0.4,1.5c0,0.5-0.2,1-0.5,1.5c-0.3,0.5-0.7,0.8-1.2,1.1
			c-0.5,0.3-1,0.4-1.6,0.5c-0.6,0-1.1-0.1-1.5-0.3s-0.8-0.6-1.1-1.1c-0.4-0.6-0.4-1.2-0.2-1.9c0.2-0.6,0.8-1.2,1.7-1.7l0.2-0.1
			l2.1,3.6c0.4-0.2,0.6-0.5,0.9-0.8c0.2-0.3,0.3-0.6,0.3-1c0-0.3-0.1-0.7-0.3-1c-0.3-0.6-0.9-1.1-1.6-1.5L26.7,178.3z M26,183.4
			l-1.5-2.6l-0.1,0.1c-0.4,0.2-0.7,0.5-0.8,0.9c-0.1,0.4-0.1,0.7,0.1,1c0.2,0.4,0.5,0.6,0.9,0.7C24.9,183.6,25.4,183.5,26,183.4z"/>
		<path d="M26.6,177.3l-5.3,2.7l-0.5-0.9l1.2-0.6c-0.6-0.1-1.1-0.2-1.5-0.4c-0.4-0.2-0.7-0.6-0.9-1c-0.2-0.3-0.3-0.7-0.3-1l1.9-1
			l0.4,0.9l-1.2,0.6c0.1,0.2,0.1,0.3,0.1,0.4c0.2,0.3,0.5,0.6,0.9,0.8c0.4,0.2,1,0.3,1.7,0.3l3.1-1.6L26.6,177.3z"/>
		<path d="M22.2,167.8l-5.2,3.1l-0.3-0.9l3.2-1.9l0.7-0.4l-0.8,0.2l-3.7,0.4l-0.3-0.8l3-2.3l0.7-0.5l-0.8,0.2l-3.6,0.8l-0.3-0.7
			l5.9-1.3l0.3,0.9l-3.2,2.5l-0.7,0.5l0,0l0.8-0.2l4-0.5L22.2,167.8z"/>
		<path d="M20.3,163l-8.2,2.8l-0.3-0.9l3.8-1.3c-0.5-0.1-1-0.3-1.4-0.6c-0.4-0.3-0.6-0.6-0.8-1c-0.1-0.3-0.1-0.6-0.1-1
			s0.2-0.6,0.4-0.8c0.1-0.1,0.3-0.3,0.5-0.4c0.2-0.1,0.6-0.3,1.2-0.5l3.2-1.1l0.3,0.9l-3.3,1.1c-0.5,0.2-0.9,0.3-1.1,0.4
			s-0.3,0.3-0.3,0.4s-0.1,0.4,0,0.5c0.1,0.3,0.4,0.6,0.8,0.9c0.4,0.3,0.9,0.5,1.5,0.5l3.3-1.1L20.3,163z"/>
		<path d="M18,155.5c0.2,0.8,0.1,1.6-0.3,2.2c-0.4,0.7-1.1,1.1-2,1.4c-0.9,0.2-1.7,0.2-2.4-0.1c-0.7-0.3-1.2-0.9-1.4-1.7
			c-0.2-0.8-0.1-1.6,0.3-2.2c0.4-0.7,1.1-1.1,2-1.4c0.9-0.2,1.7-0.2,2.4,0.1C17.3,154.1,17.8,154.7,18,155.5z M17.2,155.7
			c-0.1-0.5-0.5-0.9-0.9-1.1c-0.5-0.2-1.1-0.2-1.8,0c-0.7,0.2-1.2,0.5-1.5,0.9c-0.3,0.4-0.4,0.9-0.3,1.4c0.1,0.5,0.5,0.9,0.9,1.1
			c0.5,0.2,1.1,0.2,1.8,0c0.7-0.2,1.2-0.5,1.5-0.9C17.3,156.7,17.4,156.2,17.2,155.7z"/>
		<path d="M14.8,142.6c0.3,0.6,0.6,1.2,0.7,1.8c0.1,0.6,0.1,1.1-0.1,1.7s-0.5,0.9-0.9,1.3c-0.4,0.3-0.9,0.6-1.5,0.7
			c-0.9,0.2-1.7,0-2.4-0.5s-1.1-1.1-1.3-2c-0.1-0.6-0.1-1.3,0-2l0.9-0.2c-0.2,0.7-0.2,1.4-0.1,1.9c0.1,0.4,0.2,0.7,0.5,1
			c0.2,0.3,0.6,0.5,1,0.6c0.4,0.1,0.8,0.1,1.2,0c0.5-0.1,1-0.4,1.4-0.8c0.4-0.4,0.6-1,0.4-1.7c0-0.2-0.1-0.4-0.2-0.6
			c-0.1-0.2-0.2-0.6-0.5-1.1L14.8,142.6z"/>
		<path d="M13.1,138.5c0.5,0.2,1,0.6,1.3,0.9c0.3,0.4,0.5,0.8,0.5,1.1c0.1,0.5-0.1,1-0.5,1.4c-0.4,0.5-1,0.7-1.9,0.9
			c-0.7,0.1-1.3,0-1.9-0.1c-0.6-0.2-1-0.5-1.4-0.9c-0.4-0.4-0.6-0.9-0.7-1.6c0-0.2,0-0.5-0.1-0.9c0-0.1,0-0.1,0-0.3l-0.1-1l4.2-0.6
			c0.7-0.1,1.3-0.2,1.7-0.5l0.1,1C14.1,138.2,13.6,138.3,13.1,138.5z M11.9,138.6L9.4,139c0,0.4-0.1,0.7,0,1
			c0.1,0.6,0.4,1.1,0.9,1.4c0.5,0.3,1.2,0.5,2,0.4c0.6-0.1,1-0.2,1.3-0.5c0.3-0.3,0.4-0.5,0.3-0.8c0-0.3-0.2-0.6-0.6-1
			S12.5,138.8,11.9,138.6z"/>
		<path d="M14.2,136.8l-6,0.5l-0.1-1l1.3-0.1c-0.5-0.2-0.9-0.6-1.2-0.9c-0.3-0.4-0.5-0.8-0.5-1.2c0-0.4,0-0.7,0.2-1
			c0.2-0.3,0.4-0.5,0.7-0.7c0.3-0.1,0.9-0.2,1.8-0.3l3.3-0.3l0.1,1l-3.5,0.3c-0.6,0-1,0.1-1.1,0.2c-0.2,0.1-0.3,0.2-0.4,0.3
			c-0.1,0.2-0.2,0.3-0.1,0.5c0,0.4,0.2,0.7,0.6,1.1c0.4,0.4,0.8,0.7,1.3,0.9l3.5-0.3L14.2,136.8z"/>
		<path d="M13.6,126.1L4.9,126l0-1l4,0.1c-0.5-0.3-0.8-0.6-1.1-1.1c-0.3-0.4-0.4-0.8-0.4-1.2c0-0.3,0.1-0.7,0.3-0.9
			c0.2-0.3,0.4-0.5,0.6-0.6c0.2-0.1,0.4-0.1,0.6-0.2c0.2,0,0.7,0,1.3,0l3.4,0.1l0,1l-3.5-0.1c-0.6,0-1,0-1.1,0.1
			c-0.2,0.1-0.3,0.2-0.5,0.3c-0.1,0.1-0.2,0.3-0.2,0.5c0,0.4,0.2,0.7,0.5,1.1c0.3,0.4,0.7,0.7,1.2,1l3.5,0.1L13.6,126.1z"/>
		<path d="M13.6,115.7c0.3,0.8,0.5,1.6,0.4,2.3c0,0.5-0.2,1-0.5,1.4s-0.7,0.7-1.2,1c-0.5,0.2-1.1,0.3-1.6,0.3
			c-0.5,0-1.1-0.2-1.6-0.5c-0.5-0.3-0.9-0.6-1.1-1.1c-0.3-0.5-0.4-0.9-0.3-1.5c0-0.7,0.3-1.3,0.9-1.7c0.5-0.4,1.3-0.6,2.4-0.5l0.2,0
			l-0.2,4.1c0.4,0,0.8,0,1.2-0.2s0.6-0.4,0.8-0.6c0.2-0.3,0.3-0.6,0.3-0.9c0-0.6-0.1-1.4-0.5-2.2L13.6,115.7z M10.2,119.5l0.2-3
			l-0.1,0c-0.5,0-0.9,0.1-1.2,0.3s-0.5,0.5-0.5,0.9c0,0.4,0.1,0.8,0.4,1.1C9.2,119.1,9.6,119.3,10.2,119.5z"/>
		<path d="M14.2,113.7l-7.8-0.8l-0.2,1.8l-0.8-0.1l0.3-2.8l7.8,0.8l0.2-1.9l0.8,0.1L14.2,113.7z"/>
		<path d="M10.2,108.3c-0.4-0.4-0.8-0.8-0.9-1.3c-0.2-0.5-0.2-0.9-0.2-1.2c0.1-0.5,0.4-0.9,0.9-1.2c0.5-0.3,1.2-0.4,2-0.3
			c0.7,0.1,1.3,0.3,1.8,0.7c0.5,0.3,0.9,0.8,1.1,1.3c0.2,0.5,0.3,1.1,0.2,1.7c0,0.2-0.1,0.5-0.2,0.8c0,0.1,0,0.1-0.1,0.3l2.3,0.4
			l-0.2,1l-8.2-1.3l0.2-1L10.2,108.3z M11.4,108.5l2.5,0.4c0.1-0.3,0.2-0.7,0.3-1c0.1-0.6-0.1-1.1-0.5-1.6c-0.4-0.5-1-0.8-1.8-0.9
			c-0.6-0.1-1.1-0.1-1.4,0.1s-0.5,0.4-0.6,0.7c0,0.3,0.1,0.7,0.3,1.1C10.5,107.7,10.9,108.1,11.4,108.5z"/>
		<path d="M16.9,97.2l-6.3,1.2l0.3-1.1l4.9-1l-3.9-2.9l0.3-1l4.8,3.6c1,0.8,1.7,1.4,1.9,1.9c0.3,0.5,0.3,1.1,0.1,1.8
			c-0.1,0.3-0.2,0.6-0.3,0.8l-0.9-0.2c0.2-0.2,0.3-0.5,0.3-0.7c0.1-0.3,0.1-0.6,0-0.9c-0.1-0.3-0.2-0.6-0.5-0.8
			c-0.3-0.3-0.5-0.5-0.7-0.6L16.9,97.2z"/>
		<path d="M18.8,91.8c-0.3,0.8-0.7,1.4-1.5,1.7c-0.7,0.3-1.5,0.3-2.4,0.1c-0.9-0.3-1.5-0.7-1.9-1.4c-0.4-0.7-0.5-1.4-0.2-2.2
			c0.3-0.8,0.7-1.4,1.5-1.7c0.7-0.3,1.5-0.3,2.4-0.1c0.9,0.3,1.5,0.7,1.9,1.4C19,90.3,19.1,91,18.8,91.8z M18.1,91.6
			c0.2-0.5,0.1-1-0.2-1.4c-0.3-0.4-0.8-0.7-1.5-1c-0.7-0.2-1.3-0.2-1.8-0.1c-0.5,0.2-0.8,0.5-1,1c-0.2,0.5-0.1,1,0.2,1.4
			c0.3,0.4,0.8,0.7,1.5,1c0.7,0.2,1.3,0.2,1.8,0.1S17.9,92.1,18.1,91.6z"/>
		<path d="M15.6,82.3l5.6,2.1l-0.3,0.9l-1.2-0.5c0.4,0.5,0.6,0.9,0.7,1.4s0.1,0.9-0.1,1.2c-0.1,0.3-0.3,0.6-0.6,0.8
			c-0.3,0.2-0.6,0.3-0.9,0.3c-0.3,0-0.9-0.2-1.7-0.5L13.9,87l0.3-0.9l3.3,1.2c0.5,0.2,0.9,0.3,1.1,0.3c0.2,0,0.4,0,0.5-0.1
			c0.2-0.1,0.3-0.2,0.3-0.4c0.1-0.3,0.1-0.7-0.1-1.2c-0.2-0.5-0.4-0.9-0.8-1.4l-3.3-1.2L15.6,82.3z"/>
		<path d="M23.3,78.8l-1-0.5c0.4-0.2,0.8-0.6,1-0.9c0.3-0.4,0.5-0.7,0.6-1c0.2-0.5,0.3-0.8,0.3-1.1c-0.1-0.3-0.2-0.5-0.4-0.6
			c-0.1-0.1-0.3-0.1-0.4,0c-0.1,0-0.4,0.2-0.7,0.5l-0.3,0.3l-0.5,0.5c-0.6,0.5-1,0.9-1.3,0.9c-0.3,0.1-0.6,0-0.9-0.1
			c-0.4-0.2-0.7-0.6-0.9-1c-0.1-0.5,0-1.1,0.4-1.9c0.3-0.6,0.6-1.1,1-1.5l0.8,0.4c-0.5,0.5-0.9,1-1.1,1.5c-0.2,0.4-0.3,0.7-0.2,1
			s0.1,0.5,0.3,0.6c0.2,0.1,0.4,0.1,0.6-0.1c0.2-0.1,0.5-0.4,0.8-0.7l0.5-0.5c0.5-0.5,0.9-0.7,1.2-0.9c0.3-0.1,0.7-0.1,1.1,0.1
			c0.5,0.2,0.8,0.6,0.9,1.1c0.1,0.5,0,1.2-0.4,1.9C24.4,77.6,23.9,78.2,23.3,78.8z"/>
		<path d="M27.2,72.1c-0.4,0.8-1,1.2-1.8,1.4s-1.6,0-2.4-0.4c-0.8-0.4-1.3-1-1.6-1.8c-0.3-0.7-0.2-1.5,0.2-2.2
			c0.4-0.8,1-1.2,1.8-1.4s1.6,0,2.4,0.4c0.8,0.4,1.3,1,1.6,1.8C27.7,70.6,27.6,71.3,27.2,72.1z M26.5,71.7c0.3-0.5,0.3-0.9,0.1-1.4
			c-0.2-0.5-0.6-0.9-1.3-1.2c-0.6-0.3-1.2-0.5-1.7-0.4c-0.5,0.1-0.9,0.4-1.2,0.8c-0.3,0.5-0.3,0.9-0.1,1.4c0.2,0.5,0.6,0.9,1.3,1.2
			c0.6,0.3,1.2,0.5,1.7,0.4C25.8,72.4,26.2,72.1,26.5,71.7z"/>
		<path d="M29.3,68L22.6,64l-0.9,1.5L21,65.1l1.4-2.4l6.7,4.1l1-1.6l0.7,0.4L29.3,68z"/>
		<path d="M32.4,63.2L25.9,62l0.6-0.9l5.1,1l-2.8-4.4l0.6-0.8l3.5,5.5L32.4,63.2z"/>
		<path d="M37,56.1c-0.2,0.9-0.5,1.6-0.9,2.2c-0.3,0.4-0.7,0.7-1.2,0.9c-0.5,0.2-1,0.2-1.5,0.1c-0.6-0.1-1.1-0.3-1.5-0.7
			c-0.4-0.3-0.8-0.7-1-1.2s-0.4-1-0.3-1.5c0-0.5,0.2-1,0.5-1.4c0.4-0.6,1-0.9,1.6-0.9c0.7,0,1.4,0.3,2.3,0.9l0.2,0.1l-2.5,3.3
			c0.3,0.2,0.7,0.4,1.1,0.5c0.4,0.1,0.7,0,1-0.1c0.3-0.1,0.6-0.3,0.8-0.6c0.4-0.5,0.6-1.2,0.8-2.1L37,56.1z M32,57.4l1.8-2.4
			l-0.1-0.1c-0.4-0.3-0.8-0.4-1.2-0.4c-0.4,0-0.7,0.2-0.9,0.5c-0.2,0.3-0.3,0.7-0.3,1.1C31.4,56.5,31.7,56.9,32,57.4z"/>
		<path d="M42.7,48c0.2,0.6,0.2,1.1,0.1,1.6c-0.1,0.5-0.3,0.9-0.5,1.1c-0.3,0.4-0.8,0.6-1.4,0.6c-0.6,0-1.2-0.3-1.9-0.9
			c-0.5-0.5-0.9-1-1.1-1.5s-0.3-1.1-0.2-1.7c0.1-0.5,0.3-1.1,0.8-1.5c0.1-0.1,0.3-0.3,0.6-0.6c0,0,0.1-0.1,0.2-0.2l0.7-0.7l6.2,5.6
			l-0.7,0.7L42.7,48z M41.8,47.2l-1.9-1.7c-0.3,0.2-0.6,0.4-0.8,0.6c-0.4,0.5-0.6,1-0.5,1.6c0.1,0.6,0.4,1.2,1,1.8
			c0.4,0.4,0.8,0.6,1.2,0.7c0.4,0,0.7,0,0.8-0.3c0.2-0.2,0.3-0.6,0.3-1.1C42.1,48.3,42,47.8,41.8,47.2z"/>
		<path d="M43.9,40.2l4.2,4.2l-0.7,0.7l-0.9-0.9c0.1,0.6,0.1,1.1,0,1.5s-0.3,0.8-0.6,1.1c-0.2,0.2-0.5,0.4-0.9,0.5
			c-0.3,0.1-0.7,0-1-0.1c-0.3-0.1-0.8-0.5-1.4-1.1l-2.4-2.4L41,43l2.5,2.5c0.4,0.4,0.7,0.7,0.9,0.7c0.2,0.1,0.3,0.1,0.5,0.1
			c0.2,0,0.3-0.1,0.5-0.2c0.2-0.2,0.4-0.6,0.5-1.2c0.1-0.5,0-1.1-0.2-1.6l-2.5-2.5L43.9,40.2z"/>
		<path d="M51.9,40.4c-0.3,0.8-0.8,1.5-1.3,1.9c-0.4,0.4-0.9,0.6-1.3,0.7c-0.5,0.1-1,0-1.5-0.2s-1-0.5-1.4-0.9
			c-0.4-0.4-0.6-0.9-0.8-1.4s-0.2-1.1,0-1.6c0.1-0.5,0.4-0.9,0.8-1.3c0.5-0.5,1.1-0.7,1.8-0.6c0.7,0.1,1.3,0.5,2.1,1.3l0.1,0.2
			l-3.1,2.8c0.3,0.3,0.6,0.5,1,0.7c0.4,0.1,0.7,0.2,1,0.1c0.3-0.1,0.6-0.2,0.9-0.5c0.5-0.4,0.9-1.1,1.2-1.9L51.9,40.4z M46.8,40.8
			l2.2-2l-0.1-0.1c-0.3-0.4-0.7-0.6-1.1-0.6c-0.4-0.1-0.7,0.1-1,0.3c-0.3,0.3-0.5,0.6-0.5,1S46.5,40.3,46.8,40.8z"/>
		<path d="M52.3,40.2l-0.7-0.8c0.5-0.1,0.9-0.2,1.3-0.4s0.7-0.4,1-0.6c0.4-0.3,0.6-0.6,0.7-0.9c0.1-0.3,0-0.5-0.1-0.7
			c-0.1-0.1-0.2-0.2-0.4-0.2c-0.2,0-0.4,0-0.9,0.2l-0.4,0.1l-0.7,0.2c-0.8,0.2-1.3,0.3-1.6,0.3c-0.3-0.1-0.6-0.2-0.8-0.5
			c-0.3-0.4-0.4-0.8-0.3-1.3c0.1-0.5,0.5-1,1.1-1.5c0.5-0.4,1-0.7,1.6-0.9l0.6,0.7c-0.7,0.2-1.2,0.5-1.7,0.9
			c-0.3,0.3-0.5,0.5-0.6,0.8c-0.1,0.3-0.1,0.5,0.1,0.7c0.1,0.2,0.3,0.2,0.6,0.2s0.6-0.1,1.1-0.3l0.7-0.2c0.6-0.2,1.1-0.3,1.5-0.3
			c0.4,0,0.7,0.2,0.9,0.5c0.3,0.4,0.4,0.9,0.4,1.4c-0.1,0.5-0.5,1-1.2,1.6C53.9,39.5,53.2,39.9,52.3,40.2z"/>
		<path d="M60.5,33.9c-0.3,0.4-0.5,0.7-0.6,0.9c-0.1,0.2-0.3,0.3-0.5,0.4c-0.3,0.2-0.7,0.4-1.1,0.5c-0.4,0.1-0.7,0-1.1-0.1
			c-0.3-0.1-0.7-0.5-1.1-1l-1.4-1.9l-1.2,0.9l-0.5-0.7l1.2-0.9L52.9,30l0.8-0.6l1.4,1.9l2.1-1.6l0.5,0.7L55.6,32l1.4,1.9
			c0.3,0.4,0.5,0.6,0.8,0.7c0.2,0.1,0.4,0.1,0.6,0.1c0.2,0,0.4-0.1,0.6-0.3c0.4-0.3,0.7-0.7,1-1.3L60.5,33.9z"/>
		<path d="M57.7,26.2c-0.1-0.2-0.2-0.4-0.1-0.5c0.1-0.2,0.2-0.3,0.3-0.4c0.1-0.1,0.3-0.1,0.5-0.1c0.2,0,0.3,0.1,0.5,0.3
			s0.2,0.4,0.1,0.5c-0.1,0.2-0.2,0.3-0.3,0.4c-0.1,0.1-0.3,0.1-0.5,0.1C58,26.5,57.8,26.4,57.7,26.2z M62.4,32.9l-2.9-4.3l-1.4,0.9
			l-0.5-0.7l2.2-1.5l2.9,4.3l1.4-0.9l0.5,0.7L62.4,32.9z"/>
		<path d="M67.7,29.7c-0.7,0.4-1.5,0.5-2.2,0.3c-0.8-0.2-1.4-0.8-1.8-1.5c-0.5-0.8-0.6-1.6-0.5-2.3c0.1-0.8,0.6-1.4,1.3-1.8
			c0.7-0.4,1.5-0.5,2.2-0.3c0.7,0.2,1.4,0.8,1.8,1.5c0.5,0.8,0.6,1.6,0.5,2.3C68.9,28.7,68.4,29.3,67.7,29.7z M67.3,29
			c0.5-0.3,0.7-0.7,0.8-1.2s-0.1-1.1-0.5-1.7c-0.4-0.6-0.8-1-1.3-1.2s-1-0.2-1.4,0.1c-0.5,0.3-0.7,0.7-0.8,1.2s0.1,1.1,0.5,1.7
			c0.4,0.6,0.8,1,1.3,1.2C66.3,29.3,66.8,29.3,67.3,29z"/>
		<path d="M70.1,28.1l-2.8-5.3l0.9-0.5l0.6,1.2c0-0.5,0.2-1,0.4-1.4c0.2-0.4,0.5-0.7,0.9-0.9c0.3-0.2,0.6-0.2,1-0.2
			c0.3,0,0.6,0.1,0.9,0.4s0.6,0.7,1,1.5l1.6,3l-0.9,0.5L72,23.1c-0.3-0.5-0.5-0.8-0.6-1c-0.1-0.1-0.3-0.2-0.5-0.3
			c-0.2,0-0.4,0-0.5,0.1c-0.3,0.2-0.6,0.5-0.8,1c-0.2,0.5-0.3,1-0.3,1.6l1.7,3.1L70.1,28.1z"/>
		<path d="M82,22.4c-0.8,0.3-1.5,0.3-2.3,0s-1.2-1-1.6-1.8c-0.4-0.8-0.4-1.6-0.2-2.4c0.2-0.8,0.8-1.3,1.6-1.6c0.8-0.3,1.5-0.3,2.2,0
			c0.7,0.4,1.2,0.9,1.6,1.8c0.4,0.8,0.4,1.6,0.2,2.4C83.3,21.5,82.8,22.1,82,22.4z M81.7,21.7c0.5-0.2,0.8-0.6,0.9-1.1
			c0.1-0.5,0.1-1.1-0.2-1.8c-0.3-0.7-0.6-1.1-1.1-1.4c-0.5-0.3-0.9-0.3-1.4-0.1c-0.5,0.2-0.8,0.6-0.9,1.1s-0.1,1.1,0.2,1.8
			c0.3,0.7,0.6,1.1,1.1,1.4S81.2,21.9,81.7,21.7z"/>
		<path d="M84.7,21.1l-2-5.6l0.9-0.3l0.4,1.2c0.1-0.5,0.3-1,0.6-1.4c0.3-0.4,0.6-0.6,1-0.8c0.3-0.1,0.7-0.1,1-0.1
			c0.3,0.1,0.6,0.2,0.8,0.5c0.2,0.2,0.5,0.8,0.8,1.6l1.1,3.2l-0.9,0.3l-1.2-3.3c-0.2-0.5-0.4-0.9-0.5-1c-0.1-0.2-0.3-0.3-0.4-0.3
			c-0.2-0.1-0.4-0.1-0.5,0c-0.3,0.1-0.6,0.4-0.9,0.9c-0.3,0.5-0.4,1-0.5,1.5l1.2,3.3L84.7,21.1z"/>
		<path d="M94.8,17.6l-0.3-1c0.9,0.2,1.7,0.2,2.4,0c0.3-0.1,0.5-0.2,0.8-0.4c0.2-0.2,0.4-0.4,0.5-0.6c0.1-0.2,0.1-0.5,0-0.7
			c-0.1-0.3-0.2-0.5-0.5-0.7c-0.2-0.2-0.7-0.4-1.2-0.5l-0.6-0.2l-0.6-0.2c-1.1-0.3-1.7-0.9-1.9-1.7c-0.2-0.6-0.1-1.2,0.2-1.7
			c0.3-0.5,0.9-0.9,1.8-1.1c0.6-0.1,1.2-0.2,1.7-0.2l0.2,0.9c-0.7-0.1-1.3,0-1.8,0.1c-0.4,0.1-0.8,0.3-1,0.6c-0.2,0.3-0.3,0.6-0.2,1
			s0.3,0.6,0.5,0.7s0.6,0.3,1,0.4l0.5,0.1l0.6,0.2l0.5,0.1c1,0.3,1.6,0.9,1.8,1.7c0.2,0.6,0.1,1.2-0.3,1.8c-0.3,0.6-1,1-2,1.2
			c-0.3,0.1-0.6,0.1-0.9,0.2S95.3,17.6,94.8,17.6z"/>
		<path d="M103.7,14.3c-0.2,0.6-0.5,1-0.9,1.3c-0.4,0.3-0.7,0.5-1.1,0.6c-0.5,0.1-1,0-1.5-0.4c-0.5-0.3-0.8-0.9-1-1.8
			c-0.1-0.7-0.1-1.3,0-1.9c0.1-0.6,0.4-1.1,0.8-1.5c0.4-0.4,0.9-0.7,1.5-0.8c0.2,0,0.5-0.1,0.9-0.1c0.1,0,0.1,0,0.3,0l1-0.2l0.9,4.2
			c0.1,0.7,0.3,1.3,0.6,1.7l-1,0.2C104,15.3,103.9,14.8,103.7,14.3z M103.5,13.1l-0.5-2.5c-0.4,0-0.7,0-1,0.1
			c-0.6,0.1-1.1,0.5-1.4,1c-0.3,0.5-0.4,1.2-0.2,2c0.1,0.6,0.3,1,0.6,1.2c0.3,0.3,0.6,0.3,0.8,0.3c0.3-0.1,0.6-0.3,0.9-0.7
			C103,14.2,103.3,13.7,103.5,13.1z"/>
		<path d="M109.1,13.4c-0.2,0.5-0.5,1-0.9,1.3c-0.4,0.3-0.8,0.5-1.1,0.6c-0.5,0.1-1-0.1-1.4-0.4s-0.8-1-0.9-1.9
			c-0.1-0.7-0.1-1.3,0.1-1.9s0.5-1.1,0.9-1.4c0.4-0.4,0.9-0.6,1.6-0.7c0.2,0,0.5-0.1,0.9-0.1c0.1,0,0.1,0,0.3,0l1-0.2l0.6,4.2
			c0.1,0.7,0.3,1.3,0.5,1.7l-1,0.2C109.4,14.4,109.2,14,109.1,13.4z M108.9,12.2l-0.4-2.5c-0.4,0-0.7,0-1,0
			c-0.6,0.1-1.1,0.4-1.4,0.9c-0.3,0.5-0.4,1.2-0.3,2c0.1,0.6,0.3,1,0.5,1.3c0.3,0.3,0.5,0.4,0.8,0.3c0.3,0,0.6-0.3,0.9-0.6
			C108.4,13.3,108.7,12.8,108.9,12.2z"/>
		<path d="M110.8,14.3l-0.1-1c0.9,0.3,1.7,0.4,2.4,0.4c0.3,0,0.6-0.1,0.8-0.3c0.3-0.1,0.4-0.3,0.6-0.5c0.1-0.2,0.2-0.5,0.1-0.7
			c0-0.3-0.2-0.5-0.4-0.8c-0.2-0.2-0.6-0.5-1.1-0.7l-0.6-0.3l-0.6-0.3c-1-0.5-1.6-1.1-1.7-2c-0.1-0.6,0.1-1.2,0.5-1.6
			c0.4-0.5,1-0.8,2-0.9c0.6-0.1,1.2,0,1.7,0.1l0.1,0.9c-0.6-0.2-1.2-0.2-1.8-0.2c-0.5,0-0.8,0.2-1.1,0.5c-0.3,0.3-0.4,0.6-0.3,0.9
			s0.2,0.6,0.4,0.8c0.2,0.2,0.5,0.4,0.9,0.5l0.4,0.2l0.5,0.3L114,10c1,0.5,1.5,1.1,1.6,2c0.1,0.6-0.1,1.2-0.5,1.7s-1.1,0.8-2.2,0.9
			c-0.3,0-0.6,0-0.9,0C111.7,14.5,111.3,14.5,110.8,14.3z"/>
		<path d="M118.6,14.1c-0.2,0-0.5-0.1-0.6-0.2s-0.3-0.4-0.3-0.6c0-0.2,0.1-0.5,0.2-0.6c0.2-0.2,0.4-0.3,0.6-0.3
			c0.2,0,0.4,0.1,0.6,0.2c0.2,0.2,0.3,0.4,0.3,0.6c0,0.2-0.1,0.5-0.2,0.6C119.1,14,118.9,14.1,118.6,14.1z"/>
	</g>
</g>
</svg>
