<svg width="50" height="50" viewBox="0 0 50 50" fill="none" xmlns="http://www.w3.org/2000/svg">
<circle cx="25" cy="25" r="25" fill="#8C66FF"/>
<path d="M9.29289 24.2929C8.90237 24.6834 8.90237 25.3166 9.29289 25.7071L15.6569 32.0711C16.0474 32.4616 16.6805 32.4616 17.0711 32.0711C17.4616 31.6805 17.4616 31.0474 17.0711 30.6569L11.4142 25L17.0711 19.3431C17.4616 18.9526 17.4616 18.3195 17.0711 17.9289C16.6805 17.5384 16.0474 17.5384 15.6569 17.9289L9.29289 24.2929ZM37.5 26C38.0523 26 38.5 25.5523 38.5 25C38.5 24.4477 38.0523 24 37.5 24V26ZM10 26H37.5V24H10V26Z" fill="white"/>
</svg>
