<?xml version="1.0" encoding="utf-8"?>
<!-- Generator: Adobe Illustrator 26.1.0, SVG Export Plug-In . SVG Version: 6.00 Build 0)  -->
<svg version="1.1" id="圖層_1" xmlns="http://www.w3.org/2000/svg" xmlns:xlink="http://www.w3.org/1999/xlink" x="0px" y="0px"
	 viewBox="0 0 200 200" style="enable-background:new 0 0 200 200;" xml:space="preserve">
<style type="text/css">
	.st0{fill:#333333;}
	.st1{fill:#FFFFFF;}
</style>
<path class="st0" d="M150,200H50c-27.5,0-50-22.5-50-50V50C0,22.5,22.5,0,50,0h100c27.5,0,50,22.5,50,50v100
	C200,177.5,177.5,200,150,200z"/>
<g>
	<defs>
		<rect id="SVGID_1_" width="200" height="200"/>
	</defs>
	<clipPath id="SVGID_00000009588434132049676470000009878590512011409043_">
		<use xlink:href="#SVGID_1_"  style="overflow:visible;"/>
	</clipPath>
</g>
<g>
	<g>
		<path class="st1" d="M114.6,70.7c-6.9,0-13.4,2.1-18.7,5.7c-1.9-3.4-5.4-5.7-9.6-5.7H62.6c-6,0-10.9,4.9-10.9,10.9v27.2
			c0,3.5,2.8,6.3,6.3,6.3c1.1,0,2.1-0.3,3.1-0.9v31.4c0,4.1,3.3,7.5,7.5,7.5c2.4,0,4.5-1.1,5.9-2.9c1.4,1.8,3.5,2.9,5.9,2.9
			c4.1,0,7.5-3.4,7.5-7.5v-20.9c6.2,8.2,16,13.5,27,13.5c18.6,0,33.7-15.1,33.7-33.8C148.4,85.8,133.2,70.7,114.6,70.7z M62.6,81.6
			c-0.9,0-1.6,0.7-1.6,1.6v25.5c0,1.7-1.4,3.1-3.1,3.1c-1.7,0-3.1-1.4-3.1-3.1V81.5c0-4.2,3.5-7.7,7.7-7.7h10.4v1.9
			c0,0.9,0.7,1.6,1.6,1.6c0.9,0,1.6-0.8,1.6-1.6v-1.9h10.1c3.1,0,5.7,1.8,6.9,4.4c-2,1.6-3.7,3.5-5.3,5.5v-0.6
			c0-0.9-0.7-1.6-1.6-1.6l0,0l0,0c-0.9,0-1.6,0.7-1.6,1.6v5.7c-2.4,4.6-3.8,9.9-3.8,15.5c0,1.3,0.1,2.6,0.2,3.9H64.2v-25
			C64.2,82.3,63.5,81.6,62.6,81.6z M84.4,145.6c0,2.3-1.9,4.3-4.3,4.3c-2.3,0-4.2-2-4.2-4.3v-27.9c0-0.9-0.7-1.6-1.6-1.6
			c-0.9,0-1.6,0.7-1.6,1.6v27.9c0,2.3-1.9,4.3-4.3,4.3c-2.3,0-4.2-2-4.2-4.3v-34.1h17.4c0.6,2.8,1.6,5.5,2.8,8V145.6z M114.6,134.9
			c-16.8,0-30.5-13.7-30.5-30.5s13.7-30.5,30.5-30.5c16.8,0,30.5,13.7,30.5,30.5S131.4,134.9,114.6,134.9z"/>
	</g>
	<g>
		<path class="st1" d="M114.6,78.7c-14.2,0-25.7,11.5-25.7,25.7c0,14.2,11.5,25.7,25.7,25.7c14.2,0,25.7-11.5,25.7-25.7
			C140.3,90.2,128.8,78.7,114.6,78.7z M114.6,126.9c-12.4,0-22.5-10.1-22.5-22.5s10.1-22.5,22.5-22.5c12.4,0,22.5,10.1,22.5,22.5
			S127,126.9,114.6,126.9z"/>
	</g>
	<g>
		<path class="st1" d="M120.3,97.8c0,0.9,0.7,1.6,1.6,1.6c0.9,0,1.6-0.8,1.6-1.6c0-4.1-3.2-7.4-7.3-8.1v-2.1c0-0.9-0.7-1.6-1.6-1.6
			c-0.9,0-1.6,0.7-1.6,1.6v2.1c-4.1,0.7-7.3,4.1-7.3,8.1c0,3.6,2,7.4,7.3,8.1v9.9c-2.4-0.6-4.1-2.5-4.1-4.8c0-0.9-0.7-1.6-1.6-1.6
			c-0.9,0-1.6,0.7-1.6,1.6c0,4,3.2,7.4,7.3,8.1v2.1c0,0.9,0.7,1.6,1.6,1.6c0.9,0,1.6-0.7,1.6-1.6v-2.1c4.1-0.7,7.3-4.1,7.3-8.1
			c0-3.6-2-7.4-7.3-8.1V93C118.5,93.7,120.3,95.5,120.3,97.8z M113,102.7c-3.3-0.5-4.1-2.9-4.1-4.9c0-2.3,1.7-4.1,4.1-4.8V102.7z
			 M120.3,111c0,2.3-1.7,4.2-4.1,4.8v-9.6C119.5,106.7,120.3,109,120.3,111z"/>
	</g>
	<g>
		<path class="st1" d="M74.3,66.5c5.4,0,9.8-4.4,9.8-9.8c0-5.4-4.4-9.8-9.8-9.8c-5.4,0-9.8,4.4-9.8,9.8
			C64.5,62.1,68.9,66.5,74.3,66.5z M74.3,50.2c3.6,0,6.6,2.9,6.6,6.5s-3,6.5-6.6,6.5c-3.6,0-6.6-2.9-6.6-6.5S70.7,50.2,74.3,50.2z"
			/>
	</g>
	<g>
		<path class="st1" d="M74.6,102.6c0.9,0,1.6-0.7,1.6-1.6V82c0-0.9-0.7-1.6-1.6-1.6c-0.9,0-1.6,0.7-1.6,1.6v19
			C72.9,101.9,73.7,102.6,74.6,102.6z"/>
	</g>
</g>
</svg>
