<?xml version="1.0" encoding="utf-8"?>
<!-- Generator: Adobe Illustrator 26.1.0, SVG Export Plug-In . SVG Version: 6.00 Build 0)  -->
<svg version="1.1" id="圖層_1" xmlns="http://www.w3.org/2000/svg" xmlns:xlink="http://www.w3.org/1999/xlink" x="0px" y="0px"
	 viewBox="0 0 200 200" style="enable-background:new 0 0 200 200;" xml:space="preserve">
<style type="text/css">
	.st0{fill:#2693A2;}
	.st1{fill:#FFFFFF;}
</style>
<path class="st0" d="M150,200H50c-27.5,0-50-22.5-50-50V50C0,22.5,22.5,0,50,0h100c27.5,0,50,22.5,50,50v100
	C200,177.5,177.5,200,150,200z"/>
<g>
	<g>
		<path class="st1" d="M131.5,117c-2.9-1.2-6.1-2.1-9.2-3h0c-2.3-0.6-4.4-1.1-6.4-1.4h0V112h1c0.8,0,1.5-0.6,1.5-1.5
			c0-0.8-0.7-1.5-1.5-1.5h-1v-4.3h1c0.8,0,1.5-0.6,1.5-1.4c0-0.8-0.7-1.5-1.5-1.5h-0.2c0.8-2.5,1.8-5,2.9-7.5
			c2.2-5.4,4.5-11,4.5-16.5c0-13.8-10.7-25-23.8-25c-13.1,0-23.7,11.2-23.7,25c0,5.5,2.3,11.2,4.6,16.7c1,2.4,1.9,4.8,2.7,7.2h-0.1
			c-0.8,0-1.5,0.6-1.5,1.5c0,0.8,0.6,1.4,1.5,1.4h0.4v4.3h-0.4c-0.8,0-1.5,0.7-1.5,1.5c0,0.8,0.6,1.5,1.5,1.5h0.4v0.7
			c-1.9,0.3-4,0.8-6.3,1.4c-3.2,0.9-6.3,1.8-9.2,3c-9.8,3.8-16,13-16,23.5c0,3.6,2.9,6.5,6.5,6.5H141c3.5,0,6.5-2.9,6.5-6.5
			C147.5,130.1,141.2,120.8,131.5,117z M116.6,115.7c1.1,0.3,2.3,0.5,3.5,0.8c0,0.1,0,0.2-0.1,0.2c-0.1,0.3-0.2,0.6-0.2,0.9
			c-0.1,0.3-0.2,0.6-0.3,0.9c-0.1,0.3-0.2,0.6-0.3,0.8c-0.1,0.3-0.2,0.5-0.3,0.8c-0.1,0.2-0.2,0.5-0.3,0.7c-0.1,0.3-0.2,0.5-0.3,0.7
			c-0.1,0.2-0.2,0.5-0.3,0.7c-0.1,0.2-0.2,0.4-0.3,0.6c-0.1,0.2-0.2,0.4-0.3,0.6c-0.1,0.2-0.2,0.4-0.3,0.6c-0.1,0.2-0.2,0.4-0.3,0.6
			c-0.1,0.2-0.3,0.4-0.4,0.6c-0.1,0.2-0.2,0.3-0.3,0.5c-0.1,0.2-0.3,0.3-0.4,0.5c-0.1,0.1-0.2,0.3-0.4,0.5c-0.1,0.1-0.2,0.3-0.4,0.4
			c-0.1,0.1-0.2,0.3-0.3,0.4c-0.1,0.1-0.2,0.3-0.4,0.4c-0.1,0.1-0.2,0.3-0.3,0.4c-0.1,0.1-0.2,0.2-0.3,0.3c-0.1,0.1-0.2,0.3-0.3,0.3
			c-0.1,0.1-0.2,0.2-0.3,0.3c-0.1,0.1-0.2,0.2-0.3,0.3c-0.1,0.1-0.2,0.2-0.3,0.3c-0.1,0.1-0.2,0.2-0.3,0.2c-0.1,0.1-0.2,0.2-0.3,0.2
			c-0.1,0.1-0.2,0.2-0.3,0.2c-0.1,0.1-0.2,0.1-0.3,0.2c-0.1,0-0.1,0.1-0.2,0.1c-0.1,0.1-0.3,0.2-0.4,0.3l-7.6-6.6
			C107.2,122.9,114.9,119.9,116.6,115.7z M79.3,78c0-12.2,9.4-22.1,20.8-22.1c11.5,0,20.9,9.9,20.9,22.1c0,4.9-2.1,10-4.3,15.3
			c-1.2,2.8-2.3,5.7-3.2,8.6h-7.8c-0.8-4.4-1.4-10.3-1.1-14.8h2.9c1.4,0,2.8-0.7,3.6-1.8c0.8-1.2,1-2.6,0.5-4.1
			c-0.6-1.7-2.3-2.9-4.1-2.9h-0.1c-1.4,0-2.7,0.6-3.6,1.8c-0.8,1-1.4,2.4-1.7,4.1h-4c-0.3-1.7-0.9-3.1-1.7-4.1
			c-0.9-1.2-2.2-1.8-3.7-1.8c-1.2,0-2.3,0.5-3.2,1.4c-0.8,0.9-1.3,2-1.2,3.2c0.1,2.3,2.2,4.2,4.6,4.2h2.7c0.4,4.4-0.3,10.4-1.1,14.8
			h-7.9c-0.9-2.8-2-5.6-3.1-8.2C81.6,88.4,79.3,82.9,79.3,78z M98.6,87.1h3.2c-0.4,5.3,0.5,11.7,1,14.8h-5.3
			C98.1,98.8,99,92.5,98.6,87.1z M105.1,84.3c0.2-1,0.6-1.8,1-2.3c0.4-0.5,0.8-0.7,1.4-0.7c0.7,0,1.2,0.3,1.4,0.9
			c0.3,0.7,0,1.2-0.2,1.5c-0.3,0.4-0.7,0.6-1.2,0.6H105.1z M95.3,84.3H93c-0.9,0-1.7-0.7-1.7-1.5c0-0.4,0.1-0.8,0.4-1.1
			c0.3-0.3,0.7-0.4,1.1-0.4c0.6,0,1,0.2,1.5,0.7C94.7,82.5,95,83.3,95.3,84.3z M87,104.8h25.9v4.3H87V104.8z M112.9,112v4.1
			c-2.5,2.4-8.4,4.8-12.9,6.2c-4.6-1.3-10.7-3.9-13.1-6.3V112H112.9z M97.1,124.4l-5.4,4.7l-2.2,1.9c-1.5-0.9-4.8-3.3-7.4-8.4l0,0
			c-0.2-0.4-0.4-0.8-0.6-1.2c0-0.1-0.1-0.2-0.1-0.3c-0.1-0.3-0.3-0.7-0.4-1.1c-0.1-0.2-0.1-0.4-0.2-0.6c-0.1-0.3-0.2-0.6-0.3-1
			c-0.1-0.3-0.1-0.5-0.2-0.8c-0.1-0.3-0.2-0.6-0.3-0.9c0,0,0-0.2-0.1-0.2c1.2-0.3,2.4-0.6,3.5-0.8C85.1,119.9,92.8,122.9,97.1,124.4
			z M55.4,140.5c0-9.2,5.6-17.4,14.2-20.8c2.4-0.9,4.9-1.8,7.5-2.5c0,0.2,0.1,0.4,0.2,0.6c0.1,0.4,0.2,0.7,0.3,1.1
			c0.1,0.4,0.3,0.9,0.4,1.2c0.1,0.3,0.2,0.7,0.4,1c0.1,0.4,0.3,0.8,0.5,1.1c0.1,0.3,0.3,0.6,0.4,0.9c0.2,0.4,0.3,0.7,0.5,1
			c0.1,0.3,0.3,0.6,0.4,0.8c0.2,0.3,0.3,0.6,0.5,0.9c0.1,0.3,0.3,0.5,0.4,0.7c0.2,0.3,0.4,0.6,0.5,0.8c0.2,0.2,0.3,0.4,0.5,0.6
			c0.2,0.2,0.3,0.5,0.5,0.7c0.1,0.2,0.3,0.4,0.5,0.6c0.2,0.2,0.3,0.4,0.5,0.6c0.2,0.2,0.3,0.3,0.5,0.5c0.2,0.2,0.3,0.3,0.5,0.5
			c0.1,0.1,0.3,0.3,0.5,0.4c0.1,0.1,0.3,0.3,0.5,0.4c0.1,0.1,0.3,0.3,0.4,0.3c0.1,0.1,0.3,0.3,0.4,0.3c0.1,0.1,0.3,0.2,0.4,0.3
			c0.1,0.1,0.3,0.2,0.4,0.3c0.1,0,0.2,0.1,0.3,0.2c0.1,0.1,0.2,0.2,0.4,0.2c0.1,0,0.2,0.1,0.3,0.2c0.1,0.1,0.2,0.1,0.3,0.2
			c0.1,0,0.1,0.1,0.2,0.1c0.1,0,0.1,0,0.2,0.1l0.1,0c0.1,0,0.1,0.1,0.2,0.1c0.1,0.1,0.3,0.1,0.5,0.1c0,0,0,0,0.1,0c0,0,0.1,0,0.1,0
			c0.1,0,0.2,0,0.3,0c0,0,0.1,0,0.1,0c0.1,0,0.3-0.1,0.4-0.2l7.9-6.9v17.2H59C57,144.1,55.4,142.5,55.4,140.5z M141,144.1h-39.6
			v-17.2l7.9,6.9c0.1,0.1,0.3,0.2,0.4,0.2c0,0,0.1,0,0.1,0c0.2,0,0.2,0,0.4,0c0,0,0,0,0.1,0h0c0.2,0,0.3,0,0.5-0.1
			c0,0,0.1,0,0.1-0.1c0,0,0.1,0,0.1,0c0.1,0,0.1,0,0.2-0.1c0.1,0,0.1-0.1,0.2-0.1c0.1,0,0.2-0.1,0.3-0.2c0.1,0,0.2-0.1,0.3-0.2
			c0.1,0,0.2-0.1,0.4-0.2c0.1-0.1,0.2-0.2,0.3-0.2c0.1-0.1,0.3-0.2,0.4-0.3c0.1-0.1,0.3-0.2,0.4-0.3c0.1-0.1,0.3-0.2,0.5-0.3
			c0.1-0.1,0.3-0.2,0.4-0.3c0.2-0.1,0.3-0.3,0.5-0.4c0.2-0.1,0.3-0.3,0.5-0.4c0.2-0.2,0.3-0.3,0.5-0.5c0.1-0.2,0.3-0.3,0.5-0.5
			c0.2-0.2,0.3-0.4,0.5-0.6c0.1-0.2,0.3-0.4,0.5-0.6c0.2-0.2,0.3-0.5,0.5-0.7c0.1-0.2,0.3-0.4,0.5-0.6c0.2-0.3,0.4-0.5,0.5-0.8
			c0.1-0.2,0.3-0.5,0.4-0.7c0.2-0.3,0.3-0.6,0.5-0.9c0.1-0.3,0.3-0.6,0.4-0.8c0.2-0.3,0.3-0.6,0.5-1c0.1-0.3,0.3-0.6,0.4-0.9
			c0.1-0.3,0.3-0.7,0.5-1.1c0.1-0.3,0.3-0.6,0.4-1c0.1-0.4,0.3-0.8,0.4-1.2c0.1-0.3,0.2-0.7,0.3-1.1c0.1-0.2,0.1-0.4,0.2-0.6
			c2.6,0.7,5.1,1.6,7.5,2.5c8.6,3.4,14.2,11.5,14.2,20.8C144.6,142.5,143,144.1,141,144.1z"/>
	</g>
	<g>
		<path class="st1" d="M96.6,119.2h7.2c0.8,0,1.4-0.6,1.4-1.5c0-0.8-0.6-1.4-1.4-1.4h-7.2c-0.8,0-1.5,0.6-1.5,1.4
			C95.1,118.5,95.8,119.2,96.6,119.2z"/>
	</g>
</g>
<g>
	<g>
		<path class="st1" d="M134.3,90.3c-1.7-0.8-2.2-1.9-1.6-3.4c0.6-1.3,2.2-1.7,3.6-1.1c1.4,0.7,2.1,2.2,1.6,3.4
			c-0.3,0.6,0,1.4,0.7,1.7c0.6,0.3,1.4,0,1.7-0.6c1-2.2,0.2-4.7-1.7-6.2l0.4-0.9c0.3-0.6,0-1.4-0.7-1.7c-0.6-0.3-1.4,0-1.7,0.6
			l-0.4,0.9c-2.4-0.5-4.8,0.6-5.8,2.7c-1,2.2-0.8,5.2,2.9,6.8c1.7,0.8,2.3,1.9,1.6,3.4c-0.6,1.2-2.2,1.7-3.6,1
			c-1.4-0.6-2.1-2.2-1.6-3.4c0.3-0.7,0-1.4-0.6-1.7c-0.7-0.3-1.4,0-1.7,0.6c-1,2.2-0.2,4.7,1.7,6.2l-0.4,0.8c-0.3,0.7,0,1.4,0.6,1.7
			c0.7,0.3,1.4,0,1.7-0.6l0.4-0.8c2.4,0.5,4.8-0.6,5.8-2.7C138.2,95,137.9,92,134.3,90.3z"/>
	</g>
	<g>
		<path class="st1" d="M69.6,66.5c1-2.2,0.8-5.2-2.9-6.8c-1.7-0.8-2.2-1.9-1.6-3.4c0.6-1.3,2.2-1.7,3.6-1.1s2.1,2.2,1.6,3.4
			c-0.3,0.6,0,1.4,0.6,1.7c0.6,0.3,1.4,0,1.7-0.6c1-2.2,0.2-4.7-1.8-6.2l0.4-0.9c0.3-0.6,0-1.4-0.6-1.7s-1.4,0-1.7,0.6l-0.4,0.9
			c-2.4-0.5-4.8,0.6-5.8,2.7c-1,2.2-0.8,5.2,2.9,6.8c1.7,0.8,2.3,1.9,1.6,3.4c-0.6,1.2-2.2,1.7-3.6,1c-1.4-0.6-2.1-2.2-1.6-3.4
			c0.3-0.7,0-1.4-0.6-1.7c-0.6-0.3-1.4,0-1.7,0.7c-1,2.2-0.2,4.7,1.7,6.2L61.1,69c-0.3,0.7,0,1.4,0.6,1.7c0.6,0.3,1.4,0,1.7-0.7
			l0.4-0.8C66.2,69.7,68.6,68.6,69.6,66.5z"/>
	</g>
	<g>
		<path class="st1" d="M106.1,39.6L107,40c-0.5,2.4,0.6,4.8,2.7,5.8c2.2,1,5.2,0.8,6.8-2.8c0.8-1.8,1.9-2.3,3.4-1.6
			c1.2,0.6,1.7,2.2,1.1,3.6c-0.7,1.4-2.2,2.1-3.4,1.5c-0.6-0.3-1.4,0-1.7,0.7c-0.3,0.6,0,1.4,0.6,1.7c2.2,1,4.7,0.2,6.2-1.7l0.9,0.4
			c0.6,0.3,1.4,0,1.7-0.6c0.3-0.7,0-1.4-0.6-1.7l-0.9-0.4c0.5-2.4-0.6-4.8-2.7-5.8c-2.2-1-5.2-0.8-6.9,2.9c-0.8,1.7-1.9,2.2-3.4,1.6
			c-1.3-0.6-1.7-2.2-1.1-3.6c0.7-1.5,2.2-2.2,3.5-1.6c0.6,0.3,1.4,0,1.7-0.7c0.3-0.6,0-1.4-0.6-1.7c-2.2-1-4.7-0.2-6.2,1.8l-0.9-0.4
			c-0.6-0.3-1.4,0-1.7,0.7C105.2,38.5,105.5,39.3,106.1,39.6z"/>
	</g>
	<g>
		<path class="st1" d="M69.5,96.8c0.8-0.5,1.5-1.2,1.9-2.1c0.7-1.3,0.7-2.6,0.3-4c-0.9-2.3-3.1-4.2-6.9-2.8
			c-1.8,0.7-2.9,0.2-3.5-1.4c-0.2-0.6-0.2-1.3,0.2-1.9c0.3-0.7,0.9-1.2,1.6-1.4c0.8-0.3,1.5-0.3,2.2,0c0.6,0.2,1.1,0.7,1.3,1.3
			c0.2,0.7,1,1,1.6,0.7c0.7-0.2,1-1,0.8-1.7c-0.5-1.3-1.5-2.3-2.8-2.8c-0.9-0.3-1.9-0.4-2.8-0.3l-0.3-0.9c-0.2-0.7-1-1-1.7-0.8
			c-0.7,0.2-1,1-0.8,1.7l0.3,0.9c-0.8,0.5-1.5,1.2-1.9,2.1c-0.7,1.3-0.7,2.6-0.3,4c0.9,2.3,3.1,4.2,6.9,2.8c1.8-0.7,3-0.3,3.5,1.3
			c0.2,0.6,0.2,1.3-0.1,1.9c-0.3,0.7-0.9,1.2-1.6,1.4c-1.5,0.6-3.1-0.1-3.6-1.3c-0.2-0.7-1-1-1.7-0.8c-0.6,0.2-1,1-0.7,1.6
			c0.5,1.3,1.4,2.2,2.6,2.7c0.9,0.4,2,0.6,3,0.4l0.3,0.9c0.1,0.3,0.4,0.6,0.7,0.7c0.3,0.1,0.6,0.2,1,0c0.7-0.2,1-1,0.8-1.7
			L69.5,96.8z"/>
	</g>
	<g>
		<path class="st1" d="M130.5,55.5c-2,1.3-3,3.8-2.2,6c0.5,1.4,1.4,2.3,2.5,2.9c0.9,0.4,2.3,0.7,4.4-0.1c1.8-0.7,3-0.3,3.5,1.3
			c0.2,0.6,0.2,1.3-0.1,1.9c-0.4,0.7-0.9,1.2-1.7,1.5c-1.5,0.5-3.1-0.1-3.5-1.3c-0.2-0.7-1-1-1.7-0.8c-0.7,0.2-1,1-0.8,1.7
			c0.5,1.2,1.4,2.2,2.6,2.7c0.9,0.4,2,0.6,3,0.4l0.3,0.9c0.1,0.3,0.4,0.6,0.7,0.7c0.3,0.1,0.6,0.2,1,0c0.7-0.3,1-1,0.8-1.7l-0.3-0.9
			c0.8-0.5,1.5-1.2,1.9-2.1c0.7-1.3,0.8-2.7,0.3-4c-0.9-2.3-3.1-4.2-6.9-2.8c-0.9,0.4-1.8,0.4-2.3,0.1c-0.6-0.3-1-1-1.2-1.4
			c-0.5-1.3,0.3-2.8,1.8-3.3c0.7-0.3,1.5-0.3,2.2,0c0.6,0.3,1.1,0.8,1.3,1.3c0.3,0.7,1,1,1.7,0.8c0.7-0.2,1-1,0.7-1.6
			c-0.8-2.2-3.2-3.5-5.6-3.1l-0.3-0.9c-0.2-0.7-1-1-1.7-0.8c-0.7,0.3-1,1-0.8,1.7L130.5,55.5z"/>
	</g>
	<g>
		<path class="st1" d="M95.5,36.8l-0.9,0.4c-1.3-2-3.8-3-6-2.2c-2.3,0.9-4.2,3.1-2.8,6.8c0.4,1,0.4,1.8,0.1,2.4
			c-0.3,0.7-0.9,1-1.4,1.2c-0.6,0.2-1.3,0.2-1.9-0.1c-0.6-0.3-1.1-0.9-1.4-1.7c-0.5-1.5,0-3,1.3-3.6c0.7-0.2,1-1,0.7-1.6
			c-0.2-0.7-1-1-1.7-0.8c-2.2,0.8-3.4,3.2-3.1,5.6l-0.9,0.3c-0.7,0.2-1,1-0.8,1.7c0.1,0.3,0.4,0.6,0.7,0.7c0.3,0.1,0.7,0.2,1,0
			l0.9-0.4c0.5,0.8,1.2,1.5,2.1,1.9c0.1,0,0.2,0.1,0.2,0.1c1.2,0.5,2.5,0.6,3.7,0.2c1.4-0.5,2.4-1.4,2.9-2.5c0.4-0.9,0.7-2.3,0-4.3
			c-0.4-1-0.4-1.8-0.1-2.4c0.3-0.7,0.9-1,1.4-1.2c1.3-0.5,2.8,0.3,3.3,1.8c0.3,0.7,0.3,1.5,0,2.2c-0.2,0.6-0.7,1.1-1.3,1.4
			c-0.7,0.2-1,1-0.7,1.6c0.2,0.7,1,1,1.7,0.8c1.3-0.5,2.3-1.5,2.8-2.8c0.4-0.9,0.4-1.9,0.3-2.8l0.9-0.3c0.7-0.2,1-1,0.8-1.7
			C96.9,36.9,96.2,36.6,95.5,36.8z"/>
	</g>
</g>
</svg>
