<svg xmlns="http://www.w3.org/2000/svg" xmlns:xlink="http://www.w3.org/1999/xlink" width="200" height="200" viewBox="0 0 200 200">
  <defs>
    <clipPath id="clip-Artboard_22">
      <rect width="200" height="200"/>
    </clipPath>
  </defs>
  <g id="Artboard_22" data-name="Artboard – 22" clip-path="url(#clip-Artboard_22)">
    <rect width="200" height="200" fill="#333"/>
    <g id="Group_9456" data-name="Group 9456" transform="translate(68.455 52.648)">
      <g id="Group_9455" data-name="Group 9455">
        <path id="Path_24007" data-name="Path 24007" d="M75.351,271.122H52.014a3.945,3.945,0,0,0-3.945,3.945v.568a3.945,3.945,0,0,0,3.945,3.945h3.87v.957a7.283,7.283,0,0,0,7.284,7.284h1.046a7.283,7.283,0,0,0,7.284-7.284v-.957h3.853a3.945,3.945,0,0,0,3.945-3.945v-.568A3.945,3.945,0,0,0,75.351,271.122Z" transform="translate(-32.528 -193.134)" fill="#fff"/>
        <path id="Path_24008" data-name="Path 24008" d="M69.2,239.206c-13.128,1.481-25.755,14.045-27.3,27.166A31.043,31.043,0,0,0,50.45,291.8a19.932,19.932,0,0,1,5.6,13.885v0a4.794,4.794,0,0,0,4.8,4.8H84.8a4.792,4.792,0,0,0,4.793-4.8,19.652,19.652,0,0,1,5.489-13.776A31.136,31.136,0,0,0,69.2,239.206Zm.592,59.277a3.035,3.035,0,1,1-6.07,0V285.35a7.5,7.5,0,0,0-7.485-7.488,3.035,3.035,0,1,1,0-6.07A13.572,13.572,0,0,1,69.788,285.35Zm19.625-20.62a7.5,7.5,0,0,0-7.485,7.488v13.133a3.035,3.035,0,1,1-6.07,0V285.35a13.572,13.572,0,0,1,13.555-13.557,3.035,3.035,0,1,1,0,6.07Z" transform="translate(-41.668 -239)" fill="#fff"/>
      </g>
    </g>
  </g>
</svg>
