<?xml version="1.0" encoding="utf-8"?>
<!-- Generator: Adobe Illustrator 26.1.0, SVG Export Plug-In . SVG Version: 6.00 Build 0)  -->
<svg version="1.1" id="圖層_1" xmlns="http://www.w3.org/2000/svg" xmlns:xlink="http://www.w3.org/1999/xlink" x="0px" y="0px"
	 viewBox="0 0 200 200" style="enable-background:new 0 0 200 200;" xml:space="preserve">
<style type="text/css">
	.st0{fill:#F2C124;}
	.st1{fill:#FFFFFF;}
</style>
<path class="st0" d="M150,200H50c-27.5,0-50-22.5-50-50V50C0,22.5,22.5,0,50,0h100c27.5,0,50,22.5,50,50v100
	C200,177.5,177.5,200,150,200z"/>
<g>
	<g>
		<path class="st1" d="M150.1,65.2c-2.1-2.5-5.2-3.9-8.5-3.9h-11c-1.5-2.7-3.3-5.5-5.4-8.3c-0.3-0.4-0.8-0.7-1.3-0.7H79.3
			c-0.5,0-1,0.2-1.3,0.7c-2.1,2.8-3.9,5.6-5.4,8.3h-11c-3.3,0-6.3,1.4-8.5,3.9c-2.1,2.5-3.1,5.7-2.6,9l3,19.8
			c1.1,7.8,7.9,13.6,15.8,13.6H70c5.5,9.3,14.9,15.8,25.5,17.6c-0.3,11.6-7.9,16.5-8.2,16.7c-0.1,0.1-0.1,0.1-0.2,0.2
			c-6.3,1.6-10.9,7.2-10.9,14c0,0.8,0.7,1.6,1.6,1.6h47.9c0.9,0,1.6-0.7,1.6-1.6c0-6.8-4.7-12.4-10.9-14c-0.1,0-0.1-0.1-0.2-0.2
			c-0.4-0.2-8-5.1-8.2-16.8c10.5-1.8,20-8.3,25.4-17.6h0.7c7.8,0,14.6-5.8,15.8-13.6l3-19.8C153.2,70.9,152.2,67.6,150.1,65.2z
			 M56.7,93.5l-3-19.8c-0.3-2.3,0.4-4.6,1.9-6.4c1.5-1.8,3.7-2.7,6-2.7H71c-9.2,18.3-6.2,32.1-2.7,39.8
			C62.5,103.8,57.6,99.4,56.7,93.5z M123.9,154.5H79.4c0.8-5.4,5.4-9.6,11.1-9.6h22.3C118.4,144.9,123.1,149.1,123.9,154.5z
			 M111,141.7H92.3c2.7-2.9,6-8.1,6.3-16.2c1,0.1,2,0.1,3,0.1l0,0h0h0c1,0,2,0,3-0.1C104.9,133.6,108.3,138.8,111,141.7z M107,122.1
			c-0.2-0.1-0.5-0.2-0.7-0.2h-9.2c-0.3,0-0.5,0.1-0.8,0.2c-10.4-1.7-19.7-8.3-24.5-17.8c-4.1-8.1-8.5-25.2,8.3-48.7h43
			c16.8,23.6,12.5,40.6,8.3,48.7C126.7,113.7,117.4,120.4,107,122.1z M149.5,73.7l-2.9,19.8c-0.9,5.9-5.8,10.4-11.6,10.8
			c3.5-7.7,6.6-21.5-2.7-39.8h9.3c2.3,0,4.5,1,6,2.7C149.2,69,149.9,71.3,149.5,73.7z"/>
	</g>
	<g>
		<path class="st1" d="M122.9,85.4l1-2.7c0.4-1.2,0-2.5-1.1-3.1l-2.4-1.4l0-2.8c0-1.3-0.9-2.4-2.1-2.6l-2.8-0.5l-0.9-2.7
			c-0.4-1.2-1.7-1.9-2.9-1.7l-2.7,0.5l-1.8-2.2c-0.8-1-2.2-1.2-3.3-0.6l-2.4,1.4l-2.4-1.4c-1.1-0.7-2.5-0.4-3.3,0.6l-1.8,2.2
			L91.4,68c-1.2-0.2-2.5,0.5-2.9,1.7l-0.9,2.7l-2.8,0.5c-1.3,0.2-2.2,1.3-2.1,2.6l0,2.8l-2.4,1.4c-1.1,0.7-1.6,1.9-1.1,3.1l1,2.7
			l-1.8,2.1c-0.8,1-0.8,2.4,0,3.3l1.8,2.2l-1,2.7c-0.4,1.2,0,2.5,1.1,3.1l2.4,1.4l0,2.8c0,1.3,0.9,2.4,2.1,2.6l2.8,0.5l0.9,2.7
			c0.4,1.2,1.6,1.9,2.9,1.7l2.7-0.5l1.8,2.2c0.8,1,2.2,1.2,3.3,0.6l2.4-1.4l2.4,1.4c0.4,0.2,0.9,0.4,1.3,0.4c0.8,0,1.5-0.3,2-0.9
			l1.8-2.2l2.7,0.5c1.2,0.2,2.5-0.5,2.9-1.7l0.9-2.7l2.7-0.5c1.3-0.2,2.2-1.3,2.2-2.6l0-2.8l2.4-1.4c1.1-0.6,1.6-1.9,1.1-3.1l-1-2.7
			l1.8-2.2c0.8-0.9,0.8-2.3,0-3.3L122.9,85.4z M119.8,93.8l0.9,2.6l-2.3,1.3c-0.8,0.5-1.3,1.3-1.3,2.3l0,2.7l-2.6,0.4
			c-0.9,0.1-1.7,0.8-2,1.7l-0.9,2.6l-2.5-0.5c-0.9-0.1-1.9,0.2-2.5,0.9l-1.7,2l-2.2-1.3c-0.8-0.5-1.8-0.5-2.7,0l-2.2,1.3l-1.7-2
			c-0.5-0.6-1.2-0.9-2-0.9c-0.1,0-0.3,0-0.5,0l-2.6,0.5l-0.9-2.6c-0.3-0.9-1.1-1.5-2-1.7l-2.6-0.4l0-2.7c0-1-0.5-1.8-1.3-2.3
			l-2.3-1.3l0.9-2.6c0.3-0.9,0.1-1.8-0.5-2.5l-1.7-2l1.7-2.1c0.6-0.7,0.8-1.7,0.5-2.5l-0.9-2.6l2.3-1.3c0.8-0.5,1.3-1.3,1.3-2.3
			l0-2.7l2.6-0.4c0.9-0.1,1.7-0.8,2-1.7l0.9-2.5l2.6,0.5c0.9,0.1,1.9-0.2,2.5-0.9l1.7-2l2.2,1.3c0.8,0.5,1.8,0.5,2.7,0l2.2-1.3
			l1.7,2c0.6,0.7,1.5,1,2.5,0.9l2.5-0.5l0.9,2.5c0.3,0.9,1.1,1.6,2,1.7l2.6,0.4l0,2.7c0,1,0.5,1.8,1.3,2.3l2.3,1.3l-0.9,2.6
			c-0.3,0.9-0.2,1.8,0.4,2.5l1.8,2.1l-1.8,2C119.7,92,119.5,92.9,119.8,93.8z"/>
	</g>
	<g>
		<path class="st1" d="M101.5,81.5c1.9,0,3.5,1.4,3.5,3.1c0,0.9,0.7,1.6,1.6,1.6c0.9,0,1.6-0.7,1.6-1.6c0-2.9-2.2-5.4-5.1-6.1v-1.2
			c0-0.8-0.7-1.6-1.6-1.6c-0.9,0-1.6,0.8-1.6,1.6v1.2c-2.9,0.7-5.1,3.1-5.1,6.1c0,3,1.8,6.3,6.7,6.3c2.4,0,3.5,1,3.5,3.1
			c0,1.7-1.6,3.1-3.5,3.1c-2,0-3.6-1.4-3.6-3.1c0-0.9-0.7-1.6-1.6-1.6c-0.9,0-1.6,0.7-1.6,1.6c0,2.9,2.2,5.4,5.1,6.1v1.2
			c0,0.9,0.7,1.6,1.6,1.6c0.9,0,1.6-0.7,1.6-1.6V100c2.9-0.7,5.1-3.1,5.1-6.1c0-3-1.8-6.3-6.7-6.3c-2.4,0-3.6-1-3.6-3.1
			C98,82.9,99.6,81.5,101.5,81.5z"/>
	</g>
</g>
<g>
	<g>
		<path class="st1" d="M138.8,121.4v-2.7c0-0.9-0.8-1.7-1.8-1.7c-1,0-1.7,0.8-1.7,1.7v2.7h-2.6c-1,0-1.8,0.8-1.8,1.7
			c0,1,0.8,1.8,1.8,1.8h2.6v2.7c0,0.9,0.8,1.7,1.7,1.7c1,0,1.8-0.8,1.8-1.7v-2.7h2.6c1,0,1.7-0.8,1.7-1.8c0-0.9-0.8-1.7-1.7-1.7
			H138.8z"/>
	</g>
	<g>
		<path class="st1" d="M110.8,30.1c0,1,0.8,1.8,1.7,1.8h2.6v2.6c0,1,0.8,1.8,1.7,1.8c1,0,1.8-0.8,1.8-1.8v-2.6h2.6
			c1,0,1.7-0.8,1.7-1.8c0-1-0.8-1.8-1.7-1.8h-2.6v-2.6c0-1-0.8-1.8-1.8-1.8c-1,0-1.7,0.8-1.7,1.8v2.6h-2.6
			C111.6,28.3,110.8,29.1,110.8,30.1z"/>
	</g>
	<g>
		<path class="st1" d="M69.8,135.4h2.7v2.6c0,1,0.8,1.8,1.7,1.8c1,0,1.7-0.8,1.7-1.8v-2.6h2.7c1,0,1.7-0.8,1.7-1.8
			c0-1-0.8-1.8-1.7-1.8h-2.7v-2.6c0-1-0.8-1.8-1.7-1.8c-1,0-1.7,0.8-1.7,1.8v2.6h-2.7c-1,0-1.7,0.8-1.7,1.8
			C68,134.6,68.8,135.4,69.8,135.4z"/>
	</g>
	<g>
		<path class="st1" d="M126.5,41h2.6v2.6c0,1,0.8,1.8,1.8,1.8c1,0,1.7-0.8,1.7-1.8V41h2.6c1,0,1.8-0.8,1.8-1.8c0-1-0.8-1.7-1.8-1.7
			h-2.6v-2.7c0-1-0.8-1.7-1.7-1.7c-1,0-1.8,0.7-1.8,1.7v2.7h-2.6c-1,0-1.7,0.7-1.7,1.7C124.7,40.2,125.5,41,126.5,41z"/>
	</g>
	<g>
		<path class="st1" d="M39.1,91.8c1,0,1.8-0.8,1.8-1.8v-2.6h2.6c1,0,1.7-0.8,1.7-1.8c0-0.9-0.8-1.8-1.7-1.8h-2.6v-2.6
			c0-1-0.8-1.8-1.8-1.8c-1,0-1.7,0.8-1.7,1.8v2.6h-2.6c-1,0-1.8,0.8-1.8,1.8c0,1,0.8,1.8,1.8,1.8h2.6V90
			C37.4,91,38.1,91.8,39.1,91.8z"/>
	</g>
</g>
</svg>
