<svg xmlns="http://www.w3.org/2000/svg" xmlns:xlink="http://www.w3.org/1999/xlink" width="200" height="200" viewBox="0 0 200 200">
  <defs>
    <clipPath id="clip-Artboard_23">
      <rect width="200" height="200"/>
    </clipPath>
  </defs>
  <g id="Artboard_23" data-name="Artboard – 23" clip-path="url(#clip-Artboard_23)">
    <rect width="200" height="200" fill="#333"/>
    <g id="Group_9454" data-name="Group 9454" transform="translate(58.062 57.824)">
      <g id="Group_9453" data-name="Group 9453" transform="translate(0)">
        <path id="Path_24005" data-name="Path 24005" d="M178.7,244.5a3.953,3.953,0,0,0-3.953,3.953v65.886a3.953,3.953,0,0,0,7.906,0V248.453A3.953,3.953,0,0,0,178.7,244.5Z" transform="translate(-174.75 -239.229)" fill="#fff"/>
        <path id="Path_24006" data-name="Path 24006" d="M202.651,266.646l-1.742,3.856h3.481ZM243.5,242.5h-57.98a5.269,5.269,0,0,0-5.271,5.271v73.792a5.269,5.269,0,0,0,5.271,5.271H243.5a5.269,5.269,0,0,0,5.271-5.271V247.771A5.269,5.269,0,0,0,243.5,242.5Zm-53.078,35.21,9.224-20.425a3.3,3.3,0,0,1,6.009,0l9.224,20.425a3.3,3.3,0,1,1-6.009,2.715l-1.5-3.334h-9.43l-1.5,3.334a3.3,3.3,0,0,1-6.009-2.715Zm31.994,36.277H196.063a3.294,3.294,0,1,1,0-6.589h26.354a3.294,3.294,0,0,1,0,6.589Zm13.177-13.177H196.063a3.294,3.294,0,1,1,0-6.589h39.532a3.294,3.294,0,1,1,0,6.589Zm0-28.99h-4.612v4.612a3.294,3.294,0,1,1-6.589,0v-4.612h-4.612a3.294,3.294,0,0,1,0-6.589h4.612v-4.612a3.294,3.294,0,0,1,6.589,0v4.612h4.612a3.294,3.294,0,0,1,0,6.589Z" transform="translate(-165.755 -242.5)" fill="#fff"/>
      </g>
    </g>
  </g>
</svg>
