<svg id="圖層_1" data-name="圖層 1" xmlns="http://www.w3.org/2000/svg" viewBox="0 0 950 143"><defs><style>.cls-1{fill:#f2c124;}.cls-2{fill:none;stroke:#1c1c1c;stroke-miterlimit:10;}.cls-3,.cls-6{fill:#1c1c1c;}.cls-4{font-size:14px;font-family:LucidaGrande-Bold, Lucida Grande;font-weight:700;}.cls-5{fill:#1a171b;}.cls-6{font-size:11px;font-family:LucidaGrande, Lucida Grande;}</style></defs><title>S-n-2</title><rect class="cls-1" x="659" y="39.15" width="191" height="18.85" rx="9.43"/><rect class="cls-1" x="262" y="39.24" width="197" height="18.85" rx="9.43"/><line class="cls-2" x1="10.5" y1="48.83" x2="939.5" y2="48.83"/><circle class="cls-3" cx="74.22" cy="49" r="5"/><circle class="cls-3" cx="274.2" cy="48.83" r="5"/><circle class="cls-3" cx="469.57" cy="48.83" r="5"/><circle class="cls-3" cx="670.5" cy="48.83" r="5"/><circle class="cls-3" cx="869" cy="49" r="5"/><text class="cls-4" transform="translate(42.8 126.93)">Discover</text><text class="cls-4" transform="translate(196.98 126.93)">Design &amp; Prototyping</text><text class="cls-4" transform="translate(436.18 126.93)">Develope</text><text class="cls-4" transform="translate(615.46 126.93)">Usability testing</text><text class="cls-4" transform="translate(841.46 126.93)">Release</text><path class="cls-5" d="M89.23,95.61l-6.82-6.82a.52.52,0,0,0-.68,0l-.51.51-1.9-1.9a11.6,11.6,0,1,0-3.07,3.06l1.9,1.9-.51.52a.48.48,0,0,0,0,.68l6.83,6.83a3.37,3.37,0,0,0,4.76-4.78ZM62.28,88.39a10.57,10.57,0,1,1,15,0A10.59,10.59,0,0,1,62.28,88.39Zm15.66.69c.28-.29.55-.59.79-.89l1.8,1.8-1.7,1.7L77,89.89A11.34,11.34,0,0,0,77.94,89.08Zm4.13.74,1.69,1.71-3.39,3.38-1.69-1.7Zm6.48,9.88a2.4,2.4,0,0,1-3.4,0l-4.1-4.1,3.4-3.4,4.1,4.11a2.36,2.36,0,0,1,.7,1.69A2.4,2.4,0,0,1,88.55,99.7Z"/><path class="cls-5" d="M75.21,75.46a7.7,7.7,0,1,0-5.44,13.16,7.71,7.71,0,0,0,5.44-13.16Zm-.69,10.22a6.74,6.74,0,1,1,0-9.52A6.75,6.75,0,0,1,74.52,85.68Z"/><path class="cls-5" d="M286,86.34V77.49a3.76,3.76,0,0,0-7.52,0v9.3a2,2,0,1,1-4,0V83a2.47,2.47,0,1,0-4.93,0V93a3.59,3.59,0,1,1-7.17,0V91.28a1.69,1.69,0,0,0,.72-.72,6.25,6.25,0,0,0,.62-2,74.86,74.86,0,0,0,.39-7.85c0-.9,0-1.62,0-2h0c.05-1.06.08-1.74.09-1.84a3.16,3.16,0,0,0,1.32-1.89,5.07,5.07,0,0,0-1.09-3.84,15.31,15.31,0,0,0-2.26-2.58.47.47,0,0,0-.64,0,12.11,12.11,0,0,0-3.25,4.6,3.16,3.16,0,0,0,1.22,3.71h0s0,.7.09,1.83h0c0,.4,0,1.12,0,2a74.86,74.86,0,0,0,.39,7.85,6.25,6.25,0,0,0,.62,2,1.65,1.65,0,0,0,.73.72V93a4.56,4.56,0,0,0,9.11,0V83a1.5,1.5,0,1,1,3,0v3.83a3,3,0,1,0,5.92,0v-9.3a2.79,2.79,0,0,1,5.58,0v8.85A4.68,4.68,0,0,0,280.89,91v4.73a4.66,4.66,0,1,0,9.31,0V91A4.66,4.66,0,0,0,286,86.34ZM263,77.81a1,1,0,0,0-.25,0,.07.07,0,0,0-.06,0h0l-.28,0h-.87a.65.65,0,0,1-.2,0l-.23,0-.12,0a1,1,0,0,0-.26,0h0c0-.46,0-.8-.05-1a4.91,4.91,0,0,1,2.74,0c0,.17,0,.51-.05,1h0A1,1,0,0,0,263,77.81Zm-3.66-4.45A10.43,10.43,0,0,1,262,69.52a13.51,13.51,0,0,1,1.78,2.1,4.22,4.22,0,0,1,.95,3.08,2.19,2.19,0,0,1-1,1.32,4.51,4.51,0,0,0-1.77-.3,4.57,4.57,0,0,0-1.77.3A2.17,2.17,0,0,1,259.31,73.36Zm1.39,7.28c0-.73,0-1.35,0-1.77a3,3,0,0,1,.75-.16h.88a1.9,1.9,0,0,1,.25,0,2.08,2.08,0,0,1,.68.14c0,.42,0,1,0,1.77-.05,2.46-.11,6.16-.37,7.72a5.84,5.84,0,0,1-.51,1.72c-.1.16-.23.35-.37.35s-.27-.19-.37-.35a5.84,5.84,0,0,1-.51-1.72C260.81,86.8,260.75,83.1,260.7,80.64Zm24.86,6.65a3.69,3.69,0,0,1,3.67,3.63,5.4,5.4,0,0,1-7.36,0A3.69,3.69,0,0,1,285.56,87.29Zm0,12.11a3.69,3.69,0,0,1-3.7-3.69V92.17a6.36,6.36,0,0,0,7.38,0v3.54A3.68,3.68,0,0,1,285.56,99.4Z"/><path class="cls-5" d="M285.56,91.54a.5.5,0,0,0,.48-.49V88.62a.49.49,0,1,0-1,0v2.43A.49.49,0,0,0,285.56,91.54Z"/><path class="cls-5" d="M261,75.07h0a.49.49,0,0,0,.46-.52,5.79,5.79,0,0,1,.58-2.67.49.49,0,0,0-.21-.65.47.47,0,0,0-.65.21,6.84,6.84,0,0,0-.69,3.17A.48.48,0,0,0,261,75.07Z"/><path class="cls-5" d="M483.15,68.37H456a2.42,2.42,0,0,0-2.43,2.42v21.4A2.43,2.43,0,0,0,456,94.62h10V97.2h-.68a2.69,2.69,0,0,0-2.68,2.69.48.48,0,0,0,.48.48H476a.49.49,0,0,0,.48-.48,2.69,2.69,0,0,0-2.68-2.69h-.7V94.62h10a2.42,2.42,0,0,0,2.42-2.43V70.79A2.42,2.42,0,0,0,483.15,68.37Zm-28.61,2.42A1.46,1.46,0,0,1,456,69.34h27.15a1.46,1.46,0,0,1,1.45,1.45V90H454.54ZM475.48,99.4H463.66a1.73,1.73,0,0,1,1.65-1.22h8.53A1.71,1.71,0,0,1,475.48,99.4Zm-3.3-2.2H467V94.62h5.22Zm12.42-5a1.46,1.46,0,0,1-1.45,1.47H456a1.46,1.46,0,0,1-1.46-1.47V91H484.6Z"/><path class="cls-5" d="M470.39,76.63l-2.1-.33a.22.22,0,0,0-.05-.11l1.25-1.72a.5.5,0,0,0,0-.57,7.71,7.71,0,0,0-1.71-1.71.46.46,0,0,0-.56,0l-1.72,1.24-.12,0-.33-2.11a.51.51,0,0,0-.4-.4,7.5,7.5,0,0,0-2.41,0,.51.51,0,0,0-.41.4l-.33,2.11-.12,0-1.71-1.24a.48.48,0,0,0-.57,0,7.92,7.92,0,0,0-1.71,1.71.5.5,0,0,0,0,.57l1.25,1.72a.37.37,0,0,0-.05.11l-2.1.33a.49.49,0,0,0-.39.41,6.81,6.81,0,0,0-.1,1.21,6.94,6.94,0,0,0,.1,1.2.46.46,0,0,0,.39.39l2.1.35.05.11L457.39,82a.5.5,0,0,0,0,.57,7.5,7.5,0,0,0,1.71,1.71.47.47,0,0,0,.57,0l1.71-1.24.12,0,.33,2.08a.51.51,0,0,0,.41.42,7.88,7.88,0,0,0,1.2.09,8,8,0,0,0,1.21-.09.51.51,0,0,0,.4-.42l.33-2.08.12-.06,1.72,1.25a.45.45,0,0,0,.56,0,7.31,7.31,0,0,0,1.71-1.71.5.5,0,0,0,0-.57l-1.25-1.71a.34.34,0,0,0,.05-.11l2.09-.35a.47.47,0,0,0,.41-.39,7.31,7.31,0,0,0,0-2.41A.51.51,0,0,0,470.39,76.63ZM469.88,79l-2,.32a.49.49,0,0,0-.38.33,3,3,0,0,1-.23.53.51.51,0,0,0,.05.52l1.19,1.64a7.34,7.34,0,0,1-1,1l-1.65-1.21a.47.47,0,0,0-.5,0,4,4,0,0,1-.54.21.54.54,0,0,0-.33.39l-.32,2a5.62,5.62,0,0,1-1.42,0l-.31-2a.56.56,0,0,0-.33-.39,3.29,3.29,0,0,1-.55-.21.48.48,0,0,0-.5,0l-1.65,1.21a6.82,6.82,0,0,1-1-1l1.2-1.64a.51.51,0,0,0,0-.52,4.23,4.23,0,0,1-.23-.53.49.49,0,0,0-.38-.33L457,79c0-.23,0-.48,0-.7s0-.48,0-.71l2-.32a.51.51,0,0,0,.38-.33c.07-.18.14-.36.23-.54a.49.49,0,0,0,0-.51l-1.2-1.65a6.31,6.31,0,0,1,1-1l1.65,1.2a.46.46,0,0,0,.5,0,5,5,0,0,1,.55-.23.49.49,0,0,0,.33-.39l.31-2a5.62,5.62,0,0,1,1.42,0l.32,2a.48.48,0,0,0,.33.39,4.85,4.85,0,0,1,.54.23.46.46,0,0,0,.5,0l1.65-1.2a6.75,6.75,0,0,1,1,1l-1.19,1.65a.5.5,0,0,0-.05.51,3.13,3.13,0,0,1,.23.54.51.51,0,0,0,.38.33l2,.32a5.63,5.63,0,0,1,0,.71A5.8,5.8,0,0,1,469.88,79Z"/><path class="cls-5" d="M463.44,75.94a2.31,2.31,0,1,0,2.3,2.31A2.31,2.31,0,0,0,463.44,75.94Zm0,3.64a1.34,1.34,0,1,1,1.34-1.33A1.34,1.34,0,0,1,463.44,79.58Z"/><path class="cls-5" d="M481.88,81.34l-1.31-.2.78-1.07a.5.5,0,0,0,0-.57,5.69,5.69,0,0,0-1.22-1.23.53.53,0,0,0-.57,0l-1.07.78-.21-1.31a.49.49,0,0,0-.39-.4,5.64,5.64,0,0,0-1.74,0,.49.49,0,0,0-.39.4l-.21,1.31-1.07-.78a.53.53,0,0,0-.57,0,5.74,5.74,0,0,0-1.23,1.23.5.5,0,0,0,0,.57l.78,1.07-1.3.2a.48.48,0,0,0-.4.4,4.72,4.72,0,0,0,0,1.73.48.48,0,0,0,.4.4l1.3.2-.78,1.07a.5.5,0,0,0,0,.57,5,5,0,0,0,1.23,1.23.47.47,0,0,0,.57,0l1.07-.78.21,1.31a.49.49,0,0,0,.39.4,4.77,4.77,0,0,0,1.74,0,.49.49,0,0,0,.39-.4l.21-1.31,1.07.78a.47.47,0,0,0,.57,0,4.92,4.92,0,0,0,1.22-1.23.5.5,0,0,0,0-.57l-.77-1.07,1.3-.2a.49.49,0,0,0,.4-.4,4.72,4.72,0,0,0,0-1.73A.49.49,0,0,0,481.88,81.34ZM481.37,83l-1.29.2a.48.48,0,0,0-.39.32,2.87,2.87,0,0,1-.15.37.46.46,0,0,0,0,.49l.77,1.07c-.16.17-.34.34-.52.51l-1.06-.77a.53.53,0,0,0-.5,0,1.42,1.42,0,0,1-.36.16.48.48,0,0,0-.33.38L477.38,87a2.89,2.89,0,0,1-.72,0l-.21-1.29a.48.48,0,0,0-.33-.38,1.28,1.28,0,0,1-.36-.16.53.53,0,0,0-.5,0l-1.06.77c-.18-.17-.36-.34-.51-.51l.76-1.07a.48.48,0,0,0,.05-.5,1.25,1.25,0,0,1-.15-.36.48.48,0,0,0-.39-.32l-1.29-.2c0-.13,0-.26,0-.37s0-.25,0-.38L474,82a.48.48,0,0,0,.39-.32,1.54,1.54,0,0,1,.15-.36.48.48,0,0,0-.05-.5l-.76-1.06a5,5,0,0,1,.51-.52l1.06.77a.53.53,0,0,0,.5,0,2,2,0,0,1,.36-.16.48.48,0,0,0,.33-.38l.21-1.29c.23,0,.48,0,.72,0l.21,1.29a.48.48,0,0,0,.33.38,2.83,2.83,0,0,1,.36.16.53.53,0,0,0,.5,0l1.06-.77a6.38,6.38,0,0,1,.52.52l-.77,1.06a.47.47,0,0,0,0,.5,2.28,2.28,0,0,1,.15.36.48.48,0,0,0,.39.32l1.29.2c0,.13,0,.26,0,.38S481.38,82.85,481.37,83Z"/><path class="cls-5" d="M477,80.85a1.76,1.76,0,1,0,1.75,1.76A1.75,1.75,0,0,0,477,80.85Zm0,2.53a.78.78,0,1,1,0-1.55.78.78,0,1,1,0,1.55Z"/><path class="cls-5" d="M685,91.42a3.4,3.4,0,0,0,.57-1.9,2.94,2.94,0,0,0-3.06-3,3.08,3.08,0,0,0-2,.68,5.51,5.51,0,0,0-1.43-1.38,3.58,3.58,0,0,0,.57-1.92,3.06,3.06,0,0,0-6.11,0,3.54,3.54,0,0,0,.58,1.93,5,5,0,0,0-1.43,1.37,3.12,3.12,0,0,0-2-.68,3.08,3.08,0,0,0-2,.66,5.63,5.63,0,0,0-1.44-1.36,3.49,3.49,0,0,0,.57-1.92,3.06,3.06,0,0,0-6.11,0,3.48,3.48,0,0,0,.58,1.92,5.21,5.21,0,0,0-1.43,1.38,3.14,3.14,0,0,0-2-.68,2.94,2.94,0,0,0-3.05,3,3.49,3.49,0,0,0,.57,1.9,6,6,0,0,0-2.63,4.8c0,2.57,2,4.15,5.11,4.15S664,98.79,664,96.22a5.06,5.06,0,0,0-.26-1.57,6.41,6.41,0,0,0,2.08,0,5.31,5.31,0,0,0-.26,1.56c0,2.57,2,4.15,5.12,4.15s5.11-1.58,5.11-4.15a5.41,5.41,0,0,0-.25-1.57,5.75,5.75,0,0,0,1,.09,7.1,7.1,0,0,0,1.05-.08,5.31,5.31,0,0,0-.26,1.56c0,2.57,2,4.15,5.11,4.15s5.12-1.58,5.12-4.15A6,6,0,0,0,685,91.42Zm-2.49-3.89a1.92,1.92,0,0,1,2,2,2,2,0,1,1-4,0A1.92,1.92,0,0,1,682.46,87.53Zm-5.9-5.64a1.92,1.92,0,0,1,2,2,2,2,0,1,1-4.06,0A1.93,1.93,0,0,1,676.56,81.89Zm-5.9,5.64a1.92,1.92,0,0,1,2,2,2,2,0,1,1-4.06,0A1.93,1.93,0,0,1,670.66,87.53Zm-5.89-5.64a1.92,1.92,0,0,1,2,2,2,2,0,1,1-4,0A1.92,1.92,0,0,1,664.77,81.89Zm-5.91,5.64a1.93,1.93,0,0,1,2,2,2,2,0,1,1-4.07,0A1.93,1.93,0,0,1,658.86,87.53Zm0,11.82c-1,0-4.09-.23-4.09-3.13a4.89,4.89,0,0,1,2.31-4,2.85,2.85,0,0,0,1.78.64,3,3,0,0,0,1.79-.62,4.86,4.86,0,0,1,2.31,4C663,99.12,659.82,99.35,658.86,99.35Zm5.91-5.63a7.3,7.3,0,0,1-1.52-.18,5.84,5.84,0,0,0-1.91-2.1,3.47,3.47,0,0,0,.57-1.92,3.12,3.12,0,0,0-.38-1.55A4.19,4.19,0,0,1,663,86.56a2.85,2.85,0,0,0,3.55,0A4.5,4.5,0,0,1,668,88a3,3,0,0,0-.4,1.55,3.48,3.48,0,0,0,.58,1.92,5.87,5.87,0,0,0-1.92,2.1A7.14,7.14,0,0,1,664.77,93.72Zm5.89,5.63c-1,0-4.09-.23-4.09-3.13a4.86,4.86,0,0,1,2.31-4,3,3,0,0,0,1.78.62,2.9,2.9,0,0,0,1.77-.62,4.85,4.85,0,0,1,2.32,4C674.75,99.12,671.62,99.35,670.66,99.35Zm5.9-5.63a6.29,6.29,0,0,1-1.51-.2,6,6,0,0,0-1.91-2.1,3.4,3.4,0,0,0,.57-1.9,3.13,3.13,0,0,0-.39-1.55,4.4,4.4,0,0,1,1.47-1.41,2.84,2.84,0,0,0,1.77.62,3,3,0,0,0,1.79-.62A4.37,4.37,0,0,1,679.81,88a3.13,3.13,0,0,0-.4,1.55,3.43,3.43,0,0,0,.58,1.92,5.93,5.93,0,0,0-1.91,2.1A6.67,6.67,0,0,1,676.56,93.72Zm5.9,5.63c-1,0-4.08-.23-4.08-3.13a4.86,4.86,0,0,1,2.31-4,2.85,2.85,0,0,0,3.55,0,4.86,4.86,0,0,1,2.31,4C686.55,99.12,683.42,99.35,682.46,99.35Z"/><path class="cls-5" d="M668.77,79l3.45,2.48a.55.55,0,0,0,.29.11.61.61,0,0,0,.24-.06.52.52,0,0,0,.28-.46V78.58c2.42-.8,4-2.52,4-4.44a4.71,4.71,0,0,0-2.92-4l.6-1a.51.51,0,0,0-.17-.7.53.53,0,0,0-.71.18l-.67,1.13a9.14,9.14,0,0,0-3.11-.52c-3.86,0-7,2.2-7,4.91C663,76.56,665.43,78.57,668.77,79ZM670,70.25a8.56,8.56,0,0,1,2.58.38L670,75l-1.62-2a.5.5,0,0,0-.72-.08.52.52,0,0,0-.07.73l2.09,2.53a.5.5,0,0,0,.39.18h0a.54.54,0,0,0,.4-.25l3-5.11A3.71,3.71,0,0,1,676,74.14c0,1.55-1.41,3-3.6,3.58a.51.51,0,0,0-.37.5v1.84l-2.74-2A.38.38,0,0,0,669,78c-2.84-.32-5-2-5-3.85C664.05,72,666.72,70.25,670,70.25Z"/><path class="cls-5" d="M884.87,68.83a.51.51,0,0,0-.42-.42c-.44-.06-9.19-1.11-18.33,11.63l-6.33,1.51a.45.45,0,0,0-.23.11l-6.5,6.51a.47.47,0,0,0-.12.47.44.44,0,0,0,.36.33l7.31,1.64,2.07,2.06,1.63,7.32a.49.49,0,0,0,.33.35.24.24,0,0,0,.14,0,.52.52,0,0,0,.34-.14l6.5-6.49a.57.57,0,0,0,.12-.23l1.5-6.35C886,78,884.92,69.28,884.87,68.83Zm-1,.53a15,15,0,0,1-2.21,7.43l-5.21-5.23A14.89,14.89,0,0,1,883.92,69.36Zm-23.78,13.1,5.15-1.23a64.43,64.43,0,0,0-4.71,8.38l-6.21-1.38Zm10.7,10.69-5.78,5.77-1.38-6.22a65.48,65.48,0,0,0,8.37-4.7Zm-7.62-1.3-1.79-1.78c4.81-10.15,10-15.34,14.21-18l5.56,5.56C878.55,81.87,873.36,87.05,863.22,91.85Z"/><path class="cls-5" d="M859.48,91.94a.49.49,0,0,0-.49-.12L855.23,93a.46.46,0,0,0-.33.34.52.52,0,0,0,.13.47l4.49,4.48a.51.51,0,0,0,.35.15l.11,0a.47.47,0,0,0,.34-.33l1.13-3.77a.45.45,0,0,0-.12-.47Zm.16,5.06-3.36-3.35,2.71-.82,1.46,1.45Z"/><path class="cls-5" d="M872.56,77.51a2.27,2.27,0,1,0,3.22,0A2.27,2.27,0,0,0,872.56,77.51ZM875.09,80a1.28,1.28,0,0,1-1.84,0,1.3,1.3,0,0,1,0-1.84,1.36,1.36,0,0,1,.92-.37,1.35,1.35,0,0,1,.92.37A1.3,1.3,0,0,1,875.09,80Z"/><text class="cls-6" transform="translate(198.67 30.15)">I started here</text><text class="cls-6" transform="translate(198.67 30.15)">I started here</text><path class="cls-2" d="M246.5,17.45a17,17,0,0,1,30.44,15.11"/><polygon class="cls-3" points="274.31 27.92 275.25 27.56 277.01 32.16 281.48 30.07 281.9 30.98 276.46 33.53 274.31 27.92"/><text class="cls-6" transform="translate(569.67 30.15)">Also support here</text><text class="cls-6" transform="translate(569.67 30.15)">Also support here</text><path class="cls-2" d="M643.5,17.45a17,17,0,0,1,30.44,15.11"/><polygon class="cls-3" points="671.31 27.92 672.25 27.56 674.01 32.16 678.48 30.07 678.9 30.98 673.46 33.53 671.31 27.92"/></svg>